<?xml version="1.0" encoding="UTF-8" standalone="no"?>
<svg
   width="30.48mm"
   height="128.5mm"
   viewBox="0 0 30.48 128.5"
   version="1.1"
   xml:space="preserve"
   style="clip-rule:evenodd;fill-rule:evenodd;stroke-linecap:round;stroke-linejoin:round;stroke-miterlimit:10"
   id="svg179"
   sodipodi:docname="btfld.svg"
   inkscape:version="1.4 (1:1.4+202410161351+e7c3feb100)"
   xmlns:inkscape="http://www.inkscape.org/namespaces/inkscape"
   xmlns:sodipodi="http://sodipodi.sourceforge.net/DTD/sodipodi-0.dtd"
   xmlns:xlink="http://www.w3.org/1999/xlink"
   xmlns="http://www.w3.org/2000/svg"
   xmlns:svg="http://www.w3.org/2000/svg"><defs
   id="defs179"><linearGradient
     inkscape:collect="always"
     xlink:href="#linearGradient190"
     id="linearGradient191"
     x1="505.23157"
     y1="95.861404"
     x2="505.23157"
     y2="459.73859"
     gradientUnits="userSpaceOnUse"
     gradientTransform="matrix(0.0837646,0,0,0.35190075,-27.080526,-33.507987)" /><linearGradient
     id="linearGradient190"
     inkscape:collect="always"><stop
       style="stop-color:#acacac;stop-opacity:1;"
       offset="0"
       id="stop190" /><stop
       style="stop-color:#dbdbdb;stop-opacity:1;"
       offset="1"
       id="stop191" /></linearGradient></defs><sodipodi:namedview
   id="namedview179"
   pagecolor="#ffffff"
   bordercolor="#000000"
   borderopacity="0.25"
   inkscape:showpageshadow="2"
   inkscape:pageopacity="0.0"
   inkscape:pagecheckerboard="0"
   inkscape:deskcolor="#d1d1d1"
   inkscape:zoom="11.313709"
   inkscape:cx="44.503531"
   inkscape:cy="483.30746"
   inkscape:window-width="1920"
   inkscape:window-height="1016"
   inkscape:window-x="1920"
   inkscape:window-y="27"
   inkscape:window-maximized="1"
   inkscape:current-layer="g112"
   inkscape:document-units="mm"
   showgrid="false" />
    
    <g
   id="DRILLS"
   transform="matrix(1.3301193,0,0,1.3300177,-430.01827,-126.64428)"
   style="display:none">
        <g
   transform="matrix(0,0.684863,-0.684863,0,362.7,397.931)"
   id="g145">
            <path
   d="M -5.28,5.359 C -5.307,5.36 -5.333,5.36 -5.36,5.36 c -2.958,0 -5.36,-2.402 -5.36,-5.36 0,-0.027 0,-0.053 0.001,-0.08 0.042,-2.921 2.427,-5.28 5.359,-5.28 0.027,0 0.053,0 0.08,0.001 2.895,0.042 5.237,2.384 5.279,5.279 C 0,-0.053 0,-0.027 0,0 0,2.932 -2.359,5.317 -5.28,5.359 Z"
   style="fill:#ffffff;stroke:#000000;stroke-width:1.46px"
   id="path144" />
        </g>
        <g
   transform="matrix(0,0.684863,-0.684863,0,400.62,397.931)"
   id="g146">
            <path
   d="M -5.28,5.359 C -5.307,5.36 -5.333,5.36 -5.36,5.36 c -2.958,0 -5.36,-2.402 -5.36,-5.36 0,-0.027 0,-0.053 0.001,-0.08 0.042,-2.921 2.427,-5.28 5.359,-5.28 0.027,0 0.053,0 0.08,0.001 2.895,0.042 5.237,2.384 5.279,5.279 C 0,-0.053 0,-0.027 0,0 0,2.932 -2.359,5.317 -5.28,5.359 Z"
   style="fill:#ffffff;stroke:#000000;stroke-width:1.46px"
   id="path145" />
        </g>
        <g
   transform="matrix(0,0.684863,-0.684863,0,400.62,361.871)"
   id="g147">
            <path
   d="m -5.36,5.36 c -2.958,0 -5.36,-2.402 -5.36,-5.36 0,-0.027 0,-0.053 0.001,-0.08 0.042,-2.921 2.427,-5.28 5.359,-5.28 2.932,0 5.317,2.359 5.359,5.28 C 0,-0.053 0,-0.027 0,0 0,2.958 -2.402,5.36 -5.36,5.36 Z"
   style="fill:#ffffff;stroke:#000000;stroke-width:1.46px"
   id="path146" />
        </g>
        <g
   transform="matrix(0,0.684863,-0.684863,0,400.62,324.491)"
   id="g148">
            <path
   d="M -5.28,5.359 C -5.307,5.36 -5.333,5.36 -5.36,5.36 c -2.958,0 -5.36,-2.402 -5.36,-5.36 0,-0.027 0,-0.053 0.001,-0.08 0.042,-2.921 2.427,-5.28 5.359,-5.28 0.027,0 0.053,0 0.08,0.001 2.895,0.042 5.237,2.384 5.279,5.279 C 0,-0.053 0,-0.027 0,0 0,2.932 -2.359,5.317 -5.28,5.359 Z"
   style="fill:#ffffff;stroke:#000000;stroke-width:1.46px"
   id="path147" />
        </g>
        <g
   transform="matrix(0,0.684863,-0.684863,0,400.62,288.011)"
   id="g149">
            <path
   d="M -5.28,5.359 C -5.307,5.36 -5.333,5.36 -5.36,5.36 c -2.958,0 -5.36,-2.402 -5.36,-5.36 0,-0.027 0,-0.053 0.001,-0.08 0.042,-2.921 2.427,-5.28 5.359,-5.28 0.027,0 0.053,0 0.08,0.001 2.895,0.042 5.237,2.384 5.279,5.279 C 0,-0.053 0,-0.027 0,0 0,2.932 -2.359,5.317 -5.28,5.359 Z"
   style="fill:#ffffff;stroke:#000000;stroke-width:1.46px"
   id="path148" />
        </g>
        <g
   transform="matrix(0,0.684863,-0.684863,0,400.62,250.571)"
   id="g150">
            <path
   d="M -5.28,5.359 C -5.307,5.36 -5.333,5.36 -5.36,5.36 c -2.958,0 -5.36,-2.402 -5.36,-5.36 0,-0.027 0,-0.053 0.001,-0.08 0.042,-2.921 2.427,-5.28 5.359,-5.28 0.027,0 0.053,0 0.08,0.001 2.895,0.042 5.237,2.384 5.279,5.279 C 0,-0.053 0,-0.027 0,0 0,2.932 -2.359,5.317 -5.28,5.359 Z"
   style="fill:#ffffff;stroke:#000000;stroke-width:1.46px"
   id="path149" />
        </g>
        <g
   transform="matrix(0,0.684863,-0.684863,0,362.7,288.011)"
   id="g151">
            <path
   d="M -5.28,5.359 C -5.307,5.36 -5.333,5.36 -5.36,5.36 c -2.958,0 -5.36,-2.402 -5.36,-5.36 0,-0.027 0,-0.053 0.001,-0.08 0.042,-2.921 2.427,-5.28 5.359,-5.28 0.027,0 0.053,0 0.08,0.001 2.895,0.042 5.237,2.384 5.279,5.279 C 0,-0.053 0,-0.027 0,0 0,2.932 -2.359,5.317 -5.28,5.359 Z"
   style="fill:#ffffff;stroke:#000000;stroke-width:1.46px"
   id="path150" />
        </g>
        <g
   transform="matrix(0,0.684863,-0.684863,0,362.7,324.491)"
   id="g152">
            <path
   d="M -5.28,5.359 C -5.307,5.36 -5.333,5.36 -5.36,5.36 c -2.958,0 -5.36,-2.402 -5.36,-5.36 0,-0.027 0,-0.053 0.001,-0.08 0.042,-2.921 2.427,-5.28 5.359,-5.28 0.027,0 0.053,0 0.08,0.001 2.895,0.042 5.237,2.384 5.279,5.279 C 0,-0.053 0,-0.027 0,0 0,2.932 -2.359,5.317 -5.28,5.359 Z"
   style="fill:#ffffff;stroke:#000000;stroke-width:1.46px"
   id="path151" />
        </g>
        <g
   transform="matrix(0,0.684863,-0.684863,0,362.7,361.871)"
   id="g153">
            <path
   d="m -5.36,5.36 c -2.958,0 -5.36,-2.402 -5.36,-5.36 0,-0.027 0,-0.053 0.001,-0.08 0.042,-2.921 2.427,-5.28 5.359,-5.28 2.932,0 5.317,2.359 5.359,5.28 C 0,-0.053 0,-0.027 0,0 0,2.958 -2.402,5.36 -5.36,5.36 Z"
   style="fill:#ffffff;stroke:#000000;stroke-width:1.46px"
   id="path152" />
        </g>
        <g
   transform="matrix(0,0.684863,-0.684863,0,332.52,131.956)"
   id="g154">
            <path
   d="M -5.2,5.279 C -5.227,5.28 -5.253,5.28 -5.28,5.28 c -2.958,0 -5.36,-2.366 -5.36,-5.28 0,-0.054 0.001,-0.107 0.002,-0.16 0.086,-2.84 2.454,-5.12 5.358,-5.12 0.027,0 0.053,0 0.08,0.001 2.867,0.041 5.192,2.305 5.278,5.119 0.001,0.053 0.002,0.106 0.002,0.16 0,2.888 -2.359,5.237 -5.28,5.279 z"
   style="fill:#ffffff;stroke:#000000;stroke-width:1.46px"
   id="path153" />
        </g>
        <g
   transform="matrix(0,0.684863,-0.684863,0,332.52,231.316)"
   id="g155">
            <path
   d="M -5.2,5.279 C -5.227,5.28 -5.253,5.28 -5.28,5.28 c -2.958,0 -5.36,-2.366 -5.36,-5.28 0,-0.054 0.001,-0.107 0.002,-0.16 0.086,-2.84 2.454,-5.12 5.358,-5.12 0.027,0 0.053,0 0.08,0.001 2.867,0.041 5.192,2.305 5.278,5.119 0.001,0.053 0.002,0.106 0.002,0.16 0,2.888 -2.359,5.237 -5.28,5.279 z"
   style="fill:#ffffff;stroke:#000000;stroke-width:1.46px"
   id="path154" />
        </g>
        <g
   transform="matrix(0,0.684863,-0.684863,0,332.52,217.156)"
   id="g156">
            <path
   d="M -5.2,5.279 C -5.227,5.28 -5.253,5.28 -5.28,5.28 c -2.958,0 -5.36,-2.366 -5.36,-5.28 0,-0.054 0.001,-0.107 0.002,-0.16 0.086,-2.84 2.454,-5.12 5.358,-5.12 0.027,0 0.053,0 0.08,0.001 2.867,0.041 5.192,2.305 5.278,5.119 0.001,0.053 0.002,0.106 0.002,0.16 0,2.888 -2.359,5.237 -5.28,5.279 z"
   style="fill:#ffffff;stroke:#000000;stroke-width:1.46px"
   id="path155" />
        </g>
        <g
   transform="matrix(0,0.684863,-0.684863,0,332.52,202.996)"
   id="g157">
            <path
   d="M -5.2,5.279 C -5.227,5.28 -5.253,5.28 -5.28,5.28 c -2.958,0 -5.36,-2.366 -5.36,-5.28 0,-0.054 0.001,-0.107 0.002,-0.16 0.086,-2.84 2.454,-5.12 5.358,-5.12 0.027,0 0.053,0 0.08,0.001 2.867,0.041 5.192,2.305 5.278,5.119 0.001,0.053 0.002,0.106 0.002,0.16 0,2.888 -2.359,5.237 -5.28,5.279 z"
   style="fill:#ffffff;stroke:#000000;stroke-width:1.46px"
   id="path156" />
        </g>
        <g
   transform="matrix(0,0.684863,-0.684863,0,332.52,188.716)"
   id="g158">
            <path
   d="M -5.2,5.279 C -5.227,5.28 -5.253,5.28 -5.28,5.28 c -2.958,0 -5.36,-2.366 -5.36,-5.28 0,-0.054 0.001,-0.107 0.002,-0.16 0.086,-2.84 2.454,-5.12 5.358,-5.12 0.027,0 0.053,0 0.08,0.001 2.867,0.041 5.192,2.305 5.278,5.119 0.001,0.053 0.002,0.106 0.002,0.16 0,2.888 -2.359,5.237 -5.28,5.279 z"
   style="fill:#ffffff;stroke:#000000;stroke-width:1.46px"
   id="path157" />
        </g>
        <g
   transform="matrix(0,0.684863,-0.684863,0,332.52,174.556)"
   id="g159">
            <path
   d="M -5.2,5.279 C -5.227,5.28 -5.253,5.28 -5.28,5.28 c -2.958,0 -5.36,-2.366 -5.36,-5.28 0,-0.054 0.001,-0.107 0.002,-0.16 0.086,-2.84 2.454,-5.12 5.358,-5.12 0.027,0 0.053,0 0.08,0.001 2.867,0.041 5.192,2.305 5.278,5.119 0.001,0.053 0.002,0.106 0.002,0.16 0,2.888 -2.359,5.237 -5.28,5.279 z"
   style="fill:#ffffff;stroke:#000000;stroke-width:1.46px"
   id="path158" />
        </g>
        <g
   transform="matrix(0,0.684863,-0.684863,0,332.52,160.396)"
   id="g160">
            <path
   d="M -5.2,5.279 C -5.227,5.28 -5.253,5.28 -5.28,5.28 c -2.958,0 -5.36,-2.366 -5.36,-5.28 0,-0.054 0.001,-0.107 0.002,-0.16 0.086,-2.84 2.454,-5.12 5.358,-5.12 0.027,0 0.053,0 0.08,0.001 2.867,0.041 5.192,2.305 5.278,5.119 0.001,0.053 0.002,0.106 0.002,0.16 0,2.888 -2.359,5.237 -5.28,5.279 z"
   style="fill:#ffffff;stroke:#000000;stroke-width:1.46px"
   id="path159" />
        </g>
        <g
   transform="matrix(0,0.684863,-0.684863,0,332.52,146.176)"
   id="g161">
            <path
   d="m -5.28,5.28 c -2.958,0 -5.36,-2.366 -5.36,-5.28 0,-2.914 2.402,-5.28 5.36,-5.28 2.904,0 5.272,2.28 5.358,5.12 0.001,0.053 0.002,0.106 0.002,0.16 0,2.914 -2.402,5.28 -5.36,5.28 z"
   style="fill:#ffffff;stroke:#000000;stroke-width:1.46px"
   id="path160" />
        </g>
        
        
        <g
   transform="matrix(0,0.650289,-0.650289,0,343.74,311.34)"
   id="g164">
            <circle
   cx="-13.84"
   cy="0"
   r="13.84"
   style="fill:#ffffff;stroke:#000000;stroke-width:1.54px"
   id="circle163" />
        </g>
        <g
   transform="matrix(0,0.650289,-0.650289,0,343.74,384.78)"
   id="g165">
            <circle
   cx="-13.84"
   cy="0"
   r="13.84"
   style="fill:#ffffff;stroke:#000000;stroke-width:1.54px"
   id="circle164" />
        </g>
        <g
   transform="matrix(0,0.650289,-0.650289,0,343.74,348.3)"
   id="g166">
            <circle
   cx="-13.84"
   cy="0"
   r="13.84"
   style="fill:#ffffff;stroke:#000000;stroke-width:1.54px"
   id="circle165" />
        </g>
        <g
   transform="matrix(0,0.650289,-0.650289,0,381.66,348.3)"
   id="g167">
            <circle
   cx="-13.84"
   cy="0"
   r="13.84"
   style="fill:#ffffff;stroke:#000000;stroke-width:1.54px"
   id="circle166" />
        </g>
        <g
   transform="matrix(0,0.650289,-0.650289,0,381.66,311.34)"
   id="g168">
            <circle
   cx="-13.84"
   cy="0"
   r="13.84"
   style="fill:#ffffff;stroke:#000000;stroke-width:1.54px"
   id="circle167" />
        </g>
        <g
   transform="matrix(0,0.650289,-0.650289,0,381.66,384.78)"
   id="g169">
            <circle
   cx="-13.84"
   cy="0"
   r="13.84"
   style="fill:#ffffff;stroke:#000000;stroke-width:1.54px"
   id="circle168" />
        </g>
        <g
   transform="matrix(0,0.650289,-0.650289,0,381.66,421.74)"
   id="g170">
            <circle
   cx="-13.84"
   cy="0"
   r="13.84"
   style="fill:#ffffff;stroke:#000000;stroke-width:1.54px"
   id="circle169" />
        </g>
        <g
   transform="matrix(0,0.650289,-0.650289,0,343.74,421.74)"
   id="g171">
            <circle
   cx="-13.84"
   cy="0"
   r="13.84"
   style="fill:#ffffff;stroke:#000000;stroke-width:1.54px"
   id="circle170" />
        </g>
        <g
   transform="matrix(0,0.650289,-0.650289,0,381.66,274.86)"
   id="g172">
            <circle
   cx="-13.84"
   cy="0"
   r="13.84"
   style="fill:#ffffff;stroke:#000000;stroke-width:1.54px"
   id="circle171" />
        </g>
        <g
   transform="matrix(0,0.58498,-0.58498,0,366.54,223.834)"
   id="g173">
            <ellipse
   cx="-16.879999"
   cy="0"
   rx="16.959999"
   ry="16.879999"
   style="fill:#ffffff;stroke:#000000;stroke-width:1.71px"
   id="ellipse172" />
        </g>
        <g
   transform="matrix(0,0.58498,-0.58498,0,366.54,151.714)"
   id="g174">
            <ellipse
   cx="-16.879999"
   cy="0"
   rx="16.959999"
   ry="16.879999"
   style="fill:#ffffff;stroke:#000000;stroke-width:1.71px"
   id="ellipse173" />
        </g>
        <g
   transform="matrix(0,0.627191,-0.627191,0,343.8,268.704)"
   id="g175">
            <path
   d="m -0.08,0 c 0,6.093 -4.911,11.04 -10.96,11.04 C -17.089,11.04 -22,6.093 -22,0 c 0,-6.093 4.911,-11.04 10.96,-11.04 6.049,0 10.96,4.947 10.96,11.04 z"
   style="fill:#ffffff;stroke:#000000;stroke-width:1.59px"
   id="path174" />
        </g>
    </g>
    <g
   id="OUTLINE"
   transform="matrix(1.3301193,0,0,1.3300177,-430.01827,-126.64428)"
   style="display:none">
        <g
   transform="matrix(0,0.75,-0.75,0,601.8,-46.2)"
   id="g176">
            <path
   d="M 188.8,370.4 H 675.2"
   style="fill:none;fill-rule:nonzero;stroke:#646464;stroke-width:0.48px"
   id="path175" />
        </g>
        <g
   transform="matrix(0.75,0,0,-0.75,0,920.4)"
   id="g177">
            <path
   d="M 432,613.6 H 545.6"
   style="fill:none;fill-rule:nonzero;stroke:#646464;stroke-width:0.48px"
   id="path176" />
        </g>
        <g
   transform="matrix(0,-0.75,0.75,0,131.4,687)"
   id="g178">
            <path
   d="M 302.4,370.4 H 788.8"
   style="fill:none;fill-rule:nonzero;stroke:#646464;stroke-width:0.48px"
   id="path177" />
        </g>
        <g
   transform="matrix(-0.75,0,0,-0.75,733.2,190.8)"
   id="g179">
            <path
   d="M 432,127.2 H 545.6"
   style="fill:none;fill-rule:nonzero;stroke:#646464;stroke-width:0.48px"
   id="path178" />
        </g>
    </g><g
   id="g112"
   inkscape:label="GRAPHICS"
   style="clip-rule:evenodd;fill-rule:evenodd;stroke-linecap:round;stroke-linejoin:round;stroke-miterlimit:10"><rect
     style="clip-rule:evenodd;display:inline;fill:url(#linearGradient191);fill-rule:evenodd;stroke:none;stroke-width:0.0903575;stroke-linecap:round;stroke-linejoin:round;stroke-miterlimit:10;stroke-dasharray:none;stroke-opacity:1;paint-order:stroke fill markers"
     id="rect185"
     width="30.480024"
     height="128.50008"
     x="-1.7739239e-05"
     y="1.5977669e-07" /><g
     transform="matrix(0.35192764,0,0,0.35190075,-120.00083,-85.053353)"
     id="g4"
     style="clip-rule:evenodd;display:inline;fill-rule:evenodd;stroke-linecap:round;stroke-linejoin:round;stroke-miterlimit:10">
            <g
   transform="matrix(7,0,0,7,358.289,433.483)"
   id="g2">
                <rect
   x="0.075000003"
   y="-0.67400002"
   width="0.088"
   height="0.67400002"
   style="fill-rule:nonzero"
   id="rect1" />
            </g>
            <g
   transform="matrix(7,0,0,7,359.962,433.483)"
   id="g3">
                <path
   d="m 0.158,0 v -0.288 c 0,-0.112 -0.001,-0.193 -0.006,-0.278 l 0.003,-0.001 c 0.033,0.073 0.078,0.15 0.125,0.225 L 0.494,0 H 0.582 V -0.674 H 0.5 v 0.282 c 0,0.105 0.002,0.187 0.01,0.277 L 0.507,-0.114 C 0.476,-0.183 0.436,-0.254 0.387,-0.333 L 0.172,-0.674 H 0.076 V 0 Z"
   style="fill-rule:nonzero"
   id="path1" />
            </g>
        </g><g
     transform="matrix(0.35192764,0,0,0.35190075,-120.00083,-71.986575)"
     id="g7"
     style="clip-rule:evenodd;display:inline;fill-rule:evenodd;stroke-linecap:round;stroke-linejoin:round;stroke-miterlimit:10">
            <g
   transform="matrix(7,0,0,7,357.404,433.483)"
   id="g5">
                <path
   d="m 0.529,-0.091 c -0.035,0.017 -0.089,0.028 -0.143,0.028 -0.163,0 -0.258,-0.105 -0.258,-0.271 0,-0.177 0.105,-0.278 0.263,-0.278 0.056,0 0.103,0.012 0.135,0.028 l 0.022,-0.071 c -0.023,-0.012 -0.077,-0.03 -0.16,-0.03 -0.209,0 -0.352,0.142 -0.352,0.354 0,0.222 0.142,0.342 0.332,0.342 0.082,0 0.147,-0.016 0.178,-0.032 z"
   style="fill-rule:nonzero"
   id="path3" />
            </g>
            <g
   transform="matrix(7,0,0,7,361.547,433.483)"
   id="g6">
                <path
   d="M 0.32,0 0.561,-0.674 H 0.468 L 0.354,-0.341 C 0.323,-0.253 0.296,-0.168 0.277,-0.09 H 0.275 C 0.256,-0.169 0.231,-0.251 0.203,-0.342 L 0.098,-0.674 H 0.003 L 0.224,0 Z"
   style="fill-rule:nonzero"
   id="path4" />
            </g>
        </g><g
     transform="matrix(0.35192764,0,0,0.35190075,-120.84648,-59.114045)"
     id="g14"
     style="clip-rule:evenodd;display:inline;fill-rule:evenodd;stroke-linecap:round;stroke-linejoin:round;stroke-miterlimit:10">
            <g
   transform="matrix(7,0,0,7,353.809,433.483)"
   id="g8">
                <rect
   x="0.075000003"
   y="-0.67400002"
   width="0.088"
   height="0.67400002"
   style="fill-rule:nonzero"
   id="rect6" />
            </g>
            <g
   transform="matrix(7,0,0,7,355.481,433.483)"
   id="g9">
                <path
   d="m 0.158,0 v -0.288 c 0,-0.112 -0.001,-0.193 -0.006,-0.278 l 0.003,-0.001 c 0.033,0.073 0.078,0.15 0.125,0.225 L 0.494,0 H 0.582 V -0.674 H 0.5 v 0.282 c 0,0.105 0.002,0.187 0.01,0.277 L 0.507,-0.114 C 0.476,-0.183 0.436,-0.254 0.387,-0.333 L 0.172,-0.674 H 0.076 V 0 Z"
   style="fill-rule:nonzero"
   id="path7" />
            </g>
            <g
   transform="matrix(7,0,0,7,360.087,433.483)"
   id="g10">
                <path
   d="m 0.213,-0.23 c 0,0.132 -0.045,0.167 -0.123,0.167 -0.03,0 -0.056,-0.006 -0.074,-0.013 l -0.012,0.071 c 0.021,0.009 0.06,0.016 0.093,0.016 0.116,0 0.204,-0.055 0.204,-0.234 V -0.674 H 0.213 Z"
   style="fill-rule:nonzero"
   id="path8" />
            </g>
            <g
   transform="matrix(7,0,0,7,362.676,433.483)"
   id="g11">
                <path
   d="M 0.424,-0.388 H 0.163 V -0.601 H 0.44 V -0.674 H 0.075 V 0 h 0.38 V -0.073 H 0.163 v -0.243 h 0.261 z"
   style="fill-rule:nonzero"
   id="path9" />
            </g>
            <g
   transform="matrix(7,0,0,7,366.119,433.483)"
   id="g12">
                <path
   d="m 0.529,-0.091 c -0.035,0.017 -0.089,0.028 -0.143,0.028 -0.163,0 -0.258,-0.105 -0.258,-0.271 0,-0.177 0.105,-0.278 0.263,-0.278 0.056,0 0.103,0.012 0.135,0.028 l 0.022,-0.071 c -0.023,-0.012 -0.077,-0.03 -0.16,-0.03 -0.209,0 -0.352,0.142 -0.352,0.354 0,0.222 0.142,0.342 0.332,0.342 0.082,0 0.147,-0.016 0.178,-0.032 z"
   style="fill-rule:nonzero"
   id="path10" />
            </g>
            <g
   transform="matrix(7,0,0,7,370.375,433.483)"
   id="g13">
                <path
   d="M 0.204,0 H 0.292 V -0.6 H 0.498 V -0.674 H -0.001 V -0.6 h 0.205 z"
   style="fill-rule:nonzero"
   id="path11" />
            </g>
        </g><g
     transform="matrix(0.35192764,0,0,0.35190075,-106.08202,-46.379918)"
     id="g19"
     style="clip-rule:evenodd;display:inline;fill-rule:evenodd;stroke-linecap:round;stroke-linejoin:round;stroke-miterlimit:10">
            <g
   transform="matrix(7,0,0,7,354.88,433.483)"
   id="g15">
                <path
   d="m 0.348,-0.686 c -0.18,0 -0.312,0.14 -0.312,0.354 0,0.204 0.124,0.343 0.303,0.343 0.172,0 0.313,-0.124 0.313,-0.355 0,-0.201 -0.119,-0.342 -0.304,-0.342 z m -0.003,0.071 c 0.145,0 0.215,0.14 0.215,0.275 0,0.153 -0.078,0.28 -0.216,0.28 -0.138,0 -0.216,-0.129 -0.216,-0.274 0,-0.147 0.072,-0.281 0.217,-0.281 z"
   style="fill-rule:nonzero"
   id="path13" />
            </g>
            <g
   transform="matrix(7,0,0,7,359.702,433.483)"
   id="g16">
                <path
   d="m 0.075,-0.674 v 0.397 c 0,0.21 0.104,0.288 0.242,0.288 0.146,0 0.255,-0.084 0.255,-0.291 V -0.674 H 0.484 v 0.4 c 0,0.148 -0.065,0.214 -0.164,0.214 -0.09,0 -0.157,-0.064 -0.157,-0.214 v -0.4 z"
   style="fill-rule:nonzero"
   id="path14" />
            </g>
            <g
   transform="matrix(7,0,0,7,364.23,433.483)"
   id="g17">
                <path
   d="M 0.204,0 H 0.292 V -0.6 H 0.498 V -0.674 H -0.001 V -0.6 h 0.205 z"
   style="fill-rule:nonzero"
   id="path15" />
            </g>
            <g
   transform="matrix(7,0,0,7,369.192,433.483)"
   id="g18">
                <path
   d="M 0.236,0 H 0.321 V -0.65 H 0.246 l -0.142,0.076 0.017,0.067 0.113,-0.061 h 0.002 z"
   style="fill-rule:nonzero"
   id="path16" />
            </g>
        </g><g
     transform="matrix(0.35192764,0,0,0.35190075,-106.08322,-59.114045)"
     id="g24"
     style="clip-rule:evenodd;display:inline;fill-rule:evenodd;stroke-linecap:round;stroke-linejoin:round;stroke-miterlimit:10">
            <g
   transform="matrix(7,0,0,7,354.88,433.483)"
   id="g20">
                <path
   d="m 0.348,-0.686 c -0.18,0 -0.312,0.14 -0.312,0.354 0,0.204 0.124,0.343 0.303,0.343 0.172,0 0.313,-0.124 0.313,-0.355 0,-0.201 -0.119,-0.342 -0.304,-0.342 z m -0.003,0.071 c 0.145,0 0.215,0.14 0.215,0.275 0,0.153 -0.078,0.28 -0.216,0.28 -0.138,0 -0.216,-0.129 -0.216,-0.274 0,-0.147 0.072,-0.281 0.217,-0.281 z"
   style="fill-rule:nonzero"
   id="path18" />
            </g>
            <g
   transform="matrix(7,0,0,7,359.702,433.483)"
   id="g21">
                <path
   d="m 0.075,-0.674 v 0.397 c 0,0.21 0.104,0.288 0.242,0.288 0.146,0 0.255,-0.084 0.255,-0.291 V -0.674 H 0.484 v 0.4 c 0,0.148 -0.065,0.214 -0.164,0.214 -0.09,0 -0.157,-0.064 -0.157,-0.214 v -0.4 z"
   style="fill-rule:nonzero"
   id="path19" />
            </g>
            <g
   transform="matrix(7,0,0,7,364.23,433.483)"
   id="g22">
                <path
   d="M 0.204,0 H 0.292 V -0.6 H 0.498 V -0.674 H -0.001 V -0.6 h 0.205 z"
   style="fill-rule:nonzero"
   id="path20" />
            </g>
            <g
   transform="matrix(7,0,0,7,369.192,433.483)"
   id="g23">
                <path
   d="M 0.46,0 V -0.073 H 0.169 V -0.075 L 0.22,-0.123 c 0.137,-0.132 0.224,-0.229 0.224,-0.349 0,-0.093 -0.059,-0.189 -0.199,-0.189 -0.074,0 -0.139,0.029 -0.183,0.066 l 0.028,0.062 c 0.03,-0.025 0.079,-0.055 0.138,-0.055 0.097,0 0.128,0.061 0.128,0.127 0,0.098 -0.076,0.182 -0.242,0.34 L 0.045,-0.054 V 0 Z"
   style="fill-rule:nonzero"
   id="path21" />
            </g>
        </g><g
     transform="matrix(0.35192764,0,0,0.35190075,-106.04929,-72.043231)"
     id="g29"
     style="clip-rule:evenodd;display:inline;fill-rule:evenodd;stroke-linecap:round;stroke-linejoin:round;stroke-miterlimit:10">
            <g
   transform="matrix(7,0,0,7,354.88,433.483)"
   id="g25">
                <path
   d="m 0.348,-0.686 c -0.18,0 -0.312,0.14 -0.312,0.354 0,0.204 0.124,0.343 0.303,0.343 0.172,0 0.313,-0.124 0.313,-0.355 0,-0.201 -0.119,-0.342 -0.304,-0.342 z m -0.003,0.071 c 0.145,0 0.215,0.14 0.215,0.275 0,0.153 -0.078,0.28 -0.216,0.28 -0.138,0 -0.216,-0.129 -0.216,-0.274 0,-0.147 0.072,-0.281 0.217,-0.281 z"
   style="fill-rule:nonzero"
   id="path23" />
            </g>
            <g
   transform="matrix(7,0,0,7,359.702,433.483)"
   id="g26">
                <path
   d="m 0.075,-0.674 v 0.397 c 0,0.21 0.104,0.288 0.242,0.288 0.146,0 0.255,-0.084 0.255,-0.291 V -0.674 H 0.484 v 0.4 c 0,0.148 -0.065,0.214 -0.164,0.214 -0.09,0 -0.157,-0.064 -0.157,-0.214 v -0.4 z"
   style="fill-rule:nonzero"
   id="path24" />
            </g>
            <g
   transform="matrix(7,0,0,7,364.23,433.483)"
   id="g27">
                <path
   d="M 0.204,0 H 0.292 V -0.6 H 0.498 V -0.674 H -0.001 V -0.6 h 0.205 z"
   style="fill-rule:nonzero"
   id="path25" />
            </g>
            <g
   transform="matrix(7,0,0,7,369.192,433.483)"
   id="g28">
                <path
   d="M 0.4,0 V -0.178 H 0.491 V -0.246 H 0.4 V -0.65 H 0.305 l -0.29,0.415 v 0.057 H 0.317 V 0 Z M 0.104,-0.246 v -0.002 l 0.159,-0.221 c 0.018,-0.03 0.034,-0.058 0.054,-0.096 H 0.32 c -0.002,0.034 -0.003,0.068 -0.003,0.102 v 0.217 z"
   style="fill-rule:nonzero"
   id="path26" />
            </g>
        </g><g
     transform="matrix(0.35192764,0,0,0.35190075,-106.00805,-85.110009)"
     id="g34"
     style="clip-rule:evenodd;display:inline;fill-rule:evenodd;stroke-linecap:round;stroke-linejoin:round;stroke-miterlimit:10">
            <g
   transform="matrix(7,0,0,7,354.88,433.483)"
   id="g30">
                <path
   d="m 0.348,-0.686 c -0.18,0 -0.312,0.14 -0.312,0.354 0,0.204 0.124,0.343 0.303,0.343 0.172,0 0.313,-0.124 0.313,-0.355 0,-0.201 -0.119,-0.342 -0.304,-0.342 z m -0.003,0.071 c 0.145,0 0.215,0.14 0.215,0.275 0,0.153 -0.078,0.28 -0.216,0.28 -0.138,0 -0.216,-0.129 -0.216,-0.274 0,-0.147 0.072,-0.281 0.217,-0.281 z"
   style="fill-rule:nonzero"
   id="path28" />
            </g>
            <g
   transform="matrix(7,0,0,7,359.702,433.483)"
   id="g31">
                <path
   d="m 0.075,-0.674 v 0.397 c 0,0.21 0.104,0.288 0.242,0.288 0.146,0 0.255,-0.084 0.255,-0.291 V -0.674 H 0.484 v 0.4 c 0,0.148 -0.065,0.214 -0.164,0.214 -0.09,0 -0.157,-0.064 -0.157,-0.214 v -0.4 z"
   style="fill-rule:nonzero"
   id="path29" />
            </g>
            <g
   transform="matrix(7,0,0,7,364.23,433.483)"
   id="g32">
                <path
   d="M 0.204,0 H 0.292 V -0.6 H 0.498 V -0.674 H -0.001 V -0.6 h 0.205 z"
   style="fill-rule:nonzero"
   id="path30" />
            </g>
            <g
   transform="matrix(7,0,0,7,369.192,433.483)"
   id="g33">
                <path
   d="m 0.166,-0.339 c -0.08,0.034 -0.129,0.093 -0.129,0.175 0,0.095 0.082,0.175 0.218,0.175 0.124,0 0.221,-0.075 0.221,-0.189 0,-0.078 -0.05,-0.136 -0.131,-0.168 v -0.003 c 0.08,-0.037 0.108,-0.097 0.108,-0.152 0,-0.082 -0.064,-0.16 -0.19,-0.16 -0.115,0 -0.202,0.07 -0.202,0.173 0,0.056 0.031,0.112 0.104,0.146 z m 0.091,0.286 c -0.083,0 -0.133,-0.058 -0.13,-0.123 0,-0.062 0.041,-0.113 0.117,-0.135 0.088,0.025 0.143,0.064 0.143,0.142 0,0.067 -0.051,0.116 -0.13,0.116 z m 0.001,-0.545 c 0.079,0 0.11,0.054 0.11,0.106 0,0.059 -0.043,0.099 -0.099,0.118 -0.075,-0.02 -0.125,-0.055 -0.124,-0.12 0,-0.056 0.04,-0.104 0.113,-0.104 z"
   style="fill-rule:nonzero"
   id="path31" />
            </g>
        </g><g
     transform="matrix(0.35192764,0,0,0.35190075,-141.83083,-21.470377)"
     id="g37"
     style="clip-rule:evenodd;display:inline;fill-rule:evenodd;stroke-linecap:round;stroke-linejoin:round;stroke-miterlimit:10">
            <g
   transform="matrix(9,0,0,9,441.084,161.195)"
   id="g35">
                <path
   d="m 0.529,-0.091 c -0.035,0.017 -0.089,0.028 -0.143,0.028 -0.163,0 -0.258,-0.105 -0.258,-0.271 0,-0.177 0.105,-0.278 0.263,-0.278 0.056,0 0.103,0.012 0.135,0.028 l 0.022,-0.071 c -0.023,-0.012 -0.077,-0.03 -0.16,-0.03 -0.209,0 -0.352,0.142 -0.352,0.354 0,0.222 0.142,0.342 0.332,0.342 0.082,0 0.147,-0.016 0.178,-0.032 z"
   style="fill-rule:nonzero"
   id="path33" />
            </g>
            <g
   transform="matrix(9,0,0,9,446.411,161.195)"
   id="g36">
                <path
   d="M 0.32,0 0.561,-0.674 H 0.468 L 0.354,-0.341 C 0.323,-0.253 0.296,-0.168 0.277,-0.09 H 0.275 C 0.256,-0.169 0.231,-0.251 0.203,-0.342 L 0.098,-0.674 H 0.003 L 0.224,0 Z"
   style="fill-rule:nonzero"
   id="path34" />
            </g>
        </g><g
     transform="matrix(0.35192764,0,0,0.35190075,-141.83083,-46.806316)"
     id="g42"
     style="clip-rule:evenodd;display:inline;fill-rule:evenodd;stroke-linecap:round;stroke-linejoin:round;stroke-miterlimit:10">
            <g
   transform="matrix(9,0,0,9,436.562,161.195)"
   id="g38">
                <path
   d="M 0.59,-0.354 H 0.368 v 0.07 h 0.136 v 0.201 c -0.02,0.01 -0.059,0.018 -0.116,0.018 -0.158,0 -0.26,-0.101 -0.26,-0.272 0,-0.169 0.107,-0.271 0.271,-0.271 0.068,0 0.113,0.012 0.149,0.029 L 0.57,-0.65 C 0.541,-0.664 0.479,-0.681 0.401,-0.681 c -0.226,0 -0.365,0.147 -0.365,0.348 0,0.105 0.036,0.195 0.094,0.251 0.066,0.063 0.15,0.089 0.252,0.089 0.091,0 0.169,-0.022 0.208,-0.037 z"
   style="fill-rule:nonzero"
   id="path36" />
            </g>
            <g
   transform="matrix(9,0,0,9,442.375,161.195)"
   id="g39">
                <path
   d="M 0.424,-0.212 0.496,0 H 0.589 L 0.359,-0.674 H 0.255 L 0.025,0 h 0.09 l 0.07,-0.212 z M 0.203,-0.28 0.269,-0.475 c 0.014,-0.041 0.024,-0.083 0.034,-0.122 h 0.002 c 0.01,0.039 0.02,0.079 0.035,0.123 l 0.067,0.194 z"
   style="fill-rule:nonzero"
   id="path37" />
            </g>
            <g
   transform="matrix(9,0,0,9,447.882,161.195)"
   id="g40">
                <rect
   x="0.075000003"
   y="-0.67400002"
   width="0.088"
   height="0.67400002"
   style="fill-rule:nonzero"
   id="rect38" />
            </g>
            <g
   transform="matrix(9,0,0,9,450.033,161.195)"
   id="g41">
                <path
   d="m 0.158,0 v -0.288 c 0,-0.112 -0.001,-0.193 -0.006,-0.278 l 0.003,-0.001 c 0.033,0.073 0.078,0.15 0.125,0.225 L 0.494,0 H 0.582 V -0.674 H 0.5 v 0.282 c 0,0.105 0.002,0.187 0.01,0.277 L 0.507,-0.114 C 0.476,-0.183 0.436,-0.254 0.387,-0.333 L 0.172,-0.674 H 0.076 V 0 Z"
   style="fill-rule:nonzero"
   id="path39" />
            </g>
        </g><g
     transform="matrix(0.35192764,0,0,0.35190075,-111.69211,-40.052532)"
     id="g48"
     style="clip-rule:evenodd;display:inline;fill-rule:evenodd;stroke-linecap:round;stroke-linejoin:round;stroke-miterlimit:10">
            <g
   transform="matrix(7,0,0,7,327.492,267.846)"
   id="g43">
                <path
   d="m 0.076,0 h 0.087 v -0.292 h 0.082 c 0.079,0.003 0.116,0.038 0.136,0.131 C 0.399,-0.077 0.414,-0.02 0.425,0 h 0.09 C 0.501,-0.026 0.485,-0.091 0.463,-0.185 0.447,-0.255 0.416,-0.303 0.365,-0.321 v -0.003 c 0.07,-0.024 0.126,-0.083 0.126,-0.171 0,-0.053 -0.02,-0.099 -0.053,-0.129 -0.041,-0.037 -0.102,-0.055 -0.195,-0.055 -0.059,0 -0.123,0.006 -0.167,0.014 z m 0.087,-0.604 c 0.015,-0.004 0.044,-0.007 0.086,-0.007 0.092,0 0.155,0.038 0.155,0.125 0,0.077 -0.059,0.128 -0.152,0.128 H 0.163 Z"
   style="fill-rule:nonzero"
   id="path41" />
            </g>
            <g
   transform="matrix(7,0,0,7,331.292,267.846)"
   id="g44">
                <path
   d="M 0.424,-0.212 0.496,0 H 0.589 L 0.359,-0.674 H 0.255 L 0.025,0 h 0.09 l 0.07,-0.212 z M 0.203,-0.28 0.269,-0.475 c 0.014,-0.041 0.024,-0.083 0.034,-0.122 h 0.002 c 0.01,0.039 0.02,0.079 0.035,0.123 l 0.067,0.194 z"
   style="fill-rule:nonzero"
   id="path42" />
            </g>
            <g
   transform="matrix(7,0,0,7,335.576,267.846)"
   id="g45">
                <path
   d="m 0.158,0 v -0.288 c 0,-0.112 -0.001,-0.193 -0.006,-0.278 l 0.003,-0.001 c 0.033,0.073 0.078,0.15 0.125,0.225 L 0.494,0 H 0.582 V -0.674 H 0.5 v 0.282 c 0,0.105 0.002,0.187 0.01,0.277 L 0.507,-0.114 C 0.476,-0.183 0.436,-0.254 0.387,-0.333 L 0.172,-0.674 H 0.076 V 0 Z"
   style="fill-rule:nonzero"
   id="path43" />
            </g>
            <g
   transform="matrix(7,0,0,7,340.181,267.846)"
   id="g46">
                <path
   d="M 0.59,-0.354 H 0.368 v 0.07 h 0.136 v 0.201 c -0.02,0.01 -0.059,0.018 -0.116,0.018 -0.158,0 -0.26,-0.101 -0.26,-0.272 0,-0.169 0.107,-0.271 0.271,-0.271 0.068,0 0.113,0.012 0.149,0.029 L 0.57,-0.65 C 0.541,-0.664 0.479,-0.681 0.401,-0.681 c -0.226,0 -0.365,0.147 -0.365,0.348 0,0.105 0.036,0.195 0.094,0.251 0.066,0.063 0.15,0.089 0.252,0.089 0.091,0 0.169,-0.022 0.208,-0.037 z"
   style="fill-rule:nonzero"
   id="path44" />
            </g>
            <g
   transform="matrix(7,0,0,7,344.703,267.846)"
   id="g47">
                <path
   d="M 0.424,-0.388 H 0.163 V -0.601 H 0.44 V -0.674 H 0.075 V 0 h 0.38 V -0.073 H 0.163 v -0.243 h 0.261 z"
   style="fill-rule:nonzero"
   id="path45" />
            </g>
        </g><g
     transform="matrix(0.35192764,0,0,0.35190075,21.834981,122.69301)"
     id="g49"
     style="clip-rule:evenodd;display:inline;fill-rule:evenodd;stroke-linecap:round;stroke-linejoin:round;stroke-miterlimit:10">
            <path
   d="M 0,11.049 C 0.18405644,10.717428 -0.51712383,10.473394 -0.72134244,10.180217 -1.1898343,10.11803 -0.32564674,11.219309 0,11.049 Z M -3.654,4.02 C -1.8775202,2.346971 -0.2253906,0.37324277 2.083,-0.574 1.5296878,0.12983613 3.7393155,0.09278616 3.8700614,0.05710353 1.6487854,-3.6552196 -3.5576422,-5.0145812 -7.3802387,-3.0651116 -9.8301242,-1.8412597 -12.019,0.43166678 -12.360579,3.243592 -12.553682,3.8356109 -10.759385,3.0394861 -11.82,2.728 c 1.326746,0.276683 2.6764942,0.5735211 3.9739402,0.9960569 0.8120093,0.1879813 2.3020552,1.4494136 2.7498567,0.6115525 C -5.8618399,3.7333449 -5.7924354,2.4759536 -6.8920937,2.3033125 -7.4460418,2.0113656 -8.8815511,1.7155919 -8.8157383,1.34625 -8.3463496,1.2781673 -6.8893777,1.8386762 -7.0380737,1.314375 -7.5326225,0.79853598 -8.5587582,0.41403396 -8.708,-0.187 c 1.6159367,0.38955989 3.1576701,1.03152745 4.8044043,1.2987954 0.4780226,-0.038786 1.7786313,0.5917643 0.6475645,0.5675484 -1.592842,-0.4171994 -1.9576293,1.3284487 -0.6682344,2.0433281 l 0.1338027,0.145623 z m 5.298,7.631 C 0.99676284,11.971409 -0.18321787,11.684052 -1.021,11.531375 -2.0597966,11.553584 -2.3532826,10.68432 -2.7447839,9.9158921 -3.4180522,8.7337367 -4.2594624,7.5801865 -5.53,6.996 -7.5313289,5.8530646 -10.042396,5.5350006 -12.208063,6.3922969 c -0.365248,0.8063155 0.274687,1.8374762 0.586034,2.6429082 1.602549,3.3691569 5.46856,5.4483049 9.1624464,4.9263089 C 1.8367825,13.444966 5.5444821,9.4749525 5.4077117,5.0838167 5.2562316,4.2203465 5.5406181,2.7848473 4.7,2.353 2.2296469,2.3576896 0.00386158,4.0786264 -0.95167578,6.297207 -1.1491204,7.2797683 -0.80794865,8.6662598 0.08376953,9.1985098 0.85224038,9.7175398 0.57477112,10.953519 1.4172695,11.482437 l 0.1091685,0.08673 z M 8.422,2.714 C 7.4376075,2.5823892 6.4630639,2.2892226 5.463,2.346 6.5293584,5.9048233 5.2334558,9.9998699 2.3198974,12.306364 -0.85046432,14.999075 -5.8215249,15.100942 -9.139235,12.615222 -11.086511,11.218623 -12.428007,9.0467153 -12.886,6.702 c -1.069061,0.1799753 -1.977003,0.8276375 -2.891,1.371 0.568092,-1.5008777 1.454729,-2.9056398 2.67,-3.965 0.392476,-1.0896961 0.507351,-2.3206629 1.116207,-3.35380199 1.620115,-3.31008661 5.3193719,-5.43176041 8.9964921,-5.13413351 3.08855414,0.164901 5.9594407,2.0045272 7.5417853,4.63957612 C 5.698423,1.0807737 7.2301638,1.3578525 8.216,2.456 c 0.1825866,0.075464 0.2389821,0.040192 0.206,0.258 z"
   style="fill-rule:nonzero"
   id="path47" />
        </g><g
     transform="matrix(0.35192764,0,0,0.35190075,-257.97917,-139.38014)"
     id="g55"
     style="clip-rule:evenodd;display:inline;fill-rule:evenodd;stroke-linecap:round;stroke-linejoin:round;stroke-miterlimit:10">
            <g
   transform="matrix(24,0,0,24,769.558,414.486)"
   id="g50">
                <path
   d="M 0.128,0 C 0.231,0 0.277,-0.059 0.277,-0.176 0.277,-0.235 0.265,-0.279 0.242,-0.308 0.231,-0.321 0.219,-0.33 0.205,-0.337 0.22,-0.345 0.231,-0.354 0.242,-0.367 0.265,-0.396 0.277,-0.44 0.277,-0.498 0.277,-0.615 0.231,-0.674 0.128,-0.674 H 0.017 V 0 Z m 0,-0.643 c 0.084,0 0.117,0.041 0.117,0.145 0,0.103 -0.034,0.145 -0.117,0.145 H 0.049 v -0.29 z m 0,0.321 c 0.083,0 0.117,0.042 0.117,0.146 0,0.104 -0.033,0.145 -0.117,0.145 H 0.049 v -0.291 z"
   style="fill-rule:nonzero"
   id="path48" />
            </g>
            <g
   transform="matrix(24,0,0,24,778.822,414.486)"
   id="g51">
                <path
   d="m 0.005,-0.643 h 0.131 v 0.642 H 0.167 V -0.643 H 0.299 V -0.675 H 0.005 Z"
   style="fill-rule:nonzero"
   id="path49" />
            </g>
            <g
   transform="matrix(24,0,0,24,788.446,414.486)"
   id="g52">
                <path
   d="M 0.007,-0.674 V 0 H 0.038 V -0.322 H 0.249 V -0.353 H 0.038 v -0.29 h 0.211 v -0.031 z"
   style="fill-rule:nonzero"
   id="path50" />
            </g>
            <g
   transform="matrix(24,0,0,24,797.038,414.486)"
   id="g53">
                <path
   d="M 0.242,-0.031 H 0.036 V -0.674 H 0.004 V 0 h 0.238 z"
   style="fill-rule:nonzero"
   id="path51" />
            </g>
            <g
   transform="matrix(24,0,0,24,805.078,414.486)"
   id="g54">
                <path
   d="m 0.127,0 c 0.107,0 0.156,-0.062 0.156,-0.182 v -0.31 c 0,-0.12 -0.049,-0.182 -0.156,-0.182 H 0.012 V 0 Z m 0,-0.643 c 0.087,0 0.124,0.047 0.124,0.151 v 0.31 c 0,0.104 -0.037,0.151 -0.124,0.151 H 0.043 v -0.612 z"
   style="fill-rule:nonzero"
   id="path52" />
            </g>
        </g><g
     transform="matrix(0.35192764,0,0,0.35190075,-118.09229,54.487611)"
     id="g56"
     style="clip-rule:evenodd;display:inline;fill-rule:evenodd;stroke-linecap:round;stroke-linejoin:round;stroke-miterlimit:10">
            <rect
   x="380.71301"
   y="149.65601"
   width="26.375"
   height="26.368"
   style="stroke:#000000;stroke-width:1px"
   id="rect54" />
        </g><g
     transform="matrix(0.35192764,0,0,0.35190075,-131.39519,54.487611)"
     id="g57"
     style="clip-rule:evenodd;display:inline;fill-rule:evenodd;stroke-linecap:round;stroke-linejoin:round;stroke-miterlimit:10">
            <rect
   x="380.71301"
   y="149.65601"
   width="26.375"
   height="26.368"
   style="stroke:#000000;stroke-width:1px"
   id="rect55" />
        </g><g
     transform="matrix(0.35192764,0,0,0.35190075,-126.51712,-55.743399)"
     id="g81"
     style="clip-rule:evenodd;display:inline;fill-rule:evenodd;stroke-linecap:round;stroke-linejoin:round;stroke-miterlimit:10">
            <g
   transform="matrix(1.0495,0,0,1.34295,41.4488,110.151)"
   id="g58">
                <path
   d="m 344.911,150.047 h 1"
   style="fill:none;fill-rule:nonzero;stroke:#231f20;stroke-width:0.33px"
   id="path56" />
            </g>
            <g
   transform="matrix(1.0495,0,0,1.34295,41.4488,110.151)"
   id="g59">
                <path
   d="m 348.031,150.047 h 15.902"
   style="fill:none;fill-rule:nonzero;stroke:#231f20;stroke-width:0.33px;stroke-dasharray:1.41, 1.41"
   id="path57" />
            </g>
            <g
   transform="matrix(1.0495,0,0,1.34295,41.4488,110.151)"
   id="g60">
                <path
   d="m 364.994,150.047 h 1"
   style="fill:none;fill-rule:nonzero;stroke:#231f20;stroke-width:0.33px"
   id="path58" />
            </g>
            <g
   transform="matrix(0,1.13314,1.0495,0,248.503,-84.6525)"
   id="g61">
                <path
   d="m 342.603,150.164 h 9.698"
   style="fill:none;fill-rule:nonzero;stroke:#231f20;stroke-width:0.37px;stroke-dasharray:1.47, 1.47"
   id="path59" />
            </g>
            <g
   transform="matrix(0.919958,0,0,0.711858,129.263,222.002)"
   id="g62">
                <path
   d="m 300.925,125.723 9.731,-9.148 -0.039,9.256"
   style="fill:none;stroke:#000000;stroke-width:0.49px;stroke-miterlimit:1.5"
   id="path60" />
            </g>
            <g
   transform="matrix(0.919958,0,0,0.711858,138.211,222.002)"
   id="g63">
                <path
   d="m 300.925,125.723 9.731,-9.148 -0.039,9.256"
   style="fill:none;stroke:#000000;stroke-width:0.49px;stroke-miterlimit:1.5"
   id="path61" />
            </g>
            <g
   transform="matrix(1.0495,0,0,1.34295,41.4488,110.151)"
   id="g64">
                <path
   d="m 344.911,150.047 h 1"
   style="fill:none;fill-rule:nonzero;stroke:#231f20;stroke-width:0.33px"
   id="path62" />
            </g>
            <g
   transform="matrix(1.0495,0,0,1.34295,41.4488,110.151)"
   id="g65">
                <path
   d="m 348.031,150.047 h 15.902"
   style="fill:none;fill-rule:nonzero;stroke:#231f20;stroke-width:0.33px;stroke-dasharray:1.41, 1.41"
   id="path63" />
            </g>
            <g
   transform="matrix(1.0495,0,0,1.34295,41.4488,110.151)"
   id="g66">
                <path
   d="m 364.994,150.047 h 1"
   style="fill:none;fill-rule:nonzero;stroke:#231f20;stroke-width:0.33px"
   id="path64" />
            </g>
            <g
   transform="matrix(0,1.13314,1.0495,0,248.503,-84.6525)"
   id="g67">
                <path
   d="m 342.603,150.164 h 9.698"
   style="fill:none;fill-rule:nonzero;stroke:#231f20;stroke-width:0.37px;stroke-dasharray:1.47, 1.47"
   id="path65" />
            </g>
            <g
   transform="matrix(1.0495,0,0,1.34295,41.4488,110.151)"
   id="g68">
                <path
   d="m 344.911,150.047 h 1"
   style="fill:none;fill-rule:nonzero;stroke:#231f20;stroke-width:0.33px"
   id="path66" />
            </g>
            <g
   transform="matrix(1.0495,0,0,1.34295,41.4488,110.151)"
   id="g69">
                <path
   d="m 348.031,150.047 h 15.902"
   style="fill:none;fill-rule:nonzero;stroke:#231f20;stroke-width:0.33px;stroke-dasharray:1.41, 1.41"
   id="path67" />
            </g>
            <g
   transform="matrix(1.0495,0,0,1.34295,41.4488,110.151)"
   id="g70">
                <path
   d="m 364.994,150.047 h 1"
   style="fill:none;fill-rule:nonzero;stroke:#231f20;stroke-width:0.33px"
   id="path68" />
            </g>
            <g
   transform="matrix(0,1.13314,1.0495,0,248.503,-84.6525)"
   id="g71">
                <path
   d="m 342.603,150.164 h 9.698"
   style="fill:none;fill-rule:nonzero;stroke:#231f20;stroke-width:0.37px;stroke-dasharray:1.47, 1.47"
   id="path69" />
            </g>
            <g
   transform="matrix(0.919958,0,0,0.711858,129.263,222.002)"
   id="g72">
                <path
   d="m 300.925,125.723 9.731,-9.148 -0.039,9.256"
   style="fill:none;stroke:#000000;stroke-width:0.49px;stroke-miterlimit:1.5"
   id="path70" />
            </g>
            <g
   transform="matrix(0.919958,0,0,0.711858,138.211,222.002)"
   id="g73">
                <path
   d="m 300.925,125.723 9.731,-9.148 -0.039,9.256"
   style="fill:none;stroke:#000000;stroke-width:0.49px;stroke-miterlimit:1.5"
   id="path71" />
            </g>
            <g
   transform="matrix(1.0495,0,0,1.34295,41.4488,110.151)"
   id="g74">
                <path
   d="m 344.911,150.047 h 1"
   style="fill:none;fill-rule:nonzero;stroke:#231f20;stroke-width:0.33px"
   id="path72" />
            </g>
            <g
   transform="matrix(1.0495,0,0,1.34295,41.4488,110.151)"
   id="g75">
                <path
   d="m 348.031,150.047 h 15.902"
   style="fill:none;fill-rule:nonzero;stroke:#231f20;stroke-width:0.33px;stroke-dasharray:1.41, 1.41"
   id="path73" />
            </g>
            <g
   transform="matrix(1.0495,0,0,1.34295,41.4488,110.151)"
   id="g76">
                <path
   d="m 364.994,150.047 h 1"
   style="fill:none;fill-rule:nonzero;stroke:#231f20;stroke-width:0.33px"
   id="path74" />
            </g>
            <g
   transform="matrix(0,1.13314,1.0495,0,248.503,-84.6525)"
   id="g77">
                <path
   d="m 342.603,150.164 h 9.698"
   style="fill:none;fill-rule:nonzero;stroke:#231f20;stroke-width:0.37px;stroke-dasharray:1.47, 1.47"
   id="path75" />
            </g>
            <g
   transform="matrix(1.0495,0,0,1.34295,41.4488,110.151)"
   id="g78">
                <path
   d="m 344.911,150.047 h 1"
   style="fill:none;fill-rule:nonzero;stroke:#231f20;stroke-width:0.33px"
   id="path76" />
            </g>
            <g
   transform="matrix(1.0495,0,0,1.34295,41.4488,110.151)"
   id="g79">
                <path
   d="m 364.994,150.047 h 1"
   style="fill:none;fill-rule:nonzero;stroke:#231f20;stroke-width:0.33px"
   id="path77" />
            </g>
            <g
   transform="matrix(0,1.13314,1.0495,0,248.503,-84.6525)"
   id="g80">
                <path
   d="m 342.603,150.164 h 9.698"
   style="fill:none;fill-rule:nonzero;stroke:#231f20;stroke-width:0.37px;stroke-dasharray:1.47, 1.47"
   id="path78" />
            </g>
        </g><g
     transform="matrix(0.35192764,0,0,0.35190075,-114.71259,-10.184181)"
     id="g84"
     style="clip-rule:evenodd;display:inline;fill-rule:evenodd;stroke-linecap:round;stroke-linejoin:round;stroke-miterlimit:10">
            <g
   transform="matrix(7,0,0,7,331.088,202.536)"
   id="g82">
                <path
   d="M 0.236,0 H 0.321 V -0.65 H 0.246 l -0.142,0.076 0.017,0.067 0.113,-0.061 h 0.002 z"
   style="fill-rule:nonzero"
   id="path80" />
            </g>
            <g
   transform="matrix(7,0,0,7,334.678,202.536)"
   id="g83">
                <path
   d="m 0.263,-0.661 c -0.132,0 -0.227,0.119 -0.227,0.338 0.002,0.215 0.089,0.334 0.216,0.334 0.143,0 0.226,-0.122 0.226,-0.343 0,-0.207 -0.079,-0.329 -0.215,-0.329 z m -0.006,0.068 c 0.092,0 0.132,0.105 0.132,0.265 0,0.166 -0.043,0.271 -0.132,0.271 -0.08,0 -0.132,-0.096 -0.132,-0.265 0,-0.177 0.056,-0.271 0.132,-0.271 z"
   style="fill-rule:nonzero"
   id="path81" />
            </g>
        </g><g
     transform="matrix(0.35192764,0,0,0.35190075,-111.40726,-13.493808)"
     id="g86"
     style="clip-rule:evenodd;display:inline;fill-rule:evenodd;stroke-linecap:round;stroke-linejoin:round;stroke-miterlimit:10">
            <g
   transform="matrix(7,0,0,7,323.67,202.536)"
   id="g85">
                <path
   d="M 0.433,-0.65 H 0.122 L 0.08,-0.338 c 0.024,-0.003 0.053,-0.006 0.091,-0.006 0.129,0 0.186,0.059 0.186,0.143 0.001,0.087 -0.071,0.141 -0.153,0.141 -0.06,0 -0.113,-0.02 -0.14,-0.036 l -0.022,0.067 c 0.032,0.02 0.091,0.04 0.162,0.04 0.141,0 0.242,-0.095 0.242,-0.222 0,-0.081 -0.042,-0.138 -0.093,-0.166 -0.04,-0.025 -0.089,-0.035 -0.14,-0.035 -0.024,0 -0.038,0.001 -0.053,0.003 l 0.025,-0.167 h 0.248 z"
   style="fill-rule:nonzero"
   id="path83" />
            </g>
        </g><g
     transform="matrix(0.35192764,0,0,0.35190075,-108.53204,-41.430258)"
     id="g89"
     style="clip-rule:evenodd;display:inline;fill-rule:evenodd;stroke-linecap:round;stroke-linejoin:round;stroke-miterlimit:10">
            <g
   transform="matrix(7,0,0,7,324.173,202.536)"
   id="g87">
                <path
   d="M 0.433,-0.65 H 0.122 L 0.08,-0.338 c 0.024,-0.003 0.053,-0.006 0.091,-0.006 0.129,0 0.186,0.059 0.186,0.143 0.001,0.087 -0.071,0.141 -0.153,0.141 -0.06,0 -0.113,-0.02 -0.14,-0.036 l -0.022,0.067 c 0.032,0.02 0.091,0.04 0.162,0.04 0.141,0 0.242,-0.095 0.242,-0.222 0,-0.081 -0.042,-0.138 -0.093,-0.166 -0.04,-0.025 -0.089,-0.035 -0.14,-0.035 -0.024,0 -0.038,0.001 -0.053,0.003 l 0.025,-0.167 h 0.248 z"
   style="fill-rule:nonzero"
   id="path85" />
            </g>
            <g
   transform="matrix(7,0,0,7,327.764,202.536)"
   id="g88">
                <path
   d="M 0.32,0 0.561,-0.674 H 0.468 L 0.354,-0.341 C 0.323,-0.253 0.296,-0.168 0.277,-0.09 H 0.275 C 0.256,-0.169 0.231,-0.251 0.203,-0.342 L 0.098,-0.674 H 0.003 L 0.224,0 Z"
   style="fill-rule:nonzero"
   id="path86" />
            </g>
        </g><g
     transform="matrix(0.35192764,0,0,0.35190075,-111.8694,-20.676454)"
     id="g92"
     style="clip-rule:evenodd;display:inline;fill-rule:evenodd;stroke-linecap:round;stroke-linejoin:round;stroke-miterlimit:10">
            <g
   transform="matrix(7,0,0,7,323.439,202.536)"
   id="g90">
                <path
   d="m 0.263,-0.661 c -0.132,0 -0.227,0.119 -0.227,0.338 0.002,0.215 0.089,0.334 0.216,0.334 0.143,0 0.226,-0.122 0.226,-0.343 0,-0.207 -0.079,-0.329 -0.215,-0.329 z m -0.006,0.068 c 0.092,0 0.132,0.105 0.132,0.265 0,0.166 -0.043,0.271 -0.132,0.271 -0.08,0 -0.132,-0.096 -0.132,-0.265 0,-0.177 0.056,-0.271 0.132,-0.271 z"
   style="fill-rule:nonzero"
   id="path88" />
            </g>
            <g
   transform="matrix(7,0,0,7,327.029,202.536)"
   id="g91">
                <path
   d="M 0.32,0 0.561,-0.674 H 0.468 L 0.354,-0.341 C 0.323,-0.253 0.296,-0.168 0.277,-0.09 H 0.275 C 0.256,-0.169 0.231,-0.251 0.203,-0.342 L 0.098,-0.674 H 0.003 L 0.224,0 Z"
   style="fill-rule:nonzero"
   id="path89" />
            </g>
        </g><g
     transform="matrix(0.35192764,0,0,0.35190075,-112.47442,-62.175195)"
     id="g96"
     style="clip-rule:evenodd;display:inline;fill-rule:evenodd;stroke-linecap:round;stroke-linejoin:round;stroke-miterlimit:10">
            <g
   transform="matrix(7,0,0,7,323.406,202.536)"
   id="g93">
                <path
   d="M 0.236,0 H 0.321 V -0.65 H 0.246 l -0.142,0.076 0.017,0.067 0.113,-0.061 h 0.002 z"
   style="fill-rule:nonzero"
   id="path91" />
            </g>
            <g
   transform="matrix(7,0,0,7,326.997,202.536)"
   id="g94">
                <path
   d="m 0.263,-0.661 c -0.132,0 -0.227,0.119 -0.227,0.338 0.002,0.215 0.089,0.334 0.216,0.334 0.143,0 0.226,-0.122 0.226,-0.343 0,-0.207 -0.079,-0.329 -0.215,-0.329 z m -0.006,0.068 c 0.092,0 0.132,0.105 0.132,0.265 0,0.166 -0.043,0.271 -0.132,0.271 -0.08,0 -0.132,-0.096 -0.132,-0.265 0,-0.177 0.056,-0.271 0.132,-0.271 z"
   style="fill-rule:nonzero"
   id="path92" />
            </g>
            <g
   transform="matrix(7,0,0,7,330.587,202.536)"
   id="g95">
                <path
   d="M 0.32,0 0.561,-0.674 H 0.468 L 0.354,-0.341 C 0.323,-0.253 0.296,-0.168 0.277,-0.09 H 0.275 C 0.256,-0.169 0.231,-0.251 0.203,-0.342 L 0.098,-0.674 H 0.003 L 0.224,0 Z"
   style="fill-rule:nonzero"
   id="path93" />
            </g>
        </g><g
     transform="matrix(0.35192764,0,0,0.35190075,-126.70273,-62.08736)"
     id="g98"
     style="clip-rule:evenodd;display:inline;fill-rule:evenodd;stroke-linecap:round;stroke-linejoin:round;stroke-miterlimit:10">
            <g
   transform="matrix(10,0,0,10,362.308,343.21)"
   id="g97">
                <rect
   x="0.029999999"
   y="-0.30199999"
   width="0.24699999"
   height="0.064000003"
   style="fill-rule:nonzero"
   id="rect95" />
            </g>
        </g><g
     transform="matrix(0.35192764,0,0,0.35190075,-118.09229,41.481359)"
     id="g99"
     style="clip-rule:evenodd;display:inline;fill-rule:evenodd;stroke-linecap:round;stroke-linejoin:round;stroke-miterlimit:10">
            <rect
   x="380.71301"
   y="149.65601"
   width="26.375"
   height="26.368"
   style="stroke:#000000;stroke-width:1px"
   id="rect97" />
        </g><g
     transform="matrix(0.35192764,0,0,0.35190075,-118.09229,28.64402)"
     id="g100"
     style="clip-rule:evenodd;display:inline;fill-rule:evenodd;stroke-linecap:round;stroke-linejoin:round;stroke-miterlimit:10">
            <rect
   x="380.71301"
   y="149.65601"
   width="26.375"
   height="26.368"
   style="stroke:#000000;stroke-width:1px"
   id="rect98" />
        </g><g
     transform="matrix(0.35192764,0,0,0.35190075,-118.08353,15.582168)"
     id="g101"
     style="clip-rule:evenodd;display:inline;fill-rule:evenodd;stroke-linecap:round;stroke-linejoin:round;stroke-miterlimit:10">
            <rect
   x="380.71301"
   y="149.65601"
   width="26.375"
   height="26.368"
   style="stroke:#000000;stroke-width:1px"
   id="rect99" />
        </g><g
     transform="matrix(0.35192764,0,0,0.35190075,-118.08353,2.7448283)"
     id="g102"
     style="clip-rule:evenodd;display:inline;fill-rule:evenodd;stroke-linecap:round;stroke-linejoin:round;stroke-miterlimit:10">
            <rect
   x="380.71301"
   y="149.65601"
   width="26.375"
   height="26.368"
   style="stroke:#000000;stroke-width:1px"
   id="rect100" />
        </g><g
     transform="matrix(0.44088087,0,0,0.49819293,-217.71794,-29.296263)"
     id="g107">
            <g
   transform="translate(501.373,271.848)"
   id="g103">
                <path
   style="clip-rule:nonzero;fill-rule:nonzero;stroke-linecap:butt;stroke-linejoin:miter;stroke-miterlimit:4"
   d="M 0,-0.15039062 A 0.15000001,0.15000001 0 0 0 -0.15039062,0 0.15000001,0.15000001 0 0 0 0,0.15039062 H 1 A 0.15000001,0.15000001 0 0 0 1.1503906,0 0.15000001,0.15000001 0 0 0 1,-0.15039062 Z"
   id="path101" />
            </g>
            <g
   transform="matrix(0.761884,0,0,1,504.493,271.848)"
   id="g104">
                <path
   style="clip-rule:nonzero;fill-rule:nonzero;stroke-linecap:butt;stroke-linejoin:miter;stroke-miterlimit:4;stroke-dasharray:1.4, 1.4"
   d="M 0,-0.1640625 A 0.16500001,0.16500001 0 0 0 -0.1640625,0 0.16500001,0.16500001 0 0 0 0,0.1640625 H 1.4003906 A 0.16500001,0.16500001 0 0 0 1.5644531,0 0.16500001,0.16500001 0 0 0 1.4003906,-0.1640625 Z m 2.8007813,0 A 0.16500001,0.16500001 0 0 0 2.6347656,0 0.16500001,0.16500001 0 0 0 2.8007813,0.1640625 H 4.1992187 A 0.16500001,0.16500001 0 0 0 4.3652344,0 0.16500001,0.16500001 0 0 0 4.1992187,-0.1640625 Z m 2.7988281,0 A 0.16500001,0.16500001 0 0 0 5.4355469,0 0.16500001,0.16500001 0 0 0 5.5996094,0.1640625 H 7 A 0.16500001,0.16500001 0 0 0 7.1640625,0 0.16500001,0.16500001 0 0 0 7,-0.1640625 Z m 2.8007812,0 A 0.16500001,0.16500001 0 0 0 8.234375,0 0.16500001,0.16500001 0 0 0 8.4003906,0.1640625 H 9.8007813 A 0.16500001,0.16500001 0 0 0 9.9648438,0 0.16500001,0.16500001 0 0 0 9.8007813,-0.1640625 Z m 2.7988284,0 A 0.16500001,0.16500001 0 0 0 11.035156,0 0.16500001,0.16500001 0 0 0 11.199219,0.1640625 h 1.40039 A 0.16500001,0.16500001 0 0 0 12.765625,0 0.16500001,0.16500001 0 0 0 12.599609,-0.1640625 Z m 2.800781,0 A 0.16500001,0.16500001 0 0 0 13.835938,0 0.16500001,0.16500001 0 0 0 14,0.1640625 h 1.400391 A 0.16500001,0.16500001 0 0 0 15.564453,0 0.16500001,0.16500001 0 0 0 15.400391,-0.1640625 Z"
   id="path102" />
            </g>
            <g
   transform="matrix(0,0.702436,1,0,508.764,270.287)"
   id="g105">
                <path
   style="clip-rule:nonzero;fill-rule:nonzero;stroke-linecap:butt;stroke-linejoin:miter;stroke-dasharray:1.41, 1.41"
   d="m -4.8496094,-5.0253906 a 0.175,0.175 0 0 0 -0.1757812,0.1757812 0.175,0.175 0 0 0 0.1757812,0.1738282 h 1.4101563 a 0.175,0.175 0 0 0 0.1738281,-0.1738282 0.175,0.175 0 0 0 -0.1738281,-0.1757812 z m 2.8203125,0 a 0.175,0.175 0 0 0 -0.1757812,0.1757812 0.175,0.175 0 0 0 0.1757812,0.1738282 h 1.41015628 a 0.175,0.175 0 0 0 0.17382812,-0.1738282 0.175,0.175 0 0 0 -0.17382812,-0.1757812 z m 2.8183594,0 A 0.175,0.175 0 0 0 0.61523437,-4.8496094 0.175,0.175 0 0 0 0.7890625,-4.6757812 H 2.1992188 A 0.175,0.175 0 0 0 2.375,-4.8496094 0.175,0.175 0 0 0 2.1992188,-5.0253906 Z m 2.8203125,0 A 0.175,0.175 0 0 0 3.4355469,-4.8496094 0.175,0.175 0 0 0 3.609375,-4.6757812 H 4.8496094 A 0.175,0.175 0 0 0 5.0253906,-4.8496094 0.175,0.175 0 0 0 4.8496094,-5.0253906 Z"
   id="path103" />
            </g>
            <g
   transform="translate(-2.17023)"
   id="g106">
                <path
   style="clip-rule:nonzero;fill-rule:nonzero;stroke-linecap:butt;stroke-linejoin:miter;stroke-miterlimit:1.5"
   d="m 513.56836,266.46289 a 0.15001501,0.15001501 0 0 0 -0.14844,0.14648 l -0.0176,1.40625 -3.3457,0.0352 a 0.15001501,0.15001501 0 0 0 -0.14844,0.14844 l -0.0215,1.66601 -3.19141,0.0508 a 0.15001501,0.15001501 0 0 0 -0.14648,0.15039 v 1.73632 a 0.15001501,0.15001501 0 0 0 0.125,0.14844 l 0.0176,0.002 a 0.15000001,0.15000001 0 0 0 0.17187,-0.12304 0.15000001,0.15000001 0 0 0 -0.12305,-0.17188 l 0.10743,0.0176 v -1.46289 l 3.18945,-0.0508 a 0.15001501,0.15001501 0 0 0 0.14844,-0.14844 l 0.0215,-1.66406 3.34375,-0.0352 a 0.15001501,0.15001501 0 0 0 0.14844,-0.14843 l 0.0176,-1.4043 h 1.84961 v 4.97656 a 0.15001501,0.15001501 0 0 0 0.15039,0.15039 h 1.83984 a 0.15000001,0.15000001 0 0 0 0.14844,-0.15039 0.15000001,0.15000001 0 0 0 -0.14844,-0.15039 h -1.69141 v -4.97656 a 0.15001501,0.15001501 0 0 0 -0.14843,-0.14844 z"
   id="path104" />
            </g>
        </g><g
     transform="matrix(0,0.26392556,-0.26394573,0,20.538832,76.11156)"
     id="g108"
     style="clip-rule:evenodd;display:none;fill-rule:evenodd;stroke-linecap:round;stroke-linejoin:round;stroke-miterlimit:10">
            <circle
   cx="-11.92"
   cy="0"
   r="11.92"
   style="fill:#ffffff;stroke:#ffffff;stroke-width:0.5px"
   id="circle106" />
        </g><g
     transform="matrix(0,0.26392556,-0.26394573,0,20.538832,102.46189)"
     id="g109"
     style="clip-rule:evenodd;display:inline;fill-rule:evenodd;stroke-linecap:round;stroke-linejoin:round;stroke-miterlimit:10">
            <circle
   cx="-13.84"
   cy="0"
   r="13.84"
   style="stroke:#000000;stroke-width:0.5px"
   id="circle107" />
        </g><g
     transform="matrix(0,0.26392556,-0.26394573,0,20.538832,101.95515)"
     id="g110"
     style="clip-rule:evenodd;display:none;fill-rule:evenodd;stroke-linecap:round;stroke-linejoin:round;stroke-miterlimit:10">
            <circle
   cx="-11.92"
   cy="0"
   r="11.92"
   style="fill:#ffffff;stroke:#ffffff;stroke-width:0.5px"
   id="circle108" />
        </g><g
     transform="matrix(0,0.26392556,-0.26394573,0,20.538832,63.780958)"
     id="g111"
     style="clip-rule:evenodd;display:inline;fill-rule:evenodd;stroke-linecap:round;stroke-linejoin:round;stroke-miterlimit:10">
            <circle
   cx="-13.84"
   cy="0"
   r="13.84"
   style="stroke:#000000;stroke-width:0.5px"
   id="circle109" />
        </g><g
     transform="matrix(0.03298878,0,0,0.03085899,4.369868,57.250384)"
     id="g115"
     style="clip-rule:evenodd;display:inline;fill-rule:evenodd;stroke-linecap:round;stroke-linejoin:round;stroke-miterlimit:10">
            <g
   transform="matrix(5.63236,0,0,11.4337,-1609.02,-1387.92)"
   id="g113">
                <path
   style="clip-rule:nonzero;fill:#231f20;fill-rule:nonzero;stroke-linecap:butt;stroke-linejoin:miter;stroke-dasharray:2.33, 2.33"
   d="m 348.03125,149.77148 a 0.27500001,0.27500001 0 0 0 -0.27539,0.27539 0.27500001,0.27500001 0 0 0 0.27539,0.2754 h 2.33008 a 0.27500001,0.27500001 0 0 0 0.27539,-0.2754 0.27500001,0.27500001 0 0 0 -0.27539,-0.27539 z m 4.66016,0 a 0.27500001,0.27500001 0 0 0 -0.27539,0.27539 0.27500001,0.27500001 0 0 0 0.27539,0.2754 h 2.33007 a 0.27500001,0.27500001 0 0 0 0.27539,-0.2754 0.27500001,0.27500001 0 0 0 -0.27539,-0.27539 z m 4.66015,0 a 0.27500001,0.27500001 0 0 0 -0.27539,0.27539 0.27500001,0.27500001 0 0 0 0.27539,0.2754 h 2.33008 a 0.27500001,0.27500001 0 0 0 0.27344,-0.2754 0.27500001,0.27500001 0 0 0 -0.27344,-0.27539 z m 4.66016,0 a 0.27500001,0.27500001 0 0 0 -0.27539,0.27539 0.27500001,0.27500001 0 0 0 0.27539,0.2754 h 1.92187 a 0.27500001,0.27500001 0 0 0 0.27344,-0.2754 0.27500001,0.27500001 0 0 0 -0.27344,-0.27539 z"
   id="path112" />
            </g>
            <g
   transform="matrix(0,9.74015,8.93538,0,-979.36,-3078.23)"
   id="g114">
                <path
   style="clip-rule:nonzero;fill:#231f20;fill-rule:nonzero;stroke-linecap:butt;stroke-linejoin:miter;stroke-dasharray:2.08, 2.08"
   d="m 342.60352,149.9043 a 0.25999999,0.25999999 0 0 0 -0.25977,0.25976 0.25999999,0.25999999 0 0 0 0.25977,0.25977 h 2.08007 a 0.25999999,0.25999999 0 0 0 0.25977,-0.25977 0.25999999,0.25999999 0 0 0 -0.25977,-0.25976 z m 4.16015,0 a 0.25999999,0.25999999 0 0 0 -0.25976,0.25976 0.25999999,0.25999999 0 0 0 0.25976,0.25977 h 2.08008 a 0.25999999,0.25999999 0 0 0 0.25977,-0.25977 0.25999999,0.25999999 0 0 0 -0.25977,-0.25976 z m 4.16016,0 a 0.25999999,0.25999999 0 0 0 -0.26172,0.25976 0.25999999,0.25999999 0 0 0 0.26172,0.25977 h 1.37695 a 0.25999999,0.25999999 0 0 0 0.25977,-0.25977 0.25999999,0.25999999 0 0 0 -0.25977,-0.25976 z"
   id="path113" />
            </g>
        </g><g
     transform="matrix(0.03298878,0,0,0.03085899,4.369868,70.439624)"
     id="g122"
     style="clip-rule:evenodd;display:inline;fill-rule:evenodd;stroke-linecap:round;stroke-linejoin:round;stroke-miterlimit:10">
            <g
   transform="matrix(5.63236,0,0,11.4337,-1609.02,-1387.92)"
   id="g120">
                <path
   style="clip-rule:nonzero;fill:#231f20;fill-rule:nonzero;stroke-linecap:butt;stroke-linejoin:miter;stroke-dasharray:2.33, 2.33"
   d="m 348.03125,149.77148 a 0.27500001,0.27500001 0 0 0 -0.27539,0.27539 0.27500001,0.27500001 0 0 0 0.27539,0.2754 h 2.33008 a 0.27500001,0.27500001 0 0 0 0.27539,-0.2754 0.27500001,0.27500001 0 0 0 -0.27539,-0.27539 z m 4.66016,0 a 0.27500001,0.27500001 0 0 0 -0.27539,0.27539 0.27500001,0.27500001 0 0 0 0.27539,0.2754 h 2.33007 a 0.27500001,0.27500001 0 0 0 0.27539,-0.2754 0.27500001,0.27500001 0 0 0 -0.27539,-0.27539 z m 4.66015,0 a 0.27500001,0.27500001 0 0 0 -0.27539,0.27539 0.27500001,0.27500001 0 0 0 0.27539,0.2754 h 2.33008 a 0.27500001,0.27500001 0 0 0 0.27344,-0.2754 0.27500001,0.27500001 0 0 0 -0.27344,-0.27539 z m 4.66016,0 a 0.27500001,0.27500001 0 0 0 -0.27539,0.27539 0.27500001,0.27500001 0 0 0 0.27539,0.2754 h 1.92187 a 0.27500001,0.27500001 0 0 0 0.27344,-0.2754 0.27500001,0.27500001 0 0 0 -0.27344,-0.27539 z"
   id="path119" />
            </g>
            <g
   transform="matrix(0,9.74015,8.93538,0,-979.36,-3078.23)"
   id="g121">
                <path
   style="clip-rule:nonzero;fill:#231f20;fill-rule:nonzero;stroke-linecap:butt;stroke-linejoin:miter;stroke-dasharray:2.08, 2.08"
   d="m 342.60352,149.9043 a 0.25999999,0.25999999 0 0 0 -0.25977,0.25976 0.25999999,0.25999999 0 0 0 0.25977,0.25977 h 2.08007 a 0.25999999,0.25999999 0 0 0 0.25977,-0.25977 0.25999999,0.25999999 0 0 0 -0.25977,-0.25976 z m 4.16015,0 a 0.25999999,0.25999999 0 0 0 -0.25976,0.25976 0.25999999,0.25999999 0 0 0 0.25976,0.25977 h 2.08008 a 0.25999999,0.25999999 0 0 0 0.25977,-0.25977 0.25999999,0.25999999 0 0 0 -0.25977,-0.25976 z m 4.16016,0 a 0.25999999,0.25999999 0 0 0 -0.26172,0.25976 0.25999999,0.25999999 0 0 0 0.26172,0.25977 h 1.37695 a 0.25999999,0.25999999 0 0 0 0.25977,-0.25977 0.25999999,0.25999999 0 0 0 -0.25977,-0.25976 z"
   id="path120" />
            </g>
        </g><g
     transform="matrix(0.35192764,0,0,0.35190075,-125.6574,-42.510206)"
     id="g126"
     style="clip-rule:evenodd;display:none;fill-rule:evenodd;stroke-width:0.248108;stroke-linecap:round;stroke-linejoin:round;stroke-miterlimit:10;stroke-dasharray:none">
            <g
   transform="matrix(-0.0013008,0,0,0.527783,409.033,283.439)"
   id="g123"
   style="stroke-width:9.46906;stroke-dasharray:none">
                <path
   d="m 300.925,125.723 9.731,-9.148 -0.039,9.256"
   style="fill:none;stroke:#000000;stroke-width:9.46906;stroke-miterlimit:1.5;stroke-dasharray:none"
   id="path122" />
            </g>
            <g
   transform="matrix(1.66214e-6,0.00217069,0.557047,-4.26541e-4,338.501,344.392)"
   id="g124"
   style="fill:#000000;fill-opacity:1;stroke:#000000;stroke-width:7.13502;stroke-linecap:round;stroke-dasharray:none;stroke-opacity:1">
                <path
   d="m 300.925,125.723 9.731,-9.148 -0.039,9.256"
   style="fill:#000000;fill-opacity:1;stroke:#000000;stroke-width:7.13502;stroke-linecap:round;stroke-miterlimit:1.5;stroke-dasharray:none;stroke-opacity:1"
   id="path123" />
            </g>
            <g
   transform="matrix(-0.0013008,0,0,0.516241,403.857,284.787)"
   id="g125"
   style="stroke-width:9.57433;stroke-dasharray:none">
                <path
   d="m 300.925,125.723 9.731,-9.148 -0.039,9.256"
   style="fill:none;stroke:#000000;stroke-width:9.57433;stroke-miterlimit:1.5;stroke-dasharray:none"
   id="path124" />
            </g>
        </g><g
     transform="matrix(0.03298878,0,0,0.03085899,4.369868,83.296318)"
     id="g129"
     style="clip-rule:evenodd;display:inline;fill-rule:evenodd;stroke-linecap:round;stroke-linejoin:round;stroke-miterlimit:10">
            <g
   transform="matrix(5.63236,0,0,11.4337,-1609.02,-1387.92)"
   id="g127">
                <path
   style="clip-rule:nonzero;fill:#231f20;fill-rule:nonzero;stroke-linecap:butt;stroke-linejoin:miter;stroke-dasharray:2.33, 2.33"
   d="m 348.03125,149.77148 a 0.27500001,0.27500001 0 0 0 -0.27539,0.27539 0.27500001,0.27500001 0 0 0 0.27539,0.2754 h 2.33008 a 0.27500001,0.27500001 0 0 0 0.27539,-0.2754 0.27500001,0.27500001 0 0 0 -0.27539,-0.27539 z m 4.66016,0 a 0.27500001,0.27500001 0 0 0 -0.27539,0.27539 0.27500001,0.27500001 0 0 0 0.27539,0.2754 h 2.33007 a 0.27500001,0.27500001 0 0 0 0.27539,-0.2754 0.27500001,0.27500001 0 0 0 -0.27539,-0.27539 z m 4.66015,0 a 0.27500001,0.27500001 0 0 0 -0.27539,0.27539 0.27500001,0.27500001 0 0 0 0.27539,0.2754 h 2.33008 a 0.27500001,0.27500001 0 0 0 0.27344,-0.2754 0.27500001,0.27500001 0 0 0 -0.27344,-0.27539 z m 4.66016,0 a 0.27500001,0.27500001 0 0 0 -0.27539,0.27539 0.27500001,0.27500001 0 0 0 0.27539,0.2754 h 1.92187 a 0.27500001,0.27500001 0 0 0 0.27344,-0.2754 0.27500001,0.27500001 0 0 0 -0.27344,-0.27539 z"
   id="path126" />
            </g>
            <g
   transform="matrix(0,9.74015,8.93538,0,-979.36,-3078.23)"
   id="g128">
                <path
   style="clip-rule:nonzero;fill:#231f20;fill-rule:nonzero;stroke-linecap:butt;stroke-linejoin:miter;stroke-dasharray:2.08, 2.08"
   d="m 342.60352,149.9043 a 0.25999999,0.25999999 0 0 0 -0.25977,0.25976 0.25999999,0.25999999 0 0 0 0.25977,0.25977 h 2.08007 a 0.25999999,0.25999999 0 0 0 0.25977,-0.25977 0.25999999,0.25999999 0 0 0 -0.25977,-0.25976 z m 4.16015,0 a 0.25999999,0.25999999 0 0 0 -0.25976,0.25976 0.25999999,0.25999999 0 0 0 0.25976,0.25977 h 2.08008 a 0.25999999,0.25999999 0 0 0 0.25977,-0.25977 0.25999999,0.25999999 0 0 0 -0.25977,-0.25976 z m 4.16016,0 a 0.25999999,0.25999999 0 0 0 -0.26172,0.25976 0.25999999,0.25999999 0 0 0 0.26172,0.25977 h 1.37695 a 0.25999999,0.25999999 0 0 0 0.25977,-0.25977 0.25999999,0.25999999 0 0 0 -0.25977,-0.25976 z"
   id="path127" />
            </g>
        </g><g
     transform="matrix(0.35192764,0,0,0.35190075,-125.6574,-29.653442)"
     id="g133"
     style="clip-rule:evenodd;display:inline;fill-rule:evenodd;stroke-linecap:round;stroke-linejoin:round;stroke-miterlimit:10">
            <g
   transform="matrix(-0.0013008,0,0,0.527783,409.033,283.439)"
   id="g130">
                <path
   d="m 300.925,125.723 9.731,-9.148 -0.039,9.256"
   style="fill:none;stroke:#000000;stroke-width:1.18px;stroke-miterlimit:1.5"
   id="path129" />
            </g>
            <g
   transform="matrix(1.66214e-6,0.00217069,0.557047,-4.26541e-4,338.501,344.392)"
   id="g131">
                <path
   d="m 300.925,125.723 9.731,-9.148 -0.039,9.256"
   style="fill:none;stroke:#000000;stroke-width:1.12px;stroke-miterlimit:1.5"
   id="path130" />
            </g>
            <g
   transform="matrix(-0.0013008,0,0,0.516241,403.857,284.787)"
   id="g132">
                <path
   d="m 300.925,125.723 9.731,-9.148 -0.039,9.256"
   style="fill:none;stroke:#000000;stroke-width:1.21px;stroke-miterlimit:1.5"
   id="path131" />
            </g>
        </g><g
     transform="matrix(0.03298878,0,0,0.03085899,4.369868,96.116062)"
     id="g136"
     style="clip-rule:evenodd;display:inline;fill-rule:evenodd;stroke-linecap:round;stroke-linejoin:round;stroke-miterlimit:10">
            <g
   transform="matrix(5.63236,0,0,11.4337,-1609.02,-1387.92)"
   id="g134">
                <path
   d="m 348.031,150.047 h 15.902"
   style="fill:none;fill-rule:nonzero;stroke:#231f20;stroke-width:0.55px;stroke-dasharray:2.33, 2.33"
   id="path133" />
            </g>
            <g
   transform="matrix(0,9.74015,8.93538,0,-979.36,-3078.23)"
   id="g135">
                <path
   d="m 342.603,150.164 h 9.698"
   style="fill:none;fill-rule:nonzero;stroke:#231f20;stroke-width:0.52px;stroke-dasharray:2.08, 2.08"
   id="path134" />
            </g>
        </g><g
     transform="matrix(0.35192764,0,0,0.35190075,-125.6574,-16.833627)"
     id="g140"
     style="clip-rule:evenodd;display:inline;fill-rule:evenodd;stroke-linecap:round;stroke-linejoin:round;stroke-miterlimit:10">
            <g
   transform="matrix(-0.0013008,0,0,0.527783,409.033,283.439)"
   id="g137">
                <path
   d="m 300.925,125.723 9.731,-9.148 -0.039,9.256"
   style="fill:none;stroke:#000000;stroke-width:1.18px;stroke-miterlimit:1.5"
   id="path136" />
            </g>
            <g
   transform="matrix(1.66214e-6,0.00217069,0.557047,-4.26541e-4,338.501,344.392)"
   id="g138">
                <path
   d="m 300.925,125.723 9.731,-9.148 -0.039,9.256"
   style="fill:none;stroke:#000000;stroke-width:1.12px;stroke-miterlimit:1.5"
   id="path137" />
            </g>
            <g
   transform="matrix(-0.0013008,0,0,0.516241,403.857,284.787)"
   id="g139">
                <path
   d="m 300.925,125.723 9.731,-9.148 -0.039,9.256"
   style="fill:none;stroke:#000000;stroke-width:1.21px;stroke-miterlimit:1.5"
   id="path138" />
            </g>
        </g><g
     transform="matrix(0.35192764,0,0,0.35190075,-126.22411,-63.018032)"
     id="g142"
     style="clip-rule:evenodd;display:inline;fill-rule:evenodd;stroke-linecap:round;stroke-linejoin:round;stroke-miterlimit:10">
            <g
   transform="matrix(7,0,0,7,360.465,341.854)"
   id="g141">
                <path
   d="m 0.266,-0.532 v 0.235 H 0.04 v 0.06 H 0.266 V 0 H 0.33 v -0.237 h 0.226 v -0.06 H 0.33 v -0.235 z"
   style="fill-rule:nonzero"
   id="path140" />
            </g>
        </g><g
     transform="matrix(0.35192764,0,0,0.35190075,-111.02016,-67.103776)"
     id="g144"
     style="clip-rule:evenodd;display:inline;fill-rule:evenodd;stroke-linecap:round;stroke-linejoin:round;stroke-miterlimit:10"
     inkscape:label="g144">
            <g
   transform="matrix(7,0,0,7,317.295,363.493)"
   id="g143">
                <path
   d="m 0.266,-0.532 v 0.235 H 0.04 v 0.06 H 0.266 V 0 H 0.33 v -0.237 h 0.226 v -0.06 H 0.33 v -0.235 z"
   style="fill-rule:nonzero"
   id="path142" />
            </g>
        </g><path
     style="clip-rule:evenodd;display:inline;fill:none;fill-opacity:1;fill-rule:evenodd;stroke:#000000;stroke-width:0.178828;stroke-linecap:round;stroke-linejoin:round;stroke-miterlimit:10;stroke-dasharray:none;stroke-opacity:1;paint-order:stroke fill markers"
     d="m 18.152506,80.559457 2.51e-4,-1.653197 -1.735342,-5.3e-4"
     id="path183-9" /><path
     style="clip-rule:evenodd;display:inline;fill:none;fill-opacity:1;fill-rule:evenodd;stroke:#000000;stroke-width:0.178828;stroke-linecap:round;stroke-linejoin:round;stroke-miterlimit:10;stroke-dasharray:none;stroke-opacity:1;paint-order:stroke fill markers"
     d="m 18.098724,67.365 2.53e-4,-1.653198 -1.735345,-7.04e-4"
     id="path183-9-6" /><path
     style="clip-rule:evenodd;display:inline;fill:none;fill-opacity:1;fill-rule:evenodd;stroke:#000000;stroke-width:0.178828;stroke-linecap:round;stroke-linejoin:round;stroke-miterlimit:10;stroke-dasharray:none;stroke-opacity:1;paint-order:stroke fill markers"
     d="m 18.138328,93.409942 2.51e-4,-1.653197 -1.735342,-5.29e-4"
     id="path183-1" /><g
     transform="matrix(0,0.20357423,-0.22933118,0,6.3294011,4.6574088)"
     id="g162"
     inkscape:label="top screw hole"
     style="clip-rule:evenodd;display:inline;fill-rule:evenodd;stroke-linecap:round;stroke-linejoin:round;stroke-miterlimit:10">
            <path
   d="M -0.002,-0.16 C -0.001,-0.107 0,-0.053 0,0 c 0,4.327 -3.513,7.84 -7.84,7.84 -4.327,0 -7.84,-3.513 -7.84,-7.84 0,-0.053 10e-4,-0.107 0.002,-0.16 H -15.68 V -12 h 0.002 c -10e-4,-0.053 -0.002,-0.107 -0.002,-0.16 0,-4.327 3.513,-7.84 7.84,-7.84 4.327,0 7.84,3.513 7.84,7.84 0,0.053 -0.001,0.107 -0.002,0.16 H 0 v 11.84 z"
   style="fill:#000000;fill-opacity:1;stroke:none;stroke-width:1.62px"
   id="path161" />
        </g><g
     transform="matrix(0,0.20357388,-0.22933118,0,6.3294011,127.03441)"
     id="g163"
     inkscape:label="bottom screw hole"
     style="clip-rule:evenodd;display:inline;fill-rule:evenodd;stroke-linecap:round;stroke-linejoin:round;stroke-miterlimit:10">
            <path
   d="M -0.002,-0.16 C -0.001,-0.107 0,-0.053 0,0 c 0,4.327 -3.513,7.84 -7.84,7.84 -4.327,0 -7.84,-3.513 -7.84,-7.84 0,-0.053 10e-4,-0.107 0.002,-0.16 H -15.68 V -12 h 0.002 c -10e-4,-0.053 -0.002,-0.107 -0.002,-0.16 0,-4.327 3.513,-7.84 7.84,-7.84 4.327,0 7.84,3.513 7.84,7.84 0,0.053 -0.001,0.107 -0.002,0.16 H 0 v 11.84 z"
   style="fill:#000000;fill-opacity:1;stroke:none;stroke-width:1.62px"
   id="path162" />
        </g><path
     style="clip-rule:evenodd;display:inline;fill:none;fill-opacity:1;fill-rule:evenodd;stroke:#000000;stroke-width:0.178828;stroke-linecap:round;stroke-linejoin:round;stroke-miterlimit:10;stroke-dasharray:none;stroke-opacity:1;paint-order:stroke fill markers"
     d="m 18.158063,106.22841 2.51e-4,-1.65319 -1.735342,-5.3e-4"
     id="path183" /></g>
<g
   id="g1"
   inkscape:label="components"
   style="display:none"><ellipse
     style="clip-rule:evenodd;display:inline;fill:#ff00ff;fill-opacity:1;fill-rule:evenodd;stroke:none;stroke-width:0.394107;stroke-linecap:round;stroke-linejoin:round;stroke-miterlimit:10;stroke-opacity:1;paint-order:stroke fill markers"
     id="path179"
     cx="3.2472236"
     cy="11.655001"
     rx="1.4485431"
     ry="1.4677122"
     inkscape:label="level 7" /><ellipse
     style="clip-rule:evenodd;display:inline;fill:#ff00ff;fill-opacity:1;fill-rule:evenodd;stroke:none;stroke-width:0.394107;stroke-linecap:round;stroke-linejoin:round;stroke-miterlimit:10;stroke-opacity:1;paint-order:stroke fill markers"
     id="path179-6"
     cx="3.2472236"
     cy="16.659025"
     rx="1.4485431"
     ry="1.4677122"
     inkscape:label="level 6" /><ellipse
     style="clip-rule:evenodd;display:inline;fill:#ff00ff;fill-opacity:1;fill-rule:evenodd;stroke:none;stroke-width:0.394107;stroke-linecap:round;stroke-linejoin:round;stroke-miterlimit:10;stroke-opacity:1;paint-order:stroke fill markers"
     id="path179-6-5"
     cx="3.2472236"
     cy="21.663052"
     rx="1.4485431"
     ry="1.4677122"
     inkscape:label="level 5" /><ellipse
     style="clip-rule:evenodd;display:inline;fill:#ff00ff;fill-opacity:1;fill-rule:evenodd;stroke:none;stroke-width:0.394107;stroke-linecap:round;stroke-linejoin:round;stroke-miterlimit:10;stroke-opacity:1;paint-order:stroke fill markers"
     id="path179-6-5-5"
     cx="3.2472236"
     cy="26.645964"
     rx="1.4485431"
     ry="1.4677122"
     inkscape:label="level 4" /><ellipse
     style="clip-rule:evenodd;display:inline;fill:#ff00ff;fill-opacity:1;fill-rule:evenodd;stroke:none;stroke-width:0.394107;stroke-linecap:round;stroke-linejoin:round;stroke-miterlimit:10;stroke-opacity:1;paint-order:stroke fill markers"
     id="path179-6-5-5-2"
     cx="3.2472236"
     cy="31.628874"
     rx="1.4485431"
     ry="1.4677122"
     inkscape:label="level 3" /><ellipse
     style="clip-rule:evenodd;display:inline;fill:#ff00ff;fill-opacity:1;fill-rule:evenodd;stroke:none;stroke-width:0.394107;stroke-linecap:round;stroke-linejoin:round;stroke-miterlimit:10;stroke-opacity:1;paint-order:stroke fill markers"
     id="path179-6-5-5-2-1"
     cx="3.2472236"
     cy="36.654011"
     rx="1.4485431"
     ry="1.4677122"
     inkscape:label="level 2" /><ellipse
     style="clip-rule:evenodd;display:inline;fill:#ff00ff;fill-opacity:1;fill-rule:evenodd;stroke:none;stroke-width:0.394107;stroke-linecap:round;stroke-linejoin:round;stroke-miterlimit:10;stroke-opacity:1;paint-order:stroke fill markers"
     id="path179-6-5-5-2-7"
     cx="3.2472236"
     cy="41.636925"
     rx="1.4485431"
     ry="1.4677122"
     inkscape:label="level 1" /><ellipse
     style="clip-rule:evenodd;display:inline;fill:#ff00ff;fill-opacity:1;fill-rule:evenodd;stroke:none;stroke-width:0.394107;stroke-linecap:round;stroke-linejoin:round;stroke-miterlimit:10;stroke-opacity:1;paint-order:stroke fill markers"
     id="path179-6-5-5-2-9"
     cx="3.2472236"
     cy="46.619835"
     rx="1.4485431"
     ry="1.4677122"
     inkscape:label="level 0" /><ellipse
     style="clip-rule:evenodd;display:inline;fill:#ff00ff;fill-opacity:1;fill-rule:evenodd;stroke:none;stroke-width:0.396722;stroke-linecap:round;stroke-linejoin:round;stroke-miterlimit:10;stroke-opacity:1;paint-order:stroke fill markers"
     id="path179-6-5-5-2-9-6"
     cx="13.868392"
     cy="66.551552"
     rx="1.4678249"
     ry="1.4677122"
     inkscape:label="input indicator" /><ellipse
     style="clip-rule:evenodd;display:inline;fill:#ff00ff;fill-opacity:1;fill-rule:evenodd;stroke:none;stroke-width:0.394107;stroke-linecap:round;stroke-linejoin:round;stroke-miterlimit:10;stroke-opacity:1;paint-order:stroke fill markers"
     id="path179-6-5-5-2-9-61"
     cx="13.868392"
     cy="79.388885"
     rx="1.4485431"
     ry="1.4677122"
     inkscape:label="cv indicator" /><ellipse
     style="clip-rule:evenodd;display:inline;fill:#ff00ff;fill-opacity:1;fill-rule:evenodd;stroke:none;stroke-width:0.394107;stroke-linecap:round;stroke-linejoin:round;stroke-miterlimit:10;stroke-opacity:1;paint-order:stroke fill markers"
     id="path179-6-5-5-2-9-7"
     cx="13.868392"
     cy="92.542931"
     rx="1.4485431"
     ry="1.4677122"
     inkscape:label="inject indicator" /><ellipse
     style="clip-rule:evenodd;display:inline;fill:#ff00ff;fill-opacity:1;fill-rule:evenodd;stroke:none;stroke-width:0.394107;stroke-linecap:round;stroke-linejoin:round;stroke-miterlimit:10;stroke-opacity:1;paint-order:stroke fill markers"
     id="path179-6-5-5-2-9-2"
     cx="13.868392"
     cy="105.23246"
     rx="1.4485431"
     ry="1.4677122"
     inkscape:label="step indicator" /><ellipse
     style="clip-rule:evenodd;display:inline;fill:#ff00ff;fill-opacity:1;fill-rule:evenodd;stroke:none;stroke-width:0.394107;stroke-linecap:round;stroke-linejoin:round;stroke-miterlimit:10;stroke-opacity:1;paint-order:stroke fill markers"
     id="path179-6-5-5-2-9-23"
     cx="27.213482"
     cy="105.23246"
     rx="1.4485431"
     ry="1.4677122"
     inkscape:label="indicator 1" /><ellipse
     style="clip-rule:evenodd;display:inline;fill:#ff00ff;fill-opacity:1;fill-rule:evenodd;stroke:none;stroke-width:0.394107;stroke-linecap:round;stroke-linejoin:round;stroke-miterlimit:10;stroke-opacity:1;paint-order:stroke fill markers"
     id="path179-6-5-5-2-9-5"
     cx="27.213482"
     cy="92.542931"
     rx="1.4485431"
     ry="1.4677122"
     inkscape:label="indicator 2" /><ellipse
     style="clip-rule:evenodd;display:inline;fill:#ff00ff;fill-opacity:1;fill-rule:evenodd;stroke:none;stroke-width:0.394107;stroke-linecap:round;stroke-linejoin:round;stroke-miterlimit:10;stroke-opacity:1;paint-order:stroke fill markers"
     id="path179-6-5-5-2-9-22"
     cx="27.213482"
     cy="79.388885"
     rx="1.4485431"
     ry="1.4677122"
     inkscape:label="indicator 4" /><ellipse
     style="clip-rule:evenodd;display:inline;fill:#ff00ff;fill-opacity:1;fill-rule:evenodd;stroke:none;stroke-width:0.394107;stroke-linecap:round;stroke-linejoin:round;stroke-miterlimit:10;stroke-opacity:1;paint-order:stroke fill markers"
     id="path179-6-5-5-2-9-9"
     cx="27.213482"
     cy="66.551552"
     rx="1.4485431"
     ry="1.4677122"
     inkscape:label="indicator 8" /><ellipse
     style="clip-rule:evenodd;display:inline;fill:#ff00ff;fill-opacity:1;fill-rule:evenodd;stroke:none;stroke-width:0.394107;stroke-linecap:round;stroke-linejoin:round;stroke-miterlimit:10;stroke-opacity:1;paint-order:stroke fill markers"
     id="path179-6-5-5-2-9-3"
     cx="27.213482"
     cy="53.3764"
     rx="1.4485431"
     ry="1.4677122"
     inkscape:label="saw indicator" /><ellipse
     style="clip-rule:evenodd;display:inline;fill:#ff0000;fill-opacity:1;fill-rule:evenodd;stroke:none;stroke-width:0.349999;stroke-linecap:round;stroke-linejoin:round;stroke-miterlimit:10;stroke-opacity:1;paint-order:stroke fill markers"
     id="path180"
     cx="15.219793"
     cy="16.405521"
     rx="3.651113"
     ry="3.6673026"
     inkscape:label="gain" /><ellipse
     style="clip-rule:evenodd;display:inline;fill:#ff0000;fill-opacity:1;fill-rule:evenodd;stroke:none;stroke-width:0.349999;stroke-linecap:round;stroke-linejoin:round;stroke-miterlimit:10;stroke-opacity:1;paint-order:stroke fill markers"
     id="path180-6"
     cx="15.219793"
     cy="41.784584"
     rx="3.651113"
     ry="3.6673026"
     inkscape:label="cv" /><ellipse
     style="clip-rule:evenodd;display:inline;fill:#ff0000;fill-opacity:1;fill-rule:evenodd;stroke:none;stroke-width:0.331002;stroke-linecap:round;stroke-linejoin:round;stroke-miterlimit:10;stroke-opacity:1;paint-order:stroke fill markers"
     id="path181"
     cx="7.2169642"
     cy="58.612564"
     rx="2.612289"
     ry="2.5944338"
     inkscape:label="range" /><ellipse
     style="clip-rule:evenodd;display:inline;fill:#00ff00;fill-opacity:1;fill-rule:evenodd;stroke:none;stroke-width:0.204246;stroke-linecap:round;stroke-linejoin:round;stroke-miterlimit:10;stroke-dasharray:none;stroke-opacity:1;paint-order:stroke fill markers"
     id="path184"
     cx="7.1958485"
     cy="72.885712"
     rx="3.343564"
     ry="3.3433092"
     inkscape:label="input" /><ellipse
     style="clip-rule:evenodd;display:inline;fill:#00ff00;fill-opacity:1;fill-rule:evenodd;stroke:none;stroke-width:0.204246;stroke-linecap:round;stroke-linejoin:round;stroke-miterlimit:10;stroke-dasharray:none;stroke-opacity:1;paint-order:stroke fill markers"
     id="path184-0"
     cx="7.1958485"
     cy="85.89196"
     rx="3.343564"
     ry="3.3433092"
     inkscape:label="cv" /><ellipse
     style="clip-rule:evenodd;display:inline;fill:#00ff00;fill-opacity:1;fill-rule:evenodd;stroke:none;stroke-width:0.204246;stroke-linecap:round;stroke-linejoin:round;stroke-miterlimit:10;stroke-dasharray:none;stroke-opacity:1;paint-order:stroke fill markers"
     id="path184-3"
     cx="7.1958485"
     cy="98.729294"
     rx="3.343564"
     ry="3.3433092"
     inkscape:label="inject" /><ellipse
     style="clip-rule:evenodd;display:inline;fill:#0000ff;fill-opacity:1;fill-rule:evenodd;stroke:none;stroke-width:0.204246;stroke-linecap:round;stroke-linejoin:round;stroke-miterlimit:10;stroke-dasharray:none;stroke-opacity:1;paint-order:stroke fill markers"
     id="path184-06"
     cx="7.1958485"
     cy="111.73553"
     rx="3.343564"
     ry="3.3433092"
     inkscape:label="step out" /><ellipse
     style="clip-rule:evenodd;display:inline;fill:#0000ff;fill-opacity:1;fill-rule:evenodd;stroke:none;stroke-width:0.204246;stroke-linecap:round;stroke-linejoin:round;stroke-miterlimit:10;stroke-dasharray:none;stroke-opacity:1;paint-order:stroke fill markers"
     id="path184-06-4"
     cx="20.540936"
     cy="111.73553"
     rx="3.343564"
     ry="3.3433092"
     inkscape:label="out1" /><ellipse
     style="clip-rule:evenodd;display:inline;fill:#0000ff;fill-opacity:1;fill-rule:evenodd;stroke:none;stroke-width:0.204246;stroke-linecap:round;stroke-linejoin:round;stroke-miterlimit:10;stroke-dasharray:none;stroke-opacity:1;paint-order:stroke fill markers"
     id="path184-06-6"
     cx="20.538824"
     cy="98.809174"
     rx="3.343564"
     ry="3.3433092"
     inkscape:label="out2" /><ellipse
     style="clip-rule:evenodd;display:inline;fill:#0000ff;fill-opacity:1;fill-rule:evenodd;stroke:none;stroke-width:0.204246;stroke-linecap:round;stroke-linejoin:round;stroke-miterlimit:10;stroke-dasharray:none;stroke-opacity:1;paint-order:stroke fill markers"
     id="path184-06-69"
     cx="20.540936"
     cy="85.89196"
     rx="3.343564"
     ry="3.3433092"
     inkscape:label="out4" /><ellipse
     style="clip-rule:evenodd;display:inline;fill:#0000ff;fill-opacity:1;fill-rule:evenodd;stroke:none;stroke-width:0.204246;stroke-linecap:round;stroke-linejoin:round;stroke-miterlimit:10;stroke-dasharray:none;stroke-opacity:1;paint-order:stroke fill markers"
     id="path184-06-7"
     cx="20.540947"
     cy="72.885689"
     rx="3.343564"
     ry="3.3433092"
     inkscape:label="out8" /><ellipse
     style="clip-rule:evenodd;display:inline;fill:#0000ff;fill-opacity:1;fill-rule:evenodd;stroke:none;stroke-width:0.204246;stroke-linecap:round;stroke-linejoin:round;stroke-miterlimit:10;stroke-dasharray:none;stroke-opacity:1;paint-order:stroke fill markers"
     id="path184-06-5"
     cx="20.540936"
     cy="60.048386"
     rx="3.343564"
     ry="3.3433092"
     inkscape:label="saw" /></g></svg>
