<?xml version="1.0" encoding="UTF-8" standalone="no"?>
<!DOCTYPE svg PUBLIC "-//W3C//DTD SVG 1.1//EN" "http://www.w3.org/Graphics/SVG/1.1/DTD/svg11.dtd">
<svg width="100%" height="100%" viewBox="0 0 4400 3400" version="1.1" xmlns="http://www.w3.org/2000/svg" xmlns:xlink="http://www.w3.org/1999/xlink" xml:space="preserve" xmlns:serif="http://www.serif.com/" style="fill-rule:evenodd;clip-rule:evenodd;stroke-linecap:round;stroke-linejoin:round;stroke-miterlimit:10;">
    <g id="board-outline" serif:id="board outline" transform="matrix(5.55556,0,0,5.55556,0,0)">
        <g transform="matrix(0,0.75,-0.75,0,672.18,-37.5)">
            <path d="M230,423.12L716.24,423.12" style="fill:none;fill-rule:nonzero;stroke:rgb(100,100,100);stroke-width:0.48px;"/>
        </g>
        <g transform="matrix(0.75,0,0,-0.75,0,999.36)">
            <path d="M473.12,666.24L626.88,666.24" style="fill:none;fill-rule:nonzero;stroke:rgb(100,100,100);stroke-width:0.48px;"/>
        </g>
        <g transform="matrix(0,-0.75,0.75,0,152.82,787.5)">
            <path d="M383.76,423.12L870,423.12" style="fill:none;fill-rule:nonzero;stroke:rgb(100,100,100);stroke-width:0.48px;"/>
        </g>
        <g transform="matrix(-0.75,0,0,-0.75,825,270)">
            <path d="M473.12,180L626.88,180" style="fill:none;fill-rule:nonzero;stroke:rgb(100,100,100);stroke-width:0.48px;"/>
        </g>
    </g>
    <g id="text-and-graphics" serif:id="text and graphics" transform="matrix(5.55556,0,0,5.55556,0,0)">
        <g transform="matrix(1,0,0,1,50.9995,142.44)">
            <rect x="380.713" y="149.656" width="26.375" height="26.368" style="stroke:black;stroke-width:1px;"/>
        </g>
        <g transform="matrix(1,0,0,1,50.9995,179.46)">
            <rect x="380.713" y="149.656" width="26.375" height="26.368" style="stroke:black;stroke-width:1px;"/>
        </g>
        <g transform="matrix(1,0,0,1,50.9995,216.3)">
            <rect x="380.713" y="149.656" width="26.375" height="26.368" style="stroke:black;stroke-width:1px;"/>
        </g>
        <g transform="matrix(1,0,0,1,50.9995,290.22)">
            <rect x="380.713" y="149.656" width="26.375" height="26.368" style="stroke:black;stroke-width:1px;"/>
        </g>
        <g transform="matrix(1,0,0,1,50.9995,253.26)">
            <rect x="380.713" y="149.656" width="26.375" height="26.368" style="stroke:black;stroke-width:1px;"/>
        </g>
        <g transform="matrix(1,0,0,1,-376.682,-261.304)">
            <g transform="matrix(24,0,0,24,769.558,414.486)">
                <path d="M0.128,-0C0.231,-0 0.277,-0.059 0.277,-0.176C0.277,-0.235 0.265,-0.279 0.242,-0.308C0.231,-0.321 0.219,-0.33 0.205,-0.337C0.22,-0.345 0.231,-0.354 0.242,-0.367C0.265,-0.396 0.277,-0.44 0.277,-0.498C0.277,-0.615 0.231,-0.674 0.128,-0.674L0.017,-0.674L0.017,-0L0.128,-0ZM0.128,-0.643C0.212,-0.643 0.245,-0.602 0.245,-0.498C0.245,-0.395 0.211,-0.353 0.128,-0.353L0.049,-0.353L0.049,-0.643L0.128,-0.643ZM0.128,-0.322C0.211,-0.322 0.245,-0.28 0.245,-0.176C0.245,-0.072 0.212,-0.031 0.128,-0.031L0.049,-0.031L0.049,-0.322L0.128,-0.322Z" style="fill-rule:nonzero;"/>
            </g>
            <g transform="matrix(24,0,0,24,778.822,414.486)">
                <path d="M0.005,-0.643L0.136,-0.643L0.136,-0.001L0.167,-0.001L0.167,-0.643L0.299,-0.643L0.299,-0.675L0.005,-0.675L0.005,-0.643Z" style="fill-rule:nonzero;"/>
            </g>
            <g transform="matrix(24,0,0,24,788.446,414.486)">
                <path d="M0.179,-0L0.295,-0.536L0.295,-0L0.327,-0L0.327,-0.674L0.293,-0.674L0.167,-0.103L0.04,-0.674L0.007,-0.674L0.007,-0L0.038,-0L0.038,-0.536L0.155,-0L0.179,-0Z" style="fill-rule:nonzero;"/>
            </g>
            <g transform="matrix(24,0,0,24,799.078,414.486)">
                <path d="M0.174,-0.3L0.316,-0L0.351,-0L0.191,-0.337L0.349,-0.674L0.314,-0.674L0.174,-0.374L0.031,-0.674L-0.004,-0.674L0.156,-0.337L-0.004,-0L0.031,-0L0.174,-0.3Z" style="fill-rule:nonzero;"/>
            </g>
        </g>
        <g transform="matrix(1,0,0,1,-636.307,-296.124)">
            <g transform="matrix(7,0,0,7,1001.61,659.444)">
                <rect x="0.076" y="-0.674" width="0.087" height="0.674" style="fill-rule:nonzero;"/>
            </g>
            <g transform="matrix(7,0,0,7,1003.28,659.444)">
                <path d="M0.158,-0L0.158,-0.288C0.158,-0.4 0.156,-0.481 0.151,-0.566L0.154,-0.567C0.188,-0.494 0.233,-0.417 0.28,-0.342L0.494,-0L0.582,-0L0.582,-0.674L0.5,-0.674L0.5,-0.392C0.5,-0.287 0.502,-0.205 0.51,-0.115L0.508,-0.114C0.476,-0.183 0.437,-0.254 0.387,-0.333L0.171,-0.674L0.076,-0.674L0.076,-0L0.158,-0Z" style="fill-rule:nonzero;"/>
            </g>
            <g transform="matrix(7,0,0,7,1009.37,659.444)">
                <path d="M0.46,-0L0.46,-0.073L0.168,-0.073L0.168,-0.075L0.22,-0.123C0.357,-0.255 0.444,-0.352 0.444,-0.472C0.444,-0.565 0.385,-0.661 0.245,-0.661C0.17,-0.661 0.106,-0.633 0.061,-0.595L0.089,-0.533C0.119,-0.558 0.168,-0.588 0.227,-0.588C0.324,-0.588 0.356,-0.527 0.356,-0.461C0.355,-0.363 0.28,-0.279 0.114,-0.121L0.045,-0.054L0.045,-0L0.46,-0Z" style="fill-rule:nonzero;"/>
            </g>
        </g>
        <g transform="matrix(1,0,0,1,-599.269,-332.575)">
            <g transform="matrix(7,0,0,7,1001.53,659.444)">
                <rect x="0.076" y="-0.674" width="0.087" height="0.674" style="fill-rule:nonzero;"/>
            </g>
            <g transform="matrix(7,0,0,7,1003.21,659.444)">
                <path d="M0.158,-0L0.158,-0.288C0.158,-0.4 0.156,-0.481 0.151,-0.566L0.154,-0.567C0.188,-0.494 0.233,-0.417 0.28,-0.342L0.494,-0L0.582,-0L0.582,-0.674L0.5,-0.674L0.5,-0.392C0.5,-0.287 0.502,-0.205 0.51,-0.115L0.508,-0.114C0.476,-0.183 0.437,-0.254 0.387,-0.333L0.171,-0.674L0.076,-0.674L0.076,-0L0.158,-0Z" style="fill-rule:nonzero;"/>
            </g>
            <g transform="matrix(7,0,0,7,1009.3,659.444)">
                <path d="M0.433,-0.65L0.122,-0.65L0.08,-0.338C0.104,-0.341 0.133,-0.345 0.17,-0.345C0.3,-0.345 0.356,-0.285 0.357,-0.201C0.357,-0.114 0.286,-0.06 0.203,-0.06C0.144,-0.06 0.091,-0.08 0.064,-0.096L0.042,-0.029C0.073,-0.009 0.133,0.011 0.204,0.011C0.345,0.011 0.446,-0.084 0.446,-0.211C0.446,-0.293 0.404,-0.349 0.353,-0.378C0.313,-0.402 0.263,-0.413 0.213,-0.413C0.189,-0.413 0.175,-0.411 0.16,-0.409L0.185,-0.576L0.433,-0.576L0.433,-0.65Z" style="fill-rule:nonzero;"/>
            </g>
        </g>
        <g transform="matrix(1,0,0,1,-636.065,-332.37)">
            <g transform="matrix(7,0,0,7,1001.37,659.444)">
                <rect x="0.076" y="-0.674" width="0.087" height="0.674" style="fill-rule:nonzero;"/>
            </g>
            <g transform="matrix(7,0,0,7,1003.04,659.444)">
                <path d="M0.158,-0L0.158,-0.288C0.158,-0.4 0.156,-0.481 0.151,-0.566L0.154,-0.567C0.188,-0.494 0.233,-0.417 0.28,-0.342L0.494,-0L0.582,-0L0.582,-0.674L0.5,-0.674L0.5,-0.392C0.5,-0.287 0.502,-0.205 0.51,-0.115L0.508,-0.114C0.476,-0.183 0.437,-0.254 0.387,-0.333L0.171,-0.674L0.076,-0.674L0.076,-0L0.158,-0Z" style="fill-rule:nonzero;"/>
            </g>
            <g transform="matrix(7,0,0,7,1009.13,659.444)">
                <path d="M0.236,-0L0.321,-0L0.321,-0.65L0.246,-0.65L0.104,-0.574L0.121,-0.507L0.234,-0.568L0.236,-0.568L0.236,-0Z" style="fill-rule:nonzero;"/>
            </g>
        </g>
        <g transform="matrix(1,0,0,1,-599.352,-295.796)">
            <g transform="matrix(7,0,0,7,1001.61,659.444)">
                <rect x="0.076" y="-0.674" width="0.087" height="0.674" style="fill-rule:nonzero;"/>
            </g>
            <g transform="matrix(7,0,0,7,1003.29,659.444)">
                <path d="M0.158,-0L0.158,-0.288C0.158,-0.4 0.156,-0.481 0.151,-0.566L0.154,-0.567C0.188,-0.494 0.233,-0.417 0.28,-0.342L0.494,-0L0.582,-0L0.582,-0.674L0.5,-0.674L0.5,-0.392C0.5,-0.287 0.502,-0.205 0.51,-0.115L0.508,-0.114C0.476,-0.183 0.437,-0.254 0.387,-0.333L0.171,-0.674L0.076,-0.674L0.076,-0L0.158,-0Z" style="fill-rule:nonzero;"/>
            </g>
            <g transform="matrix(7,0,0,7,1009.38,659.444)">
                <path d="M0.416,-0.66C0.4,-0.66 0.378,-0.659 0.352,-0.655C0.27,-0.645 0.198,-0.612 0.144,-0.559C0.08,-0.495 0.034,-0.394 0.034,-0.266C0.034,-0.097 0.125,0.011 0.264,0.011C0.399,0.011 0.48,-0.099 0.48,-0.218C0.48,-0.345 0.399,-0.428 0.284,-0.428C0.212,-0.428 0.158,-0.394 0.127,-0.353L0.124,-0.353C0.139,-0.46 0.212,-0.561 0.35,-0.584C0.375,-0.588 0.398,-0.589 0.416,-0.588L0.416,-0.66ZM0.264,-0.057C0.172,-0.057 0.123,-0.136 0.121,-0.243C0.121,-0.259 0.125,-0.272 0.131,-0.282C0.155,-0.329 0.204,-0.362 0.257,-0.362C0.338,-0.362 0.391,-0.306 0.391,-0.213C0.391,-0.12 0.34,-0.057 0.265,-0.057L0.264,-0.057Z" style="fill-rule:nonzero;"/>
            </g>
        </g>
        <g transform="matrix(1,0,0,1,-598.531,-259.879)">
            <g transform="matrix(7,0,0,7,1000.79,659.444)">
                <rect x="0.076" y="-0.674" width="0.087" height="0.674" style="fill-rule:nonzero;"/>
            </g>
            <g transform="matrix(7,0,0,7,1002.47,659.444)">
                <path d="M0.158,-0L0.158,-0.288C0.158,-0.4 0.156,-0.481 0.151,-0.566L0.154,-0.567C0.188,-0.494 0.233,-0.417 0.28,-0.342L0.494,-0L0.582,-0L0.582,-0.674L0.5,-0.674L0.5,-0.392C0.5,-0.287 0.502,-0.205 0.51,-0.115L0.508,-0.114C0.476,-0.183 0.437,-0.254 0.387,-0.333L0.171,-0.674L0.076,-0.674L0.076,-0L0.158,-0Z" style="fill-rule:nonzero;"/>
            </g>
            <g transform="matrix(7,0,0,7,1008.56,659.444)">
                <path d="M0.057,-0.65L0.057,-0.577L0.375,-0.577L0.375,-0.575L0.093,-0L0.184,-0L0.467,-0.592L0.467,-0.65L0.057,-0.65Z" style="fill-rule:nonzero;"/>
            </g>
        </g>
        <g transform="matrix(1,0,0,1,-599.023,-222.718)">
            <g transform="matrix(7,0,0,7,1001.29,659.444)">
                <rect x="0.076" y="-0.674" width="0.087" height="0.674" style="fill-rule:nonzero;"/>
            </g>
            <g transform="matrix(7,0,0,7,1002.96,659.444)">
                <path d="M0.158,-0L0.158,-0.288C0.158,-0.4 0.156,-0.481 0.151,-0.566L0.154,-0.567C0.188,-0.494 0.233,-0.417 0.28,-0.342L0.494,-0L0.582,-0L0.582,-0.674L0.5,-0.674L0.5,-0.392C0.5,-0.287 0.502,-0.205 0.51,-0.115L0.508,-0.114C0.476,-0.183 0.437,-0.254 0.387,-0.333L0.171,-0.674L0.076,-0.674L0.076,-0L0.158,-0Z" style="fill-rule:nonzero;"/>
            </g>
            <g transform="matrix(7,0,0,7,1009.05,659.444)">
                <path d="M0.166,-0.339C0.086,-0.305 0.037,-0.247 0.037,-0.165C0.037,-0.07 0.119,0.011 0.255,0.011C0.379,0.011 0.476,-0.065 0.476,-0.178C0.476,-0.257 0.426,-0.314 0.345,-0.346L0.345,-0.349C0.425,-0.387 0.452,-0.446 0.452,-0.501C0.452,-0.582 0.389,-0.661 0.263,-0.661C0.149,-0.661 0.062,-0.591 0.062,-0.488C0.062,-0.432 0.093,-0.376 0.165,-0.342L0.166,-0.339ZM0.257,-0.053C0.174,-0.053 0.124,-0.111 0.127,-0.177C0.127,-0.239 0.168,-0.289 0.244,-0.311C0.332,-0.286 0.387,-0.248 0.387,-0.169C0.387,-0.103 0.336,-0.053 0.257,-0.053ZM0.258,-0.598C0.337,-0.598 0.368,-0.544 0.368,-0.492C0.368,-0.433 0.325,-0.393 0.269,-0.374C0.194,-0.394 0.145,-0.429 0.145,-0.494C0.145,-0.55 0.185,-0.598 0.258,-0.598Z" style="fill-rule:nonzero;"/>
            </g>
        </g>
        <g transform="matrix(1,0,0,1,-570.348,-223.211)">
            <g transform="matrix(7,0,0,7,1006.67,659.789)">
                <path d="M0.4,-0L0.4,-0.177L0.491,-0.177L0.491,-0.246L0.4,-0.246L0.4,-0.65L0.305,-0.65L0.015,-0.235L0.015,-0.177L0.317,-0.177L0.317,-0L0.4,-0ZM0.104,-0.246L0.104,-0.248L0.263,-0.469C0.281,-0.499 0.297,-0.527 0.317,-0.565L0.32,-0.565C0.318,-0.531 0.317,-0.497 0.317,-0.463L0.317,-0.246L0.104,-0.246Z" style="fill-rule:nonzero;"/>
            </g>
            <g transform="matrix(7,0,0,7,1011.75,659.789)">
                <path d="M0.92,-0.398L0.661,-0.203L0.769,0.112L0.495,-0.092L0.232,0.103L0.332,-0.209L0.08,-0.398L0.398,-0.398L0.497,-0.694L0.599,-0.398L0.92,-0.398Z" style="fill-rule:nonzero;"/>
            </g>
            <g transform="matrix(7,0,0,7,1020.23,659.789)">
                <path d="M0.166,-0.339C0.086,-0.305 0.037,-0.247 0.037,-0.165C0.037,-0.07 0.119,0.011 0.255,0.011C0.379,0.011 0.476,-0.065 0.476,-0.178C0.476,-0.257 0.426,-0.314 0.345,-0.346L0.345,-0.349C0.425,-0.387 0.452,-0.446 0.452,-0.501C0.452,-0.582 0.389,-0.661 0.263,-0.661C0.149,-0.661 0.062,-0.591 0.062,-0.488C0.062,-0.432 0.093,-0.376 0.165,-0.342L0.166,-0.339ZM0.257,-0.053C0.174,-0.053 0.124,-0.111 0.127,-0.177C0.127,-0.239 0.168,-0.289 0.244,-0.311C0.332,-0.286 0.387,-0.248 0.387,-0.169C0.387,-0.103 0.336,-0.053 0.257,-0.053ZM0.258,-0.598C0.337,-0.598 0.368,-0.544 0.368,-0.492C0.368,-0.433 0.325,-0.393 0.269,-0.374C0.194,-0.394 0.145,-0.429 0.145,-0.494C0.145,-0.55 0.185,-0.598 0.258,-0.598Z" style="fill-rule:nonzero;"/>
            </g>
        </g>
        <g transform="matrix(1,0,0,1,-566.916,-260.268)">
            <g transform="matrix(7,0,0,7,1003.24,659.789)">
                <path d="M0.042,-0.033C0.074,-0.012 0.138,0.011 0.211,0.011C0.367,0.011 0.448,-0.08 0.448,-0.184C0.448,-0.275 0.383,-0.335 0.303,-0.351L0.303,-0.353C0.383,-0.382 0.423,-0.439 0.423,-0.506C0.423,-0.585 0.365,-0.661 0.237,-0.661C0.167,-0.661 0.101,-0.636 0.067,-0.611L0.09,-0.547C0.118,-0.567 0.168,-0.59 0.22,-0.59C0.301,-0.59 0.334,-0.544 0.334,-0.492C0.334,-0.415 0.253,-0.382 0.189,-0.382L0.14,-0.382L0.14,-0.316L0.189,-0.316C0.274,-0.316 0.356,-0.277 0.357,-0.186C0.358,-0.132 0.323,-0.06 0.21,-0.06C0.149,-0.06 0.091,-0.085 0.066,-0.101L0.042,-0.033Z" style="fill-rule:nonzero;"/>
            </g>
            <g transform="matrix(7,0,0,7,1008.32,659.789)">
                <path d="M0.92,-0.398L0.661,-0.203L0.769,0.112L0.495,-0.092L0.232,0.103L0.332,-0.209L0.08,-0.398L0.398,-0.398L0.497,-0.694L0.599,-0.398L0.92,-0.398Z" style="fill-rule:nonzero;"/>
            </g>
            <g transform="matrix(7,0,0,7,1016.8,659.789)">
                <path d="M0.057,-0.65L0.057,-0.577L0.375,-0.577L0.375,-0.575L0.093,-0L0.184,-0L0.467,-0.592L0.467,-0.65L0.057,-0.65Z" style="fill-rule:nonzero;"/>
            </g>
        </g>
        <g transform="matrix(1,0,0,1,-567.084,-296.535)">
            <g transform="matrix(7,0,0,7,1004.15,659.789)">
                <path d="M0.46,-0L0.46,-0.073L0.168,-0.073L0.168,-0.075L0.22,-0.123C0.357,-0.255 0.444,-0.352 0.444,-0.472C0.444,-0.565 0.385,-0.661 0.245,-0.661C0.17,-0.661 0.106,-0.633 0.061,-0.595L0.089,-0.533C0.119,-0.558 0.168,-0.588 0.227,-0.588C0.324,-0.588 0.356,-0.527 0.356,-0.461C0.355,-0.363 0.28,-0.279 0.114,-0.121L0.045,-0.054L0.045,-0L0.46,-0Z" style="fill-rule:nonzero;"/>
            </g>
            <g transform="matrix(7,0,0,7,1009.23,659.789)">
                <path d="M0.92,-0.398L0.661,-0.203L0.769,0.112L0.495,-0.092L0.232,0.103L0.332,-0.209L0.08,-0.398L0.398,-0.398L0.497,-0.694L0.599,-0.398L0.92,-0.398Z" style="fill-rule:nonzero;"/>
            </g>
            <g transform="matrix(7,0,0,7,1017.71,659.789)">
                <path d="M0.416,-0.66C0.4,-0.66 0.378,-0.659 0.352,-0.655C0.27,-0.645 0.198,-0.612 0.144,-0.559C0.08,-0.495 0.034,-0.394 0.034,-0.266C0.034,-0.097 0.125,0.011 0.264,0.011C0.399,0.011 0.48,-0.099 0.48,-0.218C0.48,-0.345 0.399,-0.428 0.284,-0.428C0.212,-0.428 0.158,-0.394 0.127,-0.353L0.124,-0.353C0.139,-0.46 0.212,-0.561 0.35,-0.584C0.375,-0.588 0.398,-0.589 0.416,-0.588L0.416,-0.66ZM0.264,-0.057C0.172,-0.057 0.123,-0.136 0.121,-0.243C0.121,-0.259 0.125,-0.272 0.131,-0.282C0.155,-0.329 0.204,-0.362 0.257,-0.362C0.338,-0.362 0.391,-0.306 0.391,-0.213C0.391,-0.12 0.34,-0.057 0.265,-0.057L0.264,-0.057Z" style="fill-rule:nonzero;"/>
            </g>
        </g>
        <g transform="matrix(1,0,0,1,-567.499,-333.808)">
            <g transform="matrix(7,0,0,7,1003.82,659.789)">
                <path d="M0.236,-0L0.321,-0L0.321,-0.65L0.246,-0.65L0.104,-0.574L0.121,-0.507L0.234,-0.568L0.236,-0.568L0.236,-0Z" style="fill-rule:nonzero;"/>
            </g>
            <g transform="matrix(7,0,0,7,1008.9,659.789)">
                <path d="M0.92,-0.398L0.661,-0.203L0.769,0.112L0.495,-0.092L0.232,0.103L0.332,-0.209L0.08,-0.398L0.398,-0.398L0.497,-0.694L0.599,-0.398L0.92,-0.398Z" style="fill-rule:nonzero;"/>
            </g>
            <g transform="matrix(7,0,0,7,1017.38,659.789)">
                <path d="M0.433,-0.65L0.122,-0.65L0.08,-0.338C0.104,-0.341 0.133,-0.345 0.17,-0.345C0.3,-0.345 0.356,-0.285 0.357,-0.201C0.357,-0.114 0.286,-0.06 0.203,-0.06C0.144,-0.06 0.091,-0.08 0.064,-0.096L0.042,-0.029C0.073,-0.009 0.133,0.011 0.204,0.011C0.345,0.011 0.446,-0.084 0.446,-0.211C0.446,-0.293 0.404,-0.349 0.353,-0.378C0.313,-0.402 0.263,-0.413 0.213,-0.413C0.189,-0.413 0.175,-0.411 0.16,-0.409L0.185,-0.576L0.433,-0.576L0.433,-0.65Z" style="fill-rule:nonzero;"/>
            </g>
        </g>
        <g transform="matrix(1,0,0,1,-635.794,-259.415)">
            <g transform="matrix(7,0,0,7,1001.1,659.444)">
                <rect x="0.076" y="-0.674" width="0.087" height="0.674" style="fill-rule:nonzero;"/>
            </g>
            <g transform="matrix(7,0,0,7,1002.77,659.444)">
                <path d="M0.158,-0L0.158,-0.288C0.158,-0.4 0.156,-0.481 0.151,-0.566L0.154,-0.567C0.188,-0.494 0.233,-0.417 0.28,-0.342L0.494,-0L0.582,-0L0.582,-0.674L0.5,-0.674L0.5,-0.392C0.5,-0.287 0.502,-0.205 0.51,-0.115L0.508,-0.114C0.476,-0.183 0.437,-0.254 0.387,-0.333L0.171,-0.674L0.076,-0.674L0.076,-0L0.158,-0Z" style="fill-rule:nonzero;"/>
            </g>
            <g transform="matrix(7,0,0,7,1008.86,659.444)">
                <path d="M0.042,-0.033C0.074,-0.012 0.138,0.011 0.211,0.011C0.367,0.011 0.448,-0.08 0.448,-0.184C0.448,-0.275 0.383,-0.335 0.303,-0.351L0.303,-0.353C0.383,-0.382 0.423,-0.439 0.423,-0.506C0.423,-0.585 0.365,-0.661 0.237,-0.661C0.167,-0.661 0.101,-0.636 0.067,-0.611L0.09,-0.547C0.118,-0.567 0.168,-0.59 0.22,-0.59C0.301,-0.59 0.334,-0.544 0.334,-0.492C0.334,-0.415 0.253,-0.382 0.189,-0.382L0.14,-0.382L0.14,-0.316L0.189,-0.316C0.274,-0.316 0.356,-0.277 0.357,-0.186C0.358,-0.132 0.323,-0.06 0.21,-0.06C0.149,-0.06 0.091,-0.085 0.066,-0.101L0.042,-0.033Z" style="fill-rule:nonzero;"/>
            </g>
        </g>
        <g transform="matrix(1,0,0,1,-636.13,-222.432)">
            <g transform="matrix(7,0,0,7,1001.43,659.444)">
                <rect x="0.076" y="-0.674" width="0.087" height="0.674" style="fill-rule:nonzero;"/>
            </g>
            <g transform="matrix(7,0,0,7,1003.11,659.444)">
                <path d="M0.158,-0L0.158,-0.288C0.158,-0.4 0.156,-0.481 0.151,-0.566L0.154,-0.567C0.188,-0.494 0.233,-0.417 0.28,-0.342L0.494,-0L0.582,-0L0.582,-0.674L0.5,-0.674L0.5,-0.392C0.5,-0.287 0.502,-0.205 0.51,-0.115L0.508,-0.114C0.476,-0.183 0.437,-0.254 0.387,-0.333L0.171,-0.674L0.076,-0.674L0.076,-0L0.158,-0Z" style="fill-rule:nonzero;"/>
            </g>
            <g transform="matrix(7,0,0,7,1009.2,659.444)">
                <path d="M0.4,-0L0.4,-0.177L0.491,-0.177L0.491,-0.246L0.4,-0.246L0.4,-0.65L0.305,-0.65L0.015,-0.235L0.015,-0.177L0.317,-0.177L0.317,-0L0.4,-0ZM0.104,-0.246L0.104,-0.248L0.263,-0.469C0.281,-0.499 0.297,-0.527 0.317,-0.565L0.32,-0.565C0.318,-0.531 0.317,-0.497 0.317,-0.463L0.317,-0.246L0.104,-0.246Z" style="fill-rule:nonzero;"/>
            </g>
        </g>
        <g transform="matrix(1,0,0,1,-249.259,-170.69)">
            <g transform="matrix(7,0,0,7,618.444,466.017)">
                <path d="M0.4,-0L0.4,-0.177L0.491,-0.177L0.491,-0.246L0.4,-0.246L0.4,-0.65L0.305,-0.65L0.015,-0.235L0.015,-0.177L0.317,-0.177L0.317,-0L0.4,-0ZM0.104,-0.246L0.104,-0.248L0.263,-0.469C0.281,-0.499 0.297,-0.527 0.317,-0.565L0.32,-0.565C0.318,-0.531 0.317,-0.497 0.317,-0.463L0.317,-0.246L0.104,-0.246Z" style="fill-rule:nonzero;"/>
            </g>
        </g>
        <g transform="matrix(1,0,0,1,-249.259,-213.992)">
            <g transform="matrix(7,0,0,7,618.444,466.017)">
                <path d="M0.042,-0.033C0.074,-0.012 0.138,0.011 0.211,0.011C0.367,0.011 0.448,-0.08 0.448,-0.184C0.448,-0.275 0.383,-0.335 0.303,-0.351L0.303,-0.353C0.383,-0.382 0.423,-0.439 0.423,-0.506C0.423,-0.585 0.365,-0.661 0.237,-0.661C0.167,-0.661 0.101,-0.636 0.067,-0.611L0.09,-0.547C0.118,-0.567 0.168,-0.59 0.22,-0.59C0.301,-0.59 0.334,-0.544 0.334,-0.492C0.334,-0.415 0.253,-0.382 0.189,-0.382L0.14,-0.382L0.14,-0.316L0.189,-0.316C0.274,-0.316 0.356,-0.277 0.357,-0.186C0.358,-0.132 0.323,-0.06 0.21,-0.06C0.149,-0.06 0.091,-0.085 0.066,-0.101L0.042,-0.033Z" style="fill-rule:nonzero;"/>
            </g>
        </g>
        <g transform="matrix(1,0,0,1,-249.259,-256.828)">
            <g transform="matrix(7,0,0,7,618.444,466.017)">
                <path d="M0.46,-0L0.46,-0.073L0.168,-0.073L0.168,-0.075L0.22,-0.123C0.357,-0.255 0.444,-0.352 0.444,-0.472C0.444,-0.565 0.385,-0.661 0.245,-0.661C0.17,-0.661 0.106,-0.633 0.061,-0.595L0.089,-0.533C0.119,-0.558 0.168,-0.588 0.227,-0.588C0.324,-0.588 0.356,-0.527 0.356,-0.461C0.355,-0.363 0.28,-0.279 0.114,-0.121L0.045,-0.054L0.045,-0L0.46,-0Z" style="fill-rule:nonzero;"/>
            </g>
        </g>
        <g transform="matrix(1,0,0,1,-249.259,-300.642)">
            <g transform="matrix(7,0,0,7,618.444,466.017)">
                <path d="M0.236,-0L0.321,-0L0.321,-0.65L0.246,-0.65L0.104,-0.574L0.121,-0.507L0.234,-0.568L0.236,-0.568L0.236,-0Z" style="fill-rule:nonzero;"/>
            </g>
        </g>
        <g transform="matrix(1,0,0,1,-212.299,-170.69)">
            <g transform="matrix(7,0,0,7,618.444,466.017)">
                <path d="M0.166,-0.339C0.086,-0.305 0.037,-0.247 0.037,-0.165C0.037,-0.07 0.119,0.011 0.255,0.011C0.379,0.011 0.476,-0.065 0.476,-0.178C0.476,-0.257 0.426,-0.314 0.345,-0.346L0.345,-0.349C0.425,-0.387 0.452,-0.446 0.452,-0.501C0.452,-0.582 0.389,-0.661 0.263,-0.661C0.149,-0.661 0.062,-0.591 0.062,-0.488C0.062,-0.432 0.093,-0.376 0.165,-0.342L0.166,-0.339ZM0.257,-0.053C0.174,-0.053 0.124,-0.111 0.127,-0.177C0.127,-0.239 0.168,-0.289 0.244,-0.311C0.332,-0.286 0.387,-0.248 0.387,-0.169C0.387,-0.103 0.336,-0.053 0.257,-0.053ZM0.258,-0.598C0.337,-0.598 0.368,-0.544 0.368,-0.492C0.368,-0.433 0.325,-0.393 0.269,-0.374C0.194,-0.394 0.145,-0.429 0.145,-0.494C0.145,-0.55 0.185,-0.598 0.258,-0.598Z" style="fill-rule:nonzero;"/>
            </g>
        </g>
        <g transform="matrix(1,0,0,1,-212.299,-213.992)">
            <g transform="matrix(7,0,0,7,618.444,466.017)">
                <path d="M0.057,-0.65L0.057,-0.577L0.375,-0.577L0.375,-0.575L0.093,-0L0.184,-0L0.467,-0.592L0.467,-0.65L0.057,-0.65Z" style="fill-rule:nonzero;"/>
            </g>
        </g>
        <g transform="matrix(1,0,0,1,-212.299,-256.828)">
            <g transform="matrix(7,0,0,7,618.444,466.017)">
                <path d="M0.416,-0.66C0.4,-0.66 0.378,-0.659 0.352,-0.655C0.27,-0.645 0.198,-0.612 0.144,-0.559C0.08,-0.495 0.034,-0.394 0.034,-0.266C0.034,-0.097 0.125,0.011 0.264,0.011C0.399,0.011 0.48,-0.099 0.48,-0.218C0.48,-0.345 0.399,-0.428 0.284,-0.428C0.212,-0.428 0.158,-0.394 0.127,-0.353L0.124,-0.353C0.139,-0.46 0.212,-0.561 0.35,-0.584C0.375,-0.588 0.398,-0.589 0.416,-0.588L0.416,-0.66ZM0.264,-0.057C0.172,-0.057 0.123,-0.136 0.121,-0.243C0.121,-0.259 0.125,-0.272 0.131,-0.282C0.155,-0.329 0.204,-0.362 0.257,-0.362C0.338,-0.362 0.391,-0.306 0.391,-0.213C0.391,-0.12 0.34,-0.057 0.265,-0.057L0.264,-0.057Z" style="fill-rule:nonzero;"/>
            </g>
        </g>
        <g transform="matrix(1,0,0,1,-212.299,-300.642)">
            <g transform="matrix(7,0,0,7,618.444,466.017)">
                <path d="M0.433,-0.65L0.122,-0.65L0.08,-0.338C0.104,-0.341 0.133,-0.345 0.17,-0.345C0.3,-0.345 0.356,-0.285 0.357,-0.201C0.357,-0.114 0.286,-0.06 0.203,-0.06C0.144,-0.06 0.091,-0.08 0.064,-0.096L0.042,-0.029C0.073,-0.009 0.133,0.011 0.204,0.011C0.345,0.011 0.446,-0.084 0.446,-0.211C0.446,-0.293 0.404,-0.349 0.353,-0.378C0.313,-0.402 0.263,-0.413 0.213,-0.413C0.189,-0.413 0.175,-0.411 0.16,-0.409L0.185,-0.576L0.433,-0.576L0.433,-0.65Z" style="fill-rule:nonzero;"/>
            </g>
        </g>
        <g transform="matrix(1,0,0,1,-176.212,-221.266)">
            <g transform="matrix(7,0,0,7,609.733,466.362)">
                <path d="M0.424,-0.212L0.496,-0L0.589,-0L0.359,-0.674L0.254,-0.674L0.025,-0L0.115,-0L0.185,-0.212L0.424,-0.212ZM0.203,-0.28L0.269,-0.475C0.282,-0.516 0.293,-0.557 0.303,-0.597L0.305,-0.597C0.315,-0.558 0.325,-0.518 0.34,-0.474L0.406,-0.28L0.203,-0.28Z" style="fill-rule:nonzero;"/>
            </g>
            <g transform="matrix(7,0,0,7,615.5,466.362)">
                <path d="M0.076,-0.002C0.105,0.002 0.151,0.006 0.211,0.006C0.321,0.006 0.397,-0.014 0.444,-0.057C0.478,-0.09 0.501,-0.134 0.501,-0.192C0.501,-0.292 0.426,-0.345 0.362,-0.361L0.362,-0.363C0.433,-0.389 0.476,-0.446 0.476,-0.511C0.476,-0.564 0.455,-0.604 0.42,-0.63C0.378,-0.664 0.322,-0.679 0.235,-0.679C0.174,-0.679 0.114,-0.673 0.076,-0.665L0.076,-0.002ZM0.163,-0.606C0.177,-0.609 0.2,-0.612 0.24,-0.612C0.328,-0.612 0.388,-0.581 0.388,-0.502C0.388,-0.437 0.334,-0.389 0.242,-0.389L0.163,-0.389L0.163,-0.606ZM0.163,-0.323L0.235,-0.323C0.33,-0.323 0.409,-0.285 0.409,-0.193C0.409,-0.095 0.326,-0.062 0.236,-0.062C0.205,-0.062 0.18,-0.063 0.163,-0.066L0.163,-0.323Z" style="fill-rule:nonzero;"/>
            </g>
            <g transform="matrix(7,0,0,7,623.745,466.362)">
                <path d="M0.92,-0.398L0.661,-0.203L0.769,0.112L0.495,-0.092L0.232,0.103L0.332,-0.209L0.08,-0.398L0.398,-0.398L0.497,-0.694L0.599,-0.398L0.92,-0.398Z" style="fill-rule:nonzero;"/>
            </g>
        </g>
        <g transform="matrix(1,0,0,1,-554.799,-408.416)">
            <g transform="matrix(7,0,0,7,1000.13,659.444)">
                <path d="M0.424,-0.212L0.496,-0L0.589,-0L0.359,-0.674L0.254,-0.674L0.025,-0L0.115,-0L0.185,-0.212L0.424,-0.212ZM0.203,-0.28L0.269,-0.475C0.282,-0.516 0.293,-0.557 0.303,-0.597L0.305,-0.597C0.315,-0.558 0.325,-0.518 0.34,-0.474L0.406,-0.28L0.203,-0.28Z" style="fill-rule:nonzero;"/>
            </g>
            <g transform="matrix(7,0,0,7,1004.42,659.444)">
                <path d="M0.158,-0L0.158,-0.288C0.158,-0.4 0.156,-0.481 0.151,-0.566L0.154,-0.567C0.188,-0.494 0.233,-0.417 0.28,-0.342L0.494,-0L0.582,-0L0.582,-0.674L0.5,-0.674L0.5,-0.392C0.5,-0.287 0.502,-0.205 0.51,-0.115L0.508,-0.114C0.476,-0.183 0.437,-0.254 0.387,-0.333L0.171,-0.674L0.076,-0.674L0.076,-0L0.158,-0Z" style="fill-rule:nonzero;"/>
            </g>
            <g transform="matrix(7,0,0,7,1009.02,659.444)">
                <path d="M0.076,-0.002C0.12,0.003 0.172,0.006 0.234,0.006C0.365,0.006 0.469,-0.028 0.532,-0.091C0.595,-0.153 0.629,-0.243 0.629,-0.353C0.629,-0.462 0.594,-0.54 0.534,-0.595C0.475,-0.65 0.386,-0.679 0.261,-0.679C0.192,-0.679 0.129,-0.673 0.076,-0.665L0.076,-0.002ZM0.163,-0.601C0.186,-0.606 0.22,-0.61 0.265,-0.61C0.449,-0.61 0.539,-0.509 0.538,-0.35C0.538,-0.168 0.437,-0.064 0.251,-0.064C0.217,-0.064 0.185,-0.065 0.163,-0.069L0.163,-0.601Z" style="fill-rule:nonzero;"/>
            </g>
            <g transform="matrix(7,0,0,7,1000.13,666.444)">
                <path d="M0.424,-0.212L0.496,-0L0.589,-0L0.359,-0.674L0.254,-0.674L0.025,-0L0.115,-0L0.185,-0.212L0.424,-0.212ZM0.203,-0.28L0.269,-0.475C0.282,-0.516 0.293,-0.557 0.303,-0.597L0.305,-0.597C0.315,-0.558 0.325,-0.518 0.34,-0.474L0.406,-0.28L0.203,-0.28Z" style="fill-rule:nonzero;"/>
            </g>
            <g transform="matrix(7,0,0,7,1004.42,666.444)">
                <path d="M0.076,-0.002C0.12,0.003 0.172,0.006 0.234,0.006C0.365,0.006 0.469,-0.028 0.532,-0.091C0.595,-0.153 0.629,-0.243 0.629,-0.353C0.629,-0.462 0.594,-0.54 0.534,-0.595C0.475,-0.65 0.386,-0.679 0.261,-0.679C0.192,-0.679 0.129,-0.673 0.076,-0.665L0.076,-0.002ZM0.163,-0.601C0.186,-0.606 0.22,-0.61 0.265,-0.61C0.449,-0.61 0.539,-0.509 0.538,-0.35C0.538,-0.168 0.437,-0.064 0.251,-0.064C0.217,-0.064 0.185,-0.065 0.163,-0.069L0.163,-0.601Z" style="fill-rule:nonzero;"/>
            </g>
            <g transform="matrix(7,0,0,7,1009.08,666.444)">
                <path d="M0.076,-0.002C0.12,0.003 0.172,0.006 0.234,0.006C0.365,0.006 0.469,-0.028 0.532,-0.091C0.595,-0.153 0.629,-0.243 0.629,-0.353C0.629,-0.462 0.594,-0.54 0.534,-0.595C0.475,-0.65 0.386,-0.679 0.261,-0.679C0.192,-0.679 0.129,-0.673 0.076,-0.665L0.076,-0.002ZM0.163,-0.601C0.186,-0.606 0.22,-0.61 0.265,-0.61C0.449,-0.61 0.539,-0.509 0.538,-0.35C0.538,-0.168 0.437,-0.064 0.251,-0.064C0.217,-0.064 0.185,-0.065 0.163,-0.069L0.163,-0.601Z" style="fill-rule:nonzero;"/>
            </g>
            <g transform="matrix(7,0,0,7,1000.13,673.444)">
                <path d="M0.349,-0.685C0.169,-0.685 0.036,-0.545 0.036,-0.331C0.036,-0.127 0.161,0.011 0.339,0.011C0.511,0.011 0.652,-0.112 0.652,-0.344C0.652,-0.544 0.533,-0.685 0.349,-0.685ZM0.345,-0.614C0.49,-0.614 0.56,-0.474 0.56,-0.34C0.56,-0.187 0.482,-0.06 0.344,-0.06C0.207,-0.06 0.129,-0.189 0.129,-0.333C0.129,-0.481 0.201,-0.614 0.345,-0.614Z" style="fill-rule:nonzero;"/>
            </g>
            <g transform="matrix(7,0,0,7,1004.96,673.444)">
                <path d="M0.076,-0L0.163,-0L0.163,-0.292L0.245,-0.292C0.324,-0.289 0.36,-0.254 0.38,-0.161C0.399,-0.077 0.414,-0.02 0.425,-0L0.515,-0C0.501,-0.026 0.485,-0.091 0.463,-0.185C0.447,-0.255 0.416,-0.303 0.364,-0.321L0.364,-0.324C0.435,-0.348 0.491,-0.407 0.491,-0.496C0.491,-0.548 0.472,-0.594 0.438,-0.624C0.396,-0.662 0.336,-0.679 0.243,-0.679C0.183,-0.679 0.12,-0.674 0.076,-0.665L0.076,-0ZM0.163,-0.604C0.177,-0.608 0.207,-0.612 0.249,-0.612C0.341,-0.611 0.404,-0.573 0.404,-0.486C0.404,-0.409 0.345,-0.358 0.252,-0.358L0.163,-0.358L0.163,-0.604Z" style="fill-rule:nonzero;"/>
            </g>
            <g transform="matrix(7,0,0,7,1000.13,680.444)">
                <path d="M0.546,-0L0.336,-0.346L0.541,-0.674L0.441,-0.674L0.349,-0.516C0.324,-0.473 0.307,-0.442 0.288,-0.402L0.285,-0.402C0.267,-0.438 0.248,-0.472 0.223,-0.516L0.134,-0.674L0.033,-0.674L0.231,-0.341L0.025,-0L0.125,-0L0.206,-0.148C0.241,-0.207 0.26,-0.243 0.279,-0.282L0.281,-0.282C0.302,-0.243 0.324,-0.206 0.359,-0.149L0.445,-0L0.546,-0Z" style="fill-rule:nonzero;"/>
            </g>
            <g transform="matrix(7,0,0,7,1003.93,680.444)">
                <path d="M0.349,-0.685C0.169,-0.685 0.036,-0.545 0.036,-0.331C0.036,-0.127 0.161,0.011 0.339,0.011C0.511,0.011 0.652,-0.112 0.652,-0.344C0.652,-0.544 0.533,-0.685 0.349,-0.685ZM0.345,-0.614C0.49,-0.614 0.56,-0.474 0.56,-0.34C0.56,-0.187 0.482,-0.06 0.344,-0.06C0.207,-0.06 0.129,-0.189 0.129,-0.333C0.129,-0.481 0.201,-0.614 0.345,-0.614Z" style="fill-rule:nonzero;"/>
            </g>
            <g transform="matrix(7,0,0,7,1008.75,680.444)">
                <path d="M0.076,-0L0.163,-0L0.163,-0.292L0.245,-0.292C0.324,-0.289 0.36,-0.254 0.38,-0.161C0.399,-0.077 0.414,-0.02 0.425,-0L0.515,-0C0.501,-0.026 0.485,-0.091 0.463,-0.185C0.447,-0.255 0.416,-0.303 0.364,-0.321L0.364,-0.324C0.435,-0.348 0.491,-0.407 0.491,-0.496C0.491,-0.548 0.472,-0.594 0.438,-0.624C0.396,-0.662 0.336,-0.679 0.243,-0.679C0.183,-0.679 0.12,-0.674 0.076,-0.665L0.076,-0ZM0.163,-0.604C0.177,-0.608 0.207,-0.612 0.249,-0.612C0.341,-0.611 0.404,-0.573 0.404,-0.486C0.404,-0.409 0.345,-0.358 0.252,-0.358L0.163,-0.358L0.163,-0.604Z" style="fill-rule:nonzero;"/>
            </g>
        </g>
        <g transform="matrix(1.68389e-16,-2.75,1,6.12323e-17,250.255,1482.38)">
            <path d="M448.062,185.945L448.062,187.477L447.505,185.945L448.062,184.413L448.062,185.945L449.44,185.945L448.062,185.945Z" style="fill-opacity:0;stroke:black;stroke-width:0.48px;stroke-linejoin:miter;stroke-miterlimit:1;"/>
        </g>
        <g transform="matrix(1.68389e-16,-2.75,1,6.12323e-17,255.292,1482.38)">
            <path d="M448.062,185.945L448.062,187.477L447.505,185.945L448.062,184.413L448.062,185.945L449.44,185.945L448.062,185.945Z" style="fill-opacity:0;stroke:black;stroke-width:0.5px;stroke-linejoin:miter;stroke-miterlimit:1;"/>
        </g>
        <g transform="matrix(1.68389e-16,2.75,-1,6.12323e-17,622.145,-970.373)">
            <path d="M448.062,185.945L448.062,187.477L447.505,185.945L448.062,184.413L448.062,185.945L449.44,185.945L448.062,185.945Z" style="fill-opacity:0;stroke:black;stroke-width:0.5px;stroke-linejoin:miter;stroke-miterlimit:1;"/>
        </g>
        <g transform="matrix(1.68389e-16,-2.75,1,6.12323e-17,255.292,1496.23)">
            <path d="M448.062,185.945L448.062,187.477L447.505,185.945L448.062,184.413L448.062,185.945L449.44,185.945L448.062,185.945Z" style="fill-opacity:0;stroke:black;stroke-width:0.5px;stroke-linejoin:miter;stroke-miterlimit:1;"/>
        </g>
        <g transform="matrix(1.68389e-16,-2.75,1,6.12323e-17,250.255,1489.73)">
            <path d="M448.062,185.945L448.062,187.477L447.505,185.945L448.062,184.413L448.062,185.945L449.44,185.945L448.062,185.945Z" style="fill-opacity:0;stroke:black;stroke-width:0.5px;stroke-linejoin:miter;stroke-miterlimit:1;"/>
        </g>
        <g transform="matrix(1.68389e-16,2.75,-1,6.12323e-17,627.181,-976.871)">
            <path d="M448.062,185.945L448.062,187.477L447.505,185.945L448.062,184.413L448.062,185.945L449.44,185.945L448.062,185.945Z" style="fill-opacity:0;stroke:black;stroke-width:0.5px;stroke-linejoin:miter;stroke-miterlimit:1;"/>
        </g>
        <g transform="matrix(1.68389e-16,2.75,-1,6.12323e-17,622.145,-963.234)">
            <path d="M448.062,185.945L448.062,187.477L447.505,185.945L448.062,184.413L448.062,185.945L449.44,185.945L448.062,185.945Z" style="fill-opacity:0;stroke:black;stroke-width:0.5px;stroke-linejoin:miter;stroke-miterlimit:1;"/>
        </g>
        <g transform="matrix(1.68389e-16,2.75,-1,6.12323e-17,627.181,-963.234)">
            <path d="M448.062,185.945L448.062,187.477L447.505,185.945L448.062,184.413L448.062,185.945L449.44,185.945L448.062,185.945Z" style="fill-opacity:0;stroke:black;stroke-width:0.5px;stroke-linejoin:miter;stroke-miterlimit:1;"/>
        </g>
        <g transform="matrix(1,0,0,1,416.177,482.514)">
            <path d="M0,11.049C0.036,11.001 0.073,10.954 0.109,10.907L-0.781,10.128C-0.825,10.179 -0.87,10.231 -0.915,10.281C-0.62,10.548 -0.551,11.073 0,11.049M-3.654,4.02C-2.785,3.182 -1.934,2.285 -1.001,1.481C-0.071,0.678 0.872,-0.131 2.083,-0.574C2.015,-0.438 1.946,-0.303 1.882,-0.175C2.585,-0.055 3.264,0.06 3.936,0.173C2.563,-2.303 -0.974,-4.567 -5.171,-3.8C-8.911,-3.117 -12.284,0.347 -12.379,3.544C-12.063,3.406 -11.758,3.274 -11.404,3.12C-11.548,2.986 -11.651,2.887 -11.82,2.728C-11.628,2.741 -11.522,2.733 -11.426,2.759C-10.932,2.892 -10.447,3.077 -9.945,3.165C-8.661,3.391 -7.449,3.795 -6.306,4.426C-5.93,4.633 -5.499,4.722 -4.999,4.492C-5.14,4.282 -5.225,4.071 -5.379,3.942C-5.693,3.678 -5.883,3.383 -5.937,2.962C-5.957,2.8 -6.171,2.604 -6.343,2.53C-7.071,2.218 -7.818,1.951 -8.554,1.657C-8.702,1.598 -8.832,1.493 -8.971,1.409C-8.96,1.384 -8.949,1.358 -8.938,1.332C-8.286,1.408 -7.633,1.484 -6.979,1.56C-6.96,1.508 -6.941,1.456 -6.922,1.404C-7.541,0.926 -8.161,0.448 -8.78,-0.03C-8.756,-0.083 -8.732,-0.135 -8.708,-0.187C-8.13,-0.029 -7.55,0.119 -6.975,0.289C-6.547,0.417 -6.135,0.605 -5.701,0.71C-4.834,0.923 -3.955,1.088 -3.088,1.299C-2.944,1.333 -2.835,1.503 -2.709,1.611C-2.987,1.698 -3.203,1.677 -3.419,1.678C-3.652,1.678 -3.89,1.675 -4.117,1.717C-4.749,1.832 -5.009,2.389 -4.643,2.892C-4.365,3.273 -4.021,3.606 -3.654,4.02M1.644,11.651C1.621,11.712 1.6,11.774 1.577,11.835C1.159,11.796 0.742,11.752 0.324,11.721C0.218,11.712 0.102,11.771 0.001,11.748C-0.676,11.595 -1.377,11.495 -2.01,11.233C-2.249,11.133 -2.298,10.627 -2.481,10.338C-2.955,9.593 -3.391,8.809 -3.966,8.148C-4.382,7.67 -4.964,7.306 -5.53,6.996C-7.589,5.868 -9.749,5.566 -12.019,6.311C-12.316,6.408 -12.435,6.539 -12.356,6.843C-12.264,7.204 -12.209,7.578 -12.087,7.928C-9.938,14.099 -2.323,16.061 2.479,11.63C5.093,9.22 5.911,6.186 5.118,2.721C5.068,2.502 5.018,2.342 4.7,2.353C2.277,2.438 0.58,3.684 -0.65,5.669C-0.982,6.205 -1.18,6.802 -0.954,7.45C-0.81,7.863 -0.681,8.286 -0.497,8.682C-0.409,8.87 -0.233,9.09 -0.051,9.148C0.335,9.268 0.503,9.505 0.575,9.872C0.717,10.587 0.994,11.228 1.644,11.651M8.422,2.714C7.687,2.592 6.952,2.459 6.214,2.352C5.971,2.317 5.718,2.346 5.463,2.346C7.043,7.989 3.307,13.208 -1.693,14.223C-6.713,15.241 -11.797,12.115 -12.886,6.702C-13.563,6.785 -14.396,7.207 -15.777,8.073C-15.621,7.708 -15.489,7.33 -15.303,6.981C-14.729,5.904 -14.045,4.91 -13.107,4.108C-13.005,4.02 -12.948,3.844 -12.927,3.701C-12.347,-0.24 -9.396,-3.408 -5.56,-4.199C-1.619,-5.012 2.309,-3.311 4.436,0.111C4.562,0.315 4.787,0.502 5.01,0.597C6.156,1.085 7.311,1.552 8.216,2.456C8.262,2.502 8.353,2.504 8.422,2.528L8.422,2.714Z" style="fill-rule:nonzero;"/>
        </g>
        <g transform="matrix(1.15175,0,0,1.31096,-141.33,-67.0251)">
            <g transform="matrix(1,0,0,1,501.373,271.848)">
                <path d="M0,0L1,0" style="fill:none;fill-rule:nonzero;stroke:black;stroke-width:0.36px;stroke-miterlimit:4;"/>
            </g>
            <g transform="matrix(0.761884,0,0,1,504.493,271.848)">
                <path d="M0,0L15.902,0" style="fill:none;fill-rule:nonzero;stroke:black;stroke-width:0.39px;stroke-miterlimit:4;stroke-dasharray:1.67,1.67;"/>
            </g>
            <g transform="matrix(0,0.702436,1,0,508.764,270.287)">
                <path d="M-4.85,-4.85L4.85,-4.85" style="fill:none;fill-rule:nonzero;stroke:black;stroke-width:0.42px;stroke-dasharray:1.69,1.69;"/>
            </g>
            <path d="M503.864,271.806L506.698,271.803L506.698,270.066L510.035,270.012L510.058,268.201L513.55,268.164L513.569,266.612L515.716,266.612" style="fill:none;stroke:black;stroke-width:0.36px;stroke-miterlimit:1.5;"/>
        </g>
        <g transform="matrix(0.790525,0,0,0.99815,57.0271,-20.4066)">
            <path d="M514.266,179.735C514.266,178.519 513.02,177.532 511.485,177.532L477.318,177.532C475.783,177.532 474.537,178.519 474.537,179.735L474.537,294.772C474.537,295.988 475.783,296.975 477.318,296.975L511.485,296.975C513.02,296.975 514.266,295.988 514.266,294.772L514.266,179.735Z" style="fill:none;stroke:black;stroke-width:1.11px;stroke-miterlimit:1.5;"/>
        </g>
        <g transform="matrix(0.792281,0,0,2.58991,19.2279,-302.906)">
            <path d="M514.266,178.748C514.266,178.077 512.485,177.532 510.293,177.532L478.51,177.532C476.317,177.532 474.537,178.077 474.537,178.748L474.537,295.759C474.537,296.43 476.317,296.975 478.51,296.975L510.293,296.975C512.485,296.975 514.266,296.43 514.266,295.759L514.266,178.748Z" style="fill:none;stroke:black;stroke-width:0.52px;stroke-miterlimit:1.5;"/>
        </g>
        <g transform="matrix(0.777845,0,0,2.58973,-10.6548,-302.839)">
            <path d="M514.266,178.725C514.266,178.067 512.485,177.532 510.293,177.532L478.51,177.532C476.317,177.532 474.537,178.067 474.537,178.725L474.537,295.781C474.537,296.44 476.317,296.975 478.51,296.975L510.293,296.975C512.485,296.975 514.266,296.44 514.266,295.781L514.266,178.725Z" style="fill:none;stroke:black;stroke-width:0.52px;stroke-miterlimit:1.5;"/>
        </g>
        <g transform="matrix(1,0,0,1,-175.339,-300.642)">
            <g transform="matrix(7,0,0,7,618.097,466.017)">
                <path d="M0.424,-0.212L0.496,-0L0.589,-0L0.359,-0.674L0.254,-0.674L0.025,-0L0.115,-0L0.185,-0.212L0.424,-0.212ZM0.203,-0.28L0.269,-0.475C0.282,-0.516 0.293,-0.557 0.303,-0.597L0.305,-0.597C0.315,-0.558 0.325,-0.518 0.34,-0.474L0.406,-0.28L0.203,-0.28Z" style="fill-rule:nonzero;"/>
            </g>
        </g>
        <g transform="matrix(1,0,0,1,-175.339,-256.828)">
            <g transform="matrix(7,0,0,7,618.342,466.017)">
                <path d="M0.076,-0.002C0.105,0.002 0.151,0.006 0.211,0.006C0.321,0.006 0.397,-0.014 0.444,-0.057C0.478,-0.09 0.501,-0.134 0.501,-0.192C0.501,-0.292 0.426,-0.345 0.362,-0.361L0.362,-0.363C0.433,-0.389 0.476,-0.446 0.476,-0.511C0.476,-0.564 0.455,-0.604 0.42,-0.63C0.378,-0.664 0.322,-0.679 0.235,-0.679C0.174,-0.679 0.114,-0.673 0.076,-0.665L0.076,-0.002ZM0.163,-0.606C0.177,-0.609 0.2,-0.612 0.24,-0.612C0.328,-0.612 0.388,-0.581 0.388,-0.502C0.388,-0.437 0.334,-0.389 0.242,-0.389L0.163,-0.389L0.163,-0.606ZM0.163,-0.323L0.235,-0.323C0.33,-0.323 0.409,-0.285 0.409,-0.193C0.409,-0.095 0.326,-0.062 0.236,-0.062C0.205,-0.062 0.18,-0.063 0.163,-0.066L0.163,-0.323Z" style="fill-rule:nonzero;"/>
            </g>
        </g>
        <g transform="matrix(1,0,0,1,-172.321,-270.948)">
            <g transform="matrix(7,0,0,7,608.167,466.017)">
                <path d="M0.076,-0L0.451,-0L0.451,-0.073L0.163,-0.073L0.163,-0.674L0.076,-0.674L0.076,-0Z" style="fill-rule:nonzero;"/>
            </g>
            <g transform="matrix(7,0,0,7,611.197,466.017)">
                <path d="M0.349,-0.685C0.169,-0.685 0.036,-0.545 0.036,-0.331C0.036,-0.127 0.161,0.011 0.339,0.011C0.511,0.011 0.652,-0.112 0.652,-0.344C0.652,-0.544 0.533,-0.685 0.349,-0.685ZM0.345,-0.614C0.49,-0.614 0.56,-0.474 0.56,-0.34C0.56,-0.187 0.482,-0.06 0.344,-0.06C0.207,-0.06 0.129,-0.189 0.129,-0.333C0.129,-0.481 0.201,-0.614 0.345,-0.614Z" style="fill-rule:nonzero;"/>
            </g>
            <g transform="matrix(7,0,0,7,616.02,466.017)">
                <path d="M0.589,-0.354L0.367,-0.354L0.367,-0.284L0.504,-0.284L0.504,-0.083C0.484,-0.073 0.445,-0.065 0.388,-0.065C0.231,-0.065 0.128,-0.166 0.128,-0.337C0.128,-0.506 0.235,-0.608 0.399,-0.608C0.467,-0.608 0.512,-0.595 0.548,-0.579L0.569,-0.65C0.54,-0.664 0.479,-0.681 0.401,-0.681C0.175,-0.681 0.037,-0.534 0.036,-0.333C0.036,-0.228 0.072,-0.138 0.13,-0.082C0.196,-0.019 0.28,0.007 0.382,0.007C0.473,0.007 0.55,-0.016 0.589,-0.03L0.589,-0.354Z" style="fill-rule:nonzero;"/>
            </g>
            <g transform="matrix(7,0,0,7,620.542,466.017)">
                <rect x="0.076" y="-0.674" width="0.087" height="0.674" style="fill-rule:nonzero;"/>
            </g>
            <g transform="matrix(7,0,0,7,622.215,466.017)">
                <path d="M0.529,-0.091C0.494,-0.074 0.44,-0.063 0.387,-0.063C0.223,-0.063 0.128,-0.169 0.128,-0.334C0.128,-0.511 0.233,-0.612 0.391,-0.612C0.447,-0.612 0.494,-0.6 0.527,-0.584L0.548,-0.655C0.525,-0.667 0.472,-0.685 0.388,-0.685C0.179,-0.685 0.036,-0.542 0.036,-0.331C0.036,-0.11 0.179,0.011 0.369,0.011C0.451,0.011 0.515,-0.006 0.547,-0.022L0.529,-0.091Z" style="fill-rule:nonzero;"/>
            </g>
            <g transform="matrix(7,0,0,7,607.943,473.017)">
                <path d="M0.661,-0L0.746,-0L0.704,-0.674L0.593,-0.674L0.473,-0.348C0.443,-0.263 0.419,-0.189 0.402,-0.121L0.399,-0.121C0.382,-0.191 0.359,-0.265 0.331,-0.348L0.216,-0.674L0.105,-0.674L0.058,-0L0.141,-0L0.159,-0.289C0.165,-0.39 0.17,-0.503 0.172,-0.587L0.174,-0.587C0.193,-0.507 0.22,-0.42 0.252,-0.325L0.361,-0.004L0.427,-0.004L0.546,-0.331C0.58,-0.423 0.608,-0.508 0.631,-0.587L0.634,-0.587C0.633,-0.503 0.639,-0.39 0.644,-0.296L0.661,-0Z" style="fill-rule:nonzero;"/>
            </g>
            <g transform="matrix(7,0,0,7,613.57,473.017)">
                <path d="M0.349,-0.685C0.169,-0.685 0.036,-0.545 0.036,-0.331C0.036,-0.127 0.161,0.011 0.339,0.011C0.511,0.011 0.652,-0.112 0.652,-0.344C0.652,-0.544 0.533,-0.685 0.349,-0.685ZM0.345,-0.614C0.49,-0.614 0.56,-0.474 0.56,-0.34C0.56,-0.187 0.482,-0.06 0.344,-0.06C0.207,-0.06 0.129,-0.189 0.129,-0.333C0.129,-0.481 0.201,-0.614 0.345,-0.614Z" style="fill-rule:nonzero;"/>
            </g>
            <g transform="matrix(7,0,0,7,618.393,473.017)">
                <path d="M0.076,-0.002C0.12,0.003 0.172,0.006 0.234,0.006C0.365,0.006 0.469,-0.028 0.532,-0.091C0.595,-0.153 0.629,-0.243 0.629,-0.353C0.629,-0.462 0.594,-0.54 0.534,-0.595C0.475,-0.65 0.386,-0.679 0.261,-0.679C0.192,-0.679 0.129,-0.673 0.076,-0.665L0.076,-0.002ZM0.163,-0.601C0.186,-0.606 0.22,-0.61 0.265,-0.61C0.449,-0.61 0.539,-0.509 0.538,-0.35C0.538,-0.168 0.437,-0.064 0.251,-0.064C0.217,-0.064 0.185,-0.065 0.163,-0.069L0.163,-0.601Z" style="fill-rule:nonzero;"/>
            </g>
            <g transform="matrix(7,0,0,7,623.055,473.017)">
                <path d="M0.425,-0.388L0.163,-0.388L0.163,-0.601L0.44,-0.601L0.44,-0.674L0.076,-0.674L0.076,-0L0.455,-0L0.455,-0.073L0.163,-0.073L0.163,-0.316L0.425,-0.316L0.425,-0.388Z" style="fill-rule:nonzero;"/>
            </g>
        </g>
        <g transform="matrix(0.18,0,0,0.18,0.524936,-1.57898)">
            <path d="M1990.12,2393.53L2543.05,2393.53" style="fill:none;stroke:black;stroke-width:5.56px;stroke-miterlimit:1.5;stroke-dasharray:16.67,16.67,16.67,16.67,16.67,16.67;stroke-dashoffset:277.78;"/>
        </g>
        <g transform="matrix(0.18,0,0,0.18,0.524936,-38.516)">
            <path d="M1990.12,2393.53L2543.05,2393.53" style="fill:none;stroke:black;stroke-width:5.56px;stroke-miterlimit:1.5;stroke-dasharray:16.67,16.67,16.67,16.67,16.67,16.67;stroke-dashoffset:277.78;"/>
        </g>
        <g transform="matrix(0.18,0,0,0.18,0.729979,-75.3609)">
            <path d="M1990.12,2393.53L2543.05,2393.53" style="fill:none;stroke:black;stroke-width:5.56px;stroke-miterlimit:1.5;stroke-dasharray:16.67,16.67,16.67,16.67,16.67,16.67;stroke-dashoffset:277.78;"/>
        </g>
        <g transform="matrix(0.18,0,0,0.18,0.729979,-112.365)">
            <path d="M1990.12,2393.53L2543.05,2393.53" style="fill:none;stroke:black;stroke-width:5.56px;stroke-miterlimit:1.5;stroke-dasharray:16.67,16.67,16.67,16.67,16.67,16.67;stroke-dashoffset:277.78;"/>
        </g>
        <g transform="matrix(0.176014,0,0,0.18,9.90853,35.3828)">
            <path d="M1990.12,2393.53L2543.05,2393.53" style="fill:none;stroke:black;stroke-width:5.62px;stroke-miterlimit:1.5;stroke-dasharray:16.85,16.85,16.85,16.85,16.85,0;stroke-dashoffset:280.87;"/>
        </g>
    </g>
    <g id="drills" transform="matrix(5.55556,0,0,5.55556,0,0)">
        <g transform="matrix(0,0.684863,-0.684863,0,388.98,326.531)">
            <path d="M-5.28,5.359C-5.307,5.36 -5.333,5.36 -5.36,5.36C-8.318,5.36 -10.72,2.958 -10.72,0C-10.72,-0.027 -10.72,-0.053 -10.719,-0.08C-10.677,-3.001 -8.292,-5.36 -5.36,-5.36C-5.333,-5.36 -5.307,-5.36 -5.28,-5.359C-2.385,-5.317 -0.043,-2.975 -0.001,-0.08C-0,-0.053 0,-0.027 0,0C0,2.932 -2.359,5.317 -5.28,5.359Z" style="fill:white;stroke:black;stroke-width:1.46px;"/>
        </g>
        <g transform="matrix(0,0.684863,-0.684863,0,388.98,363.491)">
            <path d="M-5.28,5.359C-5.307,5.36 -5.333,5.36 -5.36,5.36C-8.318,5.36 -10.72,2.958 -10.72,0C-10.72,-0.027 -10.72,-0.053 -10.719,-0.08C-10.677,-3.001 -8.292,-5.36 -5.36,-5.36C-5.333,-5.36 -5.307,-5.36 -5.28,-5.359C-2.385,-5.317 -0.043,-2.975 -0.001,-0.08C-0,-0.053 0,-0.027 0,0C0,2.932 -2.359,5.317 -5.28,5.359Z" style="fill:white;stroke:black;stroke-width:1.46px;"/>
        </g>
        <g transform="matrix(0,0.684863,-0.684863,0,388.98,401.411)">
            <path d="M-5.28,5.359C-5.307,5.36 -5.333,5.36 -5.36,5.36C-8.318,5.36 -10.72,2.958 -10.72,0C-10.72,-0.027 -10.72,-0.053 -10.719,-0.08C-10.677,-3.001 -8.292,-5.36 -5.36,-5.36C-5.333,-5.36 -5.307,-5.36 -5.28,-5.359C-2.385,-5.317 -0.043,-2.975 -0.001,-0.08C-0,-0.053 0,-0.027 0,0C0,2.932 -2.359,5.317 -5.28,5.359Z" style="fill:white;stroke:black;stroke-width:1.46px;"/>
        </g>
        <g transform="matrix(0,0.684863,-0.684863,0,388.98,437.411)">
            <path d="M-5.28,5.359C-5.307,5.36 -5.333,5.36 -5.36,5.36C-8.318,5.36 -10.72,2.958 -10.72,0C-10.72,-0.027 -10.72,-0.053 -10.719,-0.08C-10.677,-3.001 -8.292,-5.36 -5.36,-5.36C-5.333,-5.36 -5.307,-5.36 -5.28,-5.359C-2.385,-5.317 -0.043,-2.975 -0.001,-0.08C-0,-0.053 0,-0.027 0,0C0,2.932 -2.359,5.317 -5.28,5.359Z" style="fill:white;stroke:black;stroke-width:1.46px;"/>
        </g>
        <g transform="matrix(0,0.684863,-0.684863,0,426.42,326.531)">
            <path d="M-5.28,5.359C-5.307,5.36 -5.333,5.36 -5.36,5.36C-8.318,5.36 -10.72,2.958 -10.72,0C-10.72,-0.027 -10.72,-0.053 -10.719,-0.08C-10.677,-3.001 -8.292,-5.36 -5.36,-5.36C-5.333,-5.36 -5.307,-5.36 -5.28,-5.359C-2.385,-5.317 -0.043,-2.975 -0.001,-0.08C-0,-0.053 0,-0.027 0,0C0,2.932 -2.359,5.317 -5.28,5.359Z" style="fill:white;stroke:black;stroke-width:1.46px;"/>
        </g>
        <g transform="matrix(0,0.684863,-0.684863,0,426.42,363.491)">
            <path d="M-5.28,5.359C-5.307,5.36 -5.333,5.36 -5.36,5.36C-8.318,5.36 -10.72,2.958 -10.72,0C-10.72,-0.027 -10.72,-0.053 -10.719,-0.08C-10.677,-3.001 -8.292,-5.36 -5.36,-5.36C-5.333,-5.36 -5.307,-5.36 -5.28,-5.359C-2.385,-5.317 -0.043,-2.975 -0.001,-0.08C-0,-0.053 0,-0.027 0,0C0,2.932 -2.359,5.317 -5.28,5.359Z" style="fill:white;stroke:black;stroke-width:1.46px;"/>
        </g>
        <g transform="matrix(0,0.684863,-0.684863,0,426.42,401.411)">
            <path d="M-5.28,5.359C-5.307,5.36 -5.333,5.36 -5.36,5.36C-8.318,5.36 -10.72,2.958 -10.72,0C-10.72,-0.027 -10.72,-0.053 -10.719,-0.08C-10.677,-3.001 -8.292,-5.36 -5.36,-5.36C-5.333,-5.36 -5.307,-5.36 -5.28,-5.359C-2.385,-5.317 -0.043,-2.975 -0.001,-0.08C-0,-0.053 0,-0.027 0,0C0,2.932 -2.359,5.317 -5.28,5.359Z" style="fill:white;stroke:black;stroke-width:1.46px;"/>
        </g>
        <g transform="matrix(0,0.684863,-0.684863,0,426.42,437.411)">
            <path d="M-5.28,5.359C-5.307,5.36 -5.333,5.36 -5.36,5.36C-8.318,5.36 -10.72,2.958 -10.72,0C-10.72,-0.027 -10.72,-0.053 -10.719,-0.08C-10.677,-3.001 -8.292,-5.36 -5.36,-5.36C-5.333,-5.36 -5.307,-5.36 -5.28,-5.359C-2.385,-5.317 -0.043,-2.975 -0.001,-0.08C-0,-0.053 0,-0.027 0,0C0,2.932 -2.359,5.317 -5.28,5.359Z" style="fill:white;stroke:black;stroke-width:1.46px;"/>
        </g>
        <g transform="matrix(0,0.684863,-0.684863,0,462.9,290.531)">
            <path d="M-5.28,5.359C-5.307,5.36 -5.333,5.36 -5.36,5.36C-8.318,5.36 -10.72,2.958 -10.72,0C-10.72,-0.027 -10.72,-0.053 -10.719,-0.08C-10.677,-3.001 -8.292,-5.36 -5.36,-5.36C-5.333,-5.36 -5.307,-5.36 -5.28,-5.359C-2.385,-5.317 -0.043,-2.975 -0.001,-0.08C-0,-0.053 0,-0.027 0,0C0,2.932 -2.359,5.317 -5.28,5.359Z" style="fill:white;stroke:black;stroke-width:1.46px;"/>
        </g>
        <g transform="matrix(0,0.684863,-0.684863,0,462.9,326.531)">
            <path d="M-5.28,5.359C-5.307,5.36 -5.333,5.36 -5.36,5.36C-8.318,5.36 -10.72,2.958 -10.72,0C-10.72,-0.027 -10.72,-0.053 -10.719,-0.08C-10.677,-3.001 -8.292,-5.36 -5.36,-5.36C-5.333,-5.36 -5.307,-5.36 -5.28,-5.359C-2.385,-5.317 -0.043,-2.975 -0.001,-0.08C-0,-0.053 0,-0.027 0,0C0,2.932 -2.359,5.317 -5.28,5.359Z" style="fill:white;stroke:black;stroke-width:1.46px;"/>
        </g>
        <g transform="matrix(0,0.684863,-0.684863,0,462.9,401.411)">
            <path d="M-5.28,5.359C-5.307,5.36 -5.333,5.36 -5.36,5.36C-8.318,5.36 -10.72,2.958 -10.72,0C-10.72,-0.027 -10.72,-0.053 -10.719,-0.08C-10.677,-3.001 -8.292,-5.36 -5.36,-5.36C-5.333,-5.36 -5.307,-5.36 -5.28,-5.359C-2.385,-5.317 -0.043,-2.975 -0.001,-0.08C-0,-0.053 0,-0.027 0,0C0,2.932 -2.359,5.317 -5.28,5.359Z" style="fill:white;stroke:black;stroke-width:1.46px;"/>
        </g>
        <g transform="matrix(0,0.684863,-0.684863,0,462.9,437.411)">
            <path d="M-5.28,5.359C-5.307,5.36 -5.333,5.36 -5.36,5.36C-8.318,5.36 -10.72,2.958 -10.72,0C-10.72,-0.027 -10.72,-0.053 -10.719,-0.08C-10.677,-3.001 -8.292,-5.36 -5.36,-5.36C-5.333,-5.36 -5.307,-5.36 -5.28,-5.359C-2.385,-5.317 -0.043,-2.975 -0.001,-0.08C-0,-0.053 0,-0.027 0,0C0,2.932 -2.359,5.317 -5.28,5.359Z" style="fill:white;stroke:black;stroke-width:1.46px;"/>
        </g>
        <g transform="matrix(0,0.684863,-0.684863,0,462.9,363.491)">
            <path d="M-5.28,5.359C-5.307,5.36 -5.333,5.36 -5.36,5.36C-8.318,5.36 -10.72,2.958 -10.72,0C-10.72,-0.027 -10.72,-0.053 -10.719,-0.08C-10.677,-3.001 -8.292,-5.36 -5.36,-5.36C-5.333,-5.36 -5.307,-5.36 -5.28,-5.359C-2.385,-5.317 -0.043,-2.975 -0.001,-0.08C-0,-0.053 0,-0.027 0,0C0,2.932 -2.359,5.317 -5.28,5.359Z" style="fill:white;stroke:black;stroke-width:1.46px;"/>
        </g>
        <g transform="matrix(0,0.75,-0.75,0,462.96,180.36)">
            <circle cx="-4.64" cy="0" r="4.64" style="fill:white;stroke:black;stroke-width:1.33px;"/>
        </g>
        <g transform="matrix(0,0.75,-0.75,0,388.98,180.36)">
            <circle cx="-4.64" cy="-0" r="4.64" style="fill:white;stroke:black;stroke-width:1.33px;"/>
        </g>
        <g transform="matrix(9.24446e-33,0.650289,-0.650289,-9.24446e-33,407.94,461.22)">
            <circle cx="-13.84" cy="-0" r="13.84" style="fill:white;stroke:black;stroke-width:1.54px;"/>
        </g>
        <g transform="matrix(4.62223e-33,0.650289,-0.650289,-4.62223e-33,370.98,461.22)">
            <circle cx="-13.84" cy="0" r="13.84" style="fill:white;stroke:black;stroke-width:1.54px;"/>
        </g>
        <g transform="matrix(0,0.650289,-0.650289,0,370.98,424.26)">
            <circle cx="-13.84" cy="0" r="13.84" style="fill:none;stroke:black;stroke-width:1.54px;"/>
        </g>
        <g transform="matrix(0,0.650289,-0.650289,0,370.98,387.3)">
            <circle cx="-13.84" cy="0" r="13.84" style="fill:none;stroke:black;stroke-width:1.54px;"/>
        </g>
        <g transform="matrix(0,0.650289,-0.650289,0,370.98,350.34)">
            <circle cx="-13.84" cy="0" r="13.84" style="fill:none;stroke:black;stroke-width:1.54px;"/>
        </g>
        <g transform="matrix(-4.62223e-33,0.650289,-0.650289,4.62223e-33,444.9,424.26)">
            <circle cx="-13.84" cy="0" r="13.84" style="fill:white;stroke:black;stroke-width:1.54px;"/>
        </g>
        <g transform="matrix(0,0.650289,-0.650289,0,445.38,387.3)">
            <circle cx="-13.84" cy="0" r="13.84" style="fill:white;stroke:black;stroke-width:1.54px;"/>
        </g>
        <g transform="matrix(0,0.650289,-0.650289,0,445.38,350.34)">
            <circle cx="-13.84" cy="0" r="13.84" style="fill:white;stroke:black;stroke-width:1.54px;"/>
        </g>
        <g transform="matrix(0,0.650289,-0.650289,0,407.94,424.26)">
            <circle cx="-13.84" cy="-0" r="13.84" style="fill:none;stroke:black;stroke-width:1.54px;"/>
        </g>
        <g transform="matrix(0,0.650289,-0.650289,0,407.94,387.3)">
            <circle cx="-13.84" cy="-0" r="13.84" style="fill:none;stroke:black;stroke-width:1.54px;"/>
        </g>
        <g transform="matrix(0,0.650289,-0.650289,0,407.94,350.34)">
            <circle cx="-13.84" cy="-0" r="13.84" style="fill:none;stroke:black;stroke-width:1.54px;"/>
        </g>
        <g transform="matrix(0,0.650289,-0.650289,0,445.38,313.38)">
            <circle cx="-13.84" cy="0" r="13.84" style="fill:white;stroke:black;stroke-width:1.54px;"/>
        </g>
        <g transform="matrix(0,0.650289,-0.650289,0,444.9,461.22)">
            <circle cx="-13.84" cy="0" r="13.84" style="fill:white;stroke:black;stroke-width:1.54px;"/>
        </g>
        <g transform="matrix(0,0.622646,-0.622646,0,407.94,270.704)">
            <path d="M0.08,-0.08C0.08,-0.053 0.08,-0.027 0.08,0C0.08,6.049 -4.867,10.96 -10.96,10.96C-17.053,10.96 -22,6.049 -22,0C-22,-0.027 -22,-0.053 -22,-0.08C-21.956,-6.092 -17.026,-10.96 -10.96,-10.96C-4.894,-10.96 0.036,-6.092 0.08,-0.08Z" style="fill:none;stroke:black;stroke-width:1.61px;"/>
        </g>
        <g transform="matrix(0,0.622646,-0.622646,0,407.94,226.964)">
            <path d="M0.08,-0.08C0.08,-0.053 0.08,-0.027 0.08,0C0.08,6.049 -4.867,10.96 -10.96,10.96C-17.053,10.96 -22,6.049 -22,0C-22,-6.049 -17.053,-10.96 -10.96,-10.96C-4.894,-10.96 0.036,-6.092 0.08,-0.08Z" style="fill:none;stroke:black;stroke-width:1.61px;"/>
        </g>
        <g transform="matrix(-4.62223e-33,0.622646,-0.622646,4.62223e-33,407.94,183.704)">
            <path d="M0.08,-0.08C0.08,-0.053 0.08,-0.027 0.08,0C0.08,6.049 -4.867,10.96 -10.96,10.96C-17.053,10.96 -22,6.049 -22,0C-22,-0.027 -22,-0.053 -22,-0.08C-21.956,-6.092 -17.026,-10.96 -10.96,-10.96C-4.894,-10.96 0.036,-6.092 0.08,-0.08Z" style="fill:none;stroke:black;stroke-width:1.61px;"/>
        </g>
        <g transform="matrix(-4.62223e-33,0.622646,-0.622646,4.62223e-33,444.9,183.704)">
            <path d="M0.08,-0.08C0.08,-0.053 0.08,-0.027 0.08,0C0.08,6.049 -4.867,10.96 -10.96,10.96C-17.053,10.96 -22,6.049 -22,0C-22,-0.027 -22,-0.053 -22,-0.08C-21.956,-6.092 -17.026,-10.96 -10.96,-10.96C-4.894,-10.96 0.036,-6.092 0.08,-0.08Z" style="fill:none;stroke:black;stroke-width:1.61px;"/>
        </g>
        <g transform="matrix(-4.62223e-33,0.622646,-0.622646,4.62223e-33,370.98,270.224)">
            <path d="M0.08,-0.08C0.08,-0.053 0.08,-0.027 0.08,0C0.08,6.049 -4.867,10.96 -10.96,10.96C-17.053,10.96 -22,6.049 -22,0C-22,-0.027 -22,-0.053 -22,-0.08C-21.956,-6.092 -17.026,-10.96 -10.96,-10.96C-4.894,-10.96 0.036,-6.092 0.08,-0.08Z" style="fill:none;stroke:black;stroke-width:1.61px;"/>
        </g>
        <g transform="matrix(-4.62223e-33,0.622646,-0.622646,4.62223e-33,407.94,313.484)">
            <path d="M0.08,-0.08C0.08,-0.053 0.08,-0.027 0.08,0C0.08,6.049 -4.867,10.96 -10.96,10.96C-17.053,10.96 -22,6.049 -22,0C-22,-6.049 -17.053,-10.96 -10.96,-10.96C-4.894,-10.96 0.036,-6.092 0.08,-0.08Z" style="fill:none;stroke:black;stroke-width:1.61px;"/>
        </g>
        <g transform="matrix(0,0.622646,-0.622646,0,370.98,226.964)">
            <path d="M0.08,-0.08C0.08,-0.053 0.08,-0.027 0.08,0C0.08,6.049 -4.867,10.96 -10.96,10.96C-17.053,10.96 -22,6.049 -22,0C-22,-6.049 -17.053,-10.96 -10.96,-10.96C-4.894,-10.96 0.036,-6.092 0.08,-0.08Z" style="fill:none;stroke:black;stroke-width:1.61px;"/>
        </g>
        <g transform="matrix(-4.62223e-33,0.622646,-0.622646,4.62223e-33,370.98,183.704)">
            <path d="M0.08,-0.08C0.08,-0.053 0.08,-0.027 0.08,0C0.08,6.049 -4.867,10.96 -10.96,10.96C-17.053,10.96 -22,6.049 -22,0C-22,-0.027 -22,-0.053 -22,-0.08C-21.956,-6.092 -17.026,-10.96 -10.96,-10.96C-4.894,-10.96 0.036,-6.092 0.08,-0.08Z" style="fill:white;stroke:black;stroke-width:1.61px;"/>
        </g>
        <g transform="matrix(-4.62223e-33,0.622646,-0.622646,4.62223e-33,370.98,313.484)">
            <path d="M0.08,-0.08C0.08,-0.053 0.08,-0.027 0.08,0C0.08,6.049 -4.867,10.96 -10.96,10.96C-17.053,10.96 -22,6.049 -22,0C-22,-6.049 -17.053,-10.96 -10.96,-10.96C-4.894,-10.96 0.036,-6.092 0.08,-0.08Z" style="fill:none;stroke:black;stroke-width:1.61px;"/>
        </g>
        <g transform="matrix(0,0.622646,-0.622646,0,444.9,226.964)">
            <path d="M0.08,-0.08C0.08,-0.053 0.08,-0.027 0.08,0C0.08,6.049 -4.867,10.96 -10.96,10.96C-17.053,10.96 -22,6.049 -22,0C-22,-6.049 -17.053,-10.96 -10.96,-10.96C-4.894,-10.96 0.036,-6.092 0.08,-0.08Z" style="fill:none;stroke:black;stroke-width:1.61px;"/>
        </g>
        <g transform="matrix(-4.47879e-18,0.578499,-0.651643,4.47879e-18,445.798,147.935)">
            <path d="M-0,0C-0,4.327 -3.513,7.84 -7.84,7.84C-12.167,7.84 -15.68,4.327 -15.68,0L-15.68,-12L-15.68,-12C-15.68,-12.027 -15.68,-12.053 -15.68,-12.08C-15.68,-16.451 -12.167,-20 -7.84,-20C-3.513,-20 0,-16.451 0,-12.08C-0,-12.053 -0,-12.027 -0,-12L-0,-12L-0,-0.16L-0,0Z" style="fill:none;stroke:black;stroke-width:1.62px;"/>
        </g>
        <g transform="matrix(-4.47875e-18,0.578499,-0.651643,4.47875e-18,371.278,147.935)">
            <path d="M-0,-0C-0,4.327 -3.513,7.84 -7.84,7.84C-12.167,7.84 -15.68,4.327 -15.68,-0L-15.68,-12L-15.68,-12C-15.68,-12.027 -15.68,-12.053 -15.68,-12.08C-15.68,-16.451 -12.167,-20 -7.84,-20C-3.513,-20 0,-16.451 0,-12.08C0,-12.053 -0,-12.027 -0,-12L-0,-12L-0,-0.16L-0,-0Z" style="fill:none;stroke:black;stroke-width:1.62px;"/>
        </g>
        <g transform="matrix(-4.47881e-18,0.578498,-0.651643,4.47881e-18,371.278,495.695)">
            <path d="M-0,-0C-0,4.327 -3.513,7.84 -7.84,7.84C-12.167,7.84 -15.68,4.327 -15.68,-0L-15.68,-12L-15.68,-12C-15.68,-12.027 -15.68,-12.053 -15.68,-12.08C-15.68,-16.451 -12.167,-20 -7.84,-20C-3.513,-20 -0,-16.451 -0,-12.08C-0,-12.053 -0,-12.027 -0,-12L-0,-12L-0,-0.16C-0,-0.16 -0,-0.001 -0,-0Z" style="fill:none;stroke:black;stroke-width:1.62px;"/>
        </g>
        <g transform="matrix(-4.47885e-18,0.578498,-0.651643,4.47885e-18,445.798,495.695)">
            <path d="M-0,0C-0,4.327 -3.513,7.84 -7.84,7.84C-12.167,7.84 -15.68,4.327 -15.68,0L-15.68,-12L-15.68,-12C-15.68,-12.027 -15.68,-12.053 -15.68,-12.08C-15.68,-16.451 -12.167,-20 -7.84,-20C-3.513,-20 -0,-16.451 -0,-12.08C-0,-12.053 -0,-12.027 -0,-12L-0,-12L-0,-0.16C-0,-0.16 -0,-0.001 -0,0Z" style="fill:none;stroke:black;stroke-width:1.62px;"/>
        </g>
    </g>
</svg>
