<?xml version="1.0" encoding="UTF-8" standalone="no"?>
<!-- Created with Inkscape (http://www.inkscape.org/) -->

<svg
   width="19.974001mm"
   height="19.974001mm"
   viewBox="0 0 19.974001 19.974001"
   version="1.1"
   id="svg1"
   inkscape:version="1.4.1 (1:1.4.1+202503302257+93de688d07)"
   sodipodi:docname="keyboard-button.svg"
   xmlns:inkscape="http://www.inkscape.org/namespaces/inkscape"
   xmlns:sodipodi="http://sodipodi.sourceforge.net/DTD/sodipodi-0.dtd"
   xmlns:xlink="http://www.w3.org/1999/xlink"
   xmlns="http://www.w3.org/2000/svg"
   xmlns:svg="http://www.w3.org/2000/svg">
  <sodipodi:namedview
     id="namedview1"
     pagecolor="#ffffff"
     bordercolor="#000000"
     borderopacity="0.25"
     inkscape:showpageshadow="2"
     inkscape:pageopacity="0.0"
     inkscape:pagecheckerboard="0"
     inkscape:deskcolor="#d1d1d1"
     inkscape:document-units="mm"
     inkscape:zoom="32"
     inkscape:cx="9.9375"
     inkscape:cy="11.34375"
     inkscape:window-width="1920"
     inkscape:window-height="1016"
     inkscape:window-x="1920"
     inkscape:window-y="27"
     inkscape:window-maximized="1"
     inkscape:current-layer="layer1" />
  <defs
     id="defs1">
    <linearGradient
       id="linearGradient6"
       inkscape:collect="always">
      <stop
         style="stop-color:#525252;stop-opacity:1;"
         offset="0"
         id="stop6" />
      <stop
         style="stop-color:#ffffff;stop-opacity:1;"
         offset="1"
         id="stop7" />
    </linearGradient>
    <linearGradient
       id="linearGradient4"
       inkscape:collect="always">
      <stop
         style="stop-color:#9d9d9d;stop-opacity:1;"
         offset="0"
         id="stop4" />
      <stop
         style="stop-color:#b8b8b8;stop-opacity:1;"
         offset="1"
         id="stop5" />
    </linearGradient>
    <linearGradient
       inkscape:collect="always"
       xlink:href="#linearGradient4"
       id="linearGradient5"
       x1="9.9871273"
       y1="3.3656321"
       x2="9.9871273"
       y2="16.608368"
       gradientUnits="userSpaceOnUse" />
    <linearGradient
       inkscape:collect="always"
       xlink:href="#linearGradient6"
       id="linearGradient7"
       x1="2.0661578"
       y1="7.4392724"
       x2="7.8566589"
       y2="1.6487712"
       gradientUnits="userSpaceOnUse" />
  </defs>
  <g
     inkscape:label="Layer 1"
     inkscape:groupmode="layer"
     id="layer1">
    <rect
       style="clip-rule:evenodd;display:none;fill:#000000;fill-opacity:1;fill-rule:evenodd;stroke-width:0.573;stroke-linecap:round;stroke-linejoin:round;stroke-miterlimit:10;stroke-dashoffset:48.849;paint-order:stroke fill markers"
       id="rect1"
       width="19.973875"
       height="19.973875"
       x="2.7755576e-17"
       y="0" />
    <rect
       style="fill:#000000;stroke:#000000;stroke-width:0.549539;stroke-linecap:round;stroke-linejoin:round;stroke-dashoffset:48.849;stroke-opacity:1;paint-order:stroke fill markers"
       id="rect2"
       width="17.694"
       height="17.693687"
       x="1.140155"
       y="1.1401565"
       rx="0.60000002" />
    <path
       id="rect2-4"
       style="stroke:#cacaca;stroke-width:0.549539;stroke-linecap:round;stroke-linejoin:round;stroke-dashoffset:48.849;paint-order:stroke fill markers;fill:#c9c9c9;fill-opacity:1;stroke-opacity:1"
       d="m 1.740155,1.1401565 h 16.494 c 0.3324,0 -0.717713,1.3347608 -1.037109,1.4268229 l -6.862631,1.978067 C 9.7903491,4.7018667 2.3323576,2.7716131 2.2575436,2.6311133 2.1738953,2.4740226 1.5568841,1.1401565 1.740155,1.1401565 Z m 0,0 h 16.494 c 0.3324,0 -0.717713,1.3347608 -1.037109,1.4268229 L 10.334415,4.5450465 C 9.7903492,4.7018668 2.3323576,2.7716131 2.2575436,2.6311133 2.1738953,2.4740226 1.5568841,1.1401565 1.740155,1.1401565 Z"
       sodipodi:nodetypes="ssssss" />
    <path
       id="rect2-4-1"
       style="fill:#2d2d2d;fill-opacity:1;stroke:#2d2d2d;stroke-width:0.549539;stroke-linecap:round;stroke-linejoin:round;stroke-dashoffset:48.849;stroke-opacity:1;paint-order:stroke fill markers"
       d="M 1.7401558,18.833843 H 18.234155 c 0.3324,0 -0.717713,-1.334761 -1.037109,-1.426823 l -6.862631,-1.978067 c -0.5440656,-0.15682 -8.0020566,1.773433 -8.0768706,1.913933 -0.083648,0.157091 -0.7006595,1.490957 -0.5173886,1.490957 z m 0,0 H 18.234155 c 0.3324,0 -0.717713,-1.334761 -1.037109,-1.426823 l -6.862631,-1.978067 c -0.5440646,-0.156821 -8.0020566,1.773433 -8.0768706,1.913933 -0.083648,0.157091 -0.7006595,1.490957 -0.5173886,1.490957 z"
       sodipodi:nodetypes="ssssss" />
    <path
       id="rect2-4-1-0"
       style="fill:#575757;fill-opacity:1;stroke:#575757;stroke-width:0.549539;stroke-linecap:round;stroke-linejoin:round;stroke-dashoffset:48.849;stroke-opacity:1;paint-order:stroke fill markers"
       d="M 1.140155,1.8916839 V 18.385683 c 0,0.3324 1.334761,-0.717713 1.426823,-1.037109 L 4.5450454,10.485943 C 4.7018654,9.9418775 2.7716124,2.4838865 2.631112,2.4090725 2.474021,2.3254245 1.140155,1.708413 1.140155,1.8916839 Z m 0,0 V 18.385683 c 0,0.3324 1.334761,-0.717713 1.426823,-1.037109 L 4.5450454,10.485943 C 4.7018664,9.9418785 2.7716124,2.4838865 2.631112,2.4090725 2.474021,2.3254245 1.140155,1.708413 1.140155,1.8916839 Z"
       sodipodi:nodetypes="ssssss" />
    <path
       id="rect2-4-1-0-4"
       style="fill:#afafaf;fill-opacity:1;stroke:#afafaf;stroke-width:0.549539;stroke-linecap:round;stroke-linejoin:round;stroke-dashoffset:48.849;stroke-opacity:1;paint-order:stroke fill markers"
       d="M 18.834156,1.7400001 V 18.234 c 0,0.332399 -1.334761,-0.717713 -1.426823,-1.03711 l -1.978067,-6.862631 c -0.15682,-0.5440653 1.773433,-8.0020563 1.913933,-8.0768703 0.157091,-0.083648 1.490957,-0.7006595 1.490957,-0.5173886 z m 0,0 V 18.234 c 0,0.332399 -1.334761,-0.717713 -1.426823,-1.03711 L 15.429266,10.334259 C 15.272445,9.7901947 17.202699,2.3322027 17.343199,2.2573887 17.50029,2.1737407 18.834156,1.5567292 18.834156,1.7400001 Z"
       sodipodi:nodetypes="ssssss" />
    <path
       id="rect2-7"
       style="fill:url(#linearGradient7);fill-opacity:1;stroke:#7e7e7e;stroke-width:0.549539;stroke-linecap:round;stroke-linejoin:round;stroke-dashoffset:48.849;paint-order:stroke fill markers;stroke-opacity:1"
       d="m 1.740155,1.1401565 c 0.4147963,0.1411773 0.7950131,0.3886324 1.1910417,0.5808997 1.8070174,0.9698745 3.6188707,1.9375119 5.3539206,3.0328073 0.366876,0.17037 0.6327032,0.4847784 0.4314818,0.8972642 C 8.4195664,6.7990151 7.3226715,7.5419238 6.2173054,7.8009154 5.7822976,7.897161 5.324746,7.977514 4.882972,7.9387555 4.4239777,7.4558262 4.1066143,6.8571883 3.74175,6.3032224 2.8516403,4.8463728 1.9766625,3.3781228 1.1789872,1.8682978 1.0187092,1.5310791 1.393099,1.1178213 1.740155,1.1401565 Z" />
    <path
       id="rect2-7-3"
       style="fill:#c5c5c5;fill-opacity:1;stroke:#c5c5c5;stroke-width:0.549539;stroke-linecap:round;stroke-linejoin:round;stroke-dashoffset:48.849;paint-order:stroke fill markers;stroke-opacity:1"
       d="m 18.235675,1.1411815 c -0.414796,0.1411773 -0.795013,0.3886324 -1.191041,0.5808997 -1.807018,0.9698745 -3.618871,1.9375119 -5.353921,3.0328073 -0.366876,0.17037 -0.632703,0.4847784 -0.431482,0.8972642 0.297033,1.1478874 1.393928,1.8907961 2.499294,2.1497877 0.435008,0.096246 0.892559,0.1765986 1.334333,0.1378401 C 15.551853,7.4568512 15.869216,6.8582133 16.23408,6.3042474 17.12419,4.8473978 17.999168,3.3791478 18.796843,1.8693228 18.957121,1.5321041 18.582731,1.1188463 18.235675,1.1411815 Z" />
    <path
       id="rect2-7-3-2"
       style="fill:#777777;fill-opacity:1;stroke:#777777;stroke-width:0.549539;stroke-linecap:round;stroke-linejoin:round;stroke-dashoffset:48.849;paint-order:stroke fill markers;stroke-opacity:1"
       d="m 18.235675,18.832819 c -0.414796,-0.141178 -0.795013,-0.388633 -1.191041,-0.5809 -1.807018,-0.969875 -3.618871,-1.937512 -5.353921,-3.032807 -0.366876,-0.17037 -0.632703,-0.484779 -0.431482,-0.897265 0.297033,-1.147887 1.393928,-1.890796 2.499294,-2.149787 0.435008,-0.09625 0.892559,-0.176599 1.334333,-0.13784 0.458995,0.482929 0.776358,1.081567 1.141222,1.635533 0.89011,1.456849 1.765088,2.925099 2.562763,4.434924 0.160278,0.337219 -0.214112,0.750477 -0.561168,0.728142 z" />
    <path
       id="rect2-7-3-2-6"
       style="fill:#262626;fill-opacity:1;stroke:#262626;stroke-width:0.549539;stroke-linecap:round;stroke-linejoin:round;stroke-dashoffset:48.849;paint-order:stroke fill markers;stroke-opacity:1"
       d="m 1.7401552,18.832819 c 0.414796,-0.141178 0.795013,-0.388633 1.191041,-0.5809 1.807018,-0.969875 3.618871,-1.937512 5.353921,-3.032807 0.366876,-0.17037 0.632703,-0.484779 0.431482,-0.897265 -0.297033,-1.147887 -1.393928,-1.890796 -2.499294,-2.149787 -0.435008,-0.09625 -0.892559,-0.176599 -1.334333,-0.13784 -0.458995,0.482929 -0.776358,1.081567 -1.141222,1.635533 -0.89011,1.456849 -1.765088,2.925099 -2.562763,4.434924 -0.160278,0.337219 0.214112,0.750477 0.561168,0.728142 z" />
    <rect
       style="fill:url(#linearGradient5);fill-opacity:1;stroke:#c3c3c3;stroke-width:0.24;stroke-linecap:round;stroke-linejoin:round;stroke-dashoffset:48.849;stroke-opacity:1;paint-order:stroke fill markers;stroke-dasharray:none"
       id="rect3"
       width="12.602736"
       height="12.602452"
       x="3.6857591"
       y="3.6857741"
       rx="2.6191614" />
  </g>
</svg>
