<?xml version="1.0" encoding="UTF-8" standalone="no"?>
<!-- Created with Inkscape (http://www.inkscape.org/) -->

<svg
   width="12.404037mm"
   height="12.404037mm"
   viewBox="0 0 12.404037 12.404037"
   version="1.1"
   id="svg1"
   inkscape:version="1.4.2 (1:1.4.2+202505120738+ebf0e940d0)"
   sodipodi:docname="silver-knob-dark.svg"
   xmlns:inkscape="http://www.inkscape.org/namespaces/inkscape"
   xmlns:sodipodi="http://sodipodi.sourceforge.net/DTD/sodipodi-0.dtd"
   xmlns:xlink="http://www.w3.org/1999/xlink"
   xmlns="http://www.w3.org/2000/svg"
   xmlns:svg="http://www.w3.org/2000/svg">
  <sodipodi:namedview
     id="namedview1"
     pagecolor="#ffffff"
     bordercolor="#000000"
     borderopacity="0.25"
     inkscape:showpageshadow="2"
     inkscape:pageopacity="0.0"
     inkscape:pagecheckerboard="true"
     inkscape:deskcolor="#d1d1d1"
     inkscape:document-units="mm"
     inkscape:zoom="17.295309"
     inkscape:cx="11.910744"
     inkscape:cy="18.155212"
     inkscape:window-width="1920"
     inkscape:window-height="1016"
     inkscape:window-x="1920"
     inkscape:window-y="27"
     inkscape:window-maximized="1"
     inkscape:current-layer="svg1"
     showgrid="false" />
  <defs
     id="defs1">
    <linearGradient
       inkscape:collect="always"
       xlink:href="#linearGradient11"
       id="linearGradient12"
       x1="4.4142766"
       y1="7.7969213"
       x2="7.1119843"
       y2="12.469487"
       gradientUnits="userSpaceOnUse"
       gradientTransform="matrix(0.95813894,0,0,0.95813894,0.35393117,0.35393122)" />
    <linearGradient
       id="linearGradient11"
       inkscape:collect="always">
      <stop
         style="stop-color:#000000;stop-opacity:0.19648805;"
         offset="0"
         id="stop11" />
      <stop
         style="stop-color:#000000;stop-opacity:0;"
         offset="1"
         id="stop12" />
    </linearGradient>
    <linearGradient
       inkscape:collect="always"
       xlink:href="#linearGradient13"
       id="linearGradient14"
       x1="-11.160198"
       y1="3.6934643"
       x2="-5.6505585"
       y2="1.4674251"
       gradientUnits="userSpaceOnUse"
       gradientTransform="matrix(0.95813894,0,0,0.95813894,11.589345,8.4009042)" />
    <linearGradient
       id="linearGradient13"
       inkscape:collect="always">
      <stop
         style="stop-color:#ffffff;stop-opacity:0;"
         offset="0"
         id="stop14" />
      <stop
         style="stop-color:#ffffff;stop-opacity:0.91230637;"
         offset="1"
         id="stop13" />
    </linearGradient>
    <linearGradient
       inkscape:collect="always"
       xlink:href="#linearGradient7"
       id="linearGradient8"
       x1="-15.29427"
       y1="-0.89213687"
       x2="-7.542037"
       y2="0.2684328"
       gradientUnits="userSpaceOnUse"
       gradientTransform="matrix(0.95813894,0,0,0.95813894,-0.47609561,0.15449127)" />
    <linearGradient
       id="linearGradient7"
       inkscape:collect="always">
      <stop
         style="stop-color:#171717;stop-opacity:0.03595797;"
         offset="0"
         id="stop7" />
      <stop
         style="stop-color:#ffffff;stop-opacity:0.24662688;"
         offset="1"
         id="stop8" />
    </linearGradient>
    <linearGradient
       inkscape:collect="always"
       xlink:href="#linearGradient3"
       id="linearGradient4"
       x1="6.914494"
       y1="5.3576245"
       x2="8.4549046"
       y2="5.3576245"
       gradientUnits="userSpaceOnUse"
       gradientTransform="matrix(0.95813894,0,0,0.95813894,0.35393117,0.35393122)" />
    <linearGradient
       id="linearGradient3"
       inkscape:collect="always">
      <stop
         style="stop-color:#cbcbcb;stop-opacity:1;"
         offset="0"
         id="stop3" />
      <stop
         style="stop-color:#ffffff;stop-opacity:1;"
         offset="1"
         id="stop4" />
    </linearGradient>
    <linearGradient
       inkscape:collect="always"
       xlink:href="#linearGradient9"
       id="linearGradient1"
       gradientUnits="userSpaceOnUse"
       x1="-15.559062"
       y1="0.60957742"
       x2="-6.7776246"
       y2="0.60957742"
       gradientTransform="matrix(0.95813894,0,0,0.95813894,10.204931,-15.473067)" />
    <linearGradient
       id="linearGradient9"
       inkscape:collect="always">
      <stop
         style="stop-color:#b4b4b4;stop-opacity:1;"
         offset="0"
         id="stop9" />
      <stop
         style="stop-color:#b4b4b4;stop-opacity:0;"
         offset="1"
         id="stop10" />
    </linearGradient>
    <linearGradient
       inkscape:collect="always"
       xlink:href="#linearGradient9"
       id="linearGradient10"
       x1="-15.559062"
       y1="0.60957742"
       x2="-6.7776246"
       y2="0.60957742"
       gradientUnits="userSpaceOnUse"
       gradientTransform="matrix(0.95813894,0,0,0.95813894,11.589345,8.4009042)" />
  </defs>
  <g
     inkscape:label="Layer 1"
     inkscape:groupmode="layer"
     id="layer1"
     transform="translate(-2.2528851,-2.2528851)"
     style="display:none">
    <circle
       style="fill:#f5f5f5;fill-opacity:1;stroke:#757575;stroke-width:0.0767046;stroke-linecap:round;stroke-linejoin:round;stroke-dasharray:none;stroke-dashoffset:48.849;stroke-opacity:0.272826"
       id="path1"
       cx="0.69220686"
       cy="11.936985"
       r="5.9040432"
       transform="rotate(-41.681221)" />
    <path
       style="display:inline;fill:url(#linearGradient10);fill-opacity:1;stroke:#757575;stroke-width:0;stroke-linecap:round;stroke-linejoin:round;stroke-dashoffset:48.849"
       id="path4"
       sodipodi:type="arc"
       sodipodi:cx="0.69220686"
       sodipodi:cy="11.936985"
       sodipodi:rx="5.9040427"
       sodipodi:ry="5.9040427"
       sodipodi:start="3.7489405"
       sodipodi:end="5.5541232"
       sodipodi:arc-type="slice"
       d="M -4.1559832,8.5675973 A 5.9040427,5.9040427 0 0 1 0.33312551,6.043872 5.9040427,5.9040427 0 0 1 5.0954391,8.0038862 L 0.69220686,11.936985 Z"
       transform="rotate(-41.681221)" />
    <path
       style="display:inline;fill:url(#linearGradient1);fill-opacity:1;stroke:#757575;stroke-width:0;stroke-linecap:round;stroke-linejoin:round;stroke-dashoffset:48.849"
       id="path4-9"
       sodipodi:type="arc"
       sodipodi:cx="-0.69220686"
       sodipodi:cy="-11.936986"
       sodipodi:rx="5.9040427"
       sodipodi:ry="5.9040427"
       sodipodi:start="3.7489405"
       sodipodi:end="5.5541232"
       sodipodi:arc-type="slice"
       d="m -5.5403969,-15.306374 a 5.9040427,5.9040427 0 0 1 4.4891087,-2.523725 5.9040427,5.9040427 0 0 1 4.7623136,1.960014 l -4.40323226,3.933099 z"
       transform="rotate(138.31878)" />
    <path
       style="display:none;fill:#ffffff;fill-opacity:1;stroke:#757575;stroke-width:0;stroke-linecap:round;stroke-linejoin:round;stroke-dashoffset:48.849"
       id="path4-6-9"
       sodipodi:type="arc"
       sodipodi:cx="8.4549036"
       sodipodi:cy="8.4549036"
       sodipodi:rx="5.9040427"
       sodipodi:ry="5.9040427"
       sodipodi:start="4.9176983"
       sodipodi:end="5.1173968"
       sodipodi:arc-type="slice"
       d="M 9.6585608,2.6748578 A 5.9040427,5.9040427 0 0 1 10.78125,3.028502 L 8.4549036,8.4549036 Z" />
    <path
       style="display:none;fill:#ffffff;fill-opacity:1;stroke:#757575;stroke-width:0;stroke-linecap:round;stroke-linejoin:round;stroke-dashoffset:48.849"
       id="path4-6-9-2"
       sodipodi:type="arc"
       sodipodi:cx="-8.44139"
       sodipodi:cy="8.4549036"
       sodipodi:rx="5.9040427"
       sodipodi:ry="5.9040427"
       sodipodi:start="4.9176983"
       sodipodi:end="5.1173968"
       sodipodi:arc-type="slice"
       d="M -7.2377329,2.6748578 A 5.9040427,5.9040427 0 0 1 -6.115044,3.028502 L -8.44139,8.4549036 Z"
       transform="scale(-1,1)" />
    <path
       style="display:none;fill:url(#linearGradient4);fill-opacity:1;stroke:none;stroke-width:0.0958139;stroke-linecap:round;stroke-linejoin:round;stroke-dashoffset:48.849;stroke-opacity:0.216888"
       id="path2"
       sodipodi:type="arc"
       sodipodi:cx="8.4549046"
       sodipodi:cy="8.4563637"
       sodipodi:rx="5.9423966"
       sodipodi:ry="5.9423966"
       sodipodi:start="4.4613893"
       sodipodi:end="4.6746619"
       sodipodi:arc-type="slice"
       d="M 6.978977,2.7001743 A 5.9423966,5.9423966 0 0 1 8.2307685,2.5181955 l 0.2241361,5.9381682 z" />
    <circle
       style="display:inline;fill:#bebebe;fill-opacity:1;stroke:#757575;stroke-width:0.0783633;stroke-linecap:round;stroke-linejoin:round;stroke-dasharray:none;stroke-dashoffset:48.849;stroke-opacity:0.196139"
       id="path3"
       cx="0.69220775"
       cy="11.936985"
       r="5.1237578"
       transform="rotate(-41.681221)" />
    <path
       style="display:none;fill:url(#linearGradient8);fill-opacity:0.129086;stroke:#757575;stroke-width:0;stroke-linecap:round;stroke-linejoin:round;stroke-dashoffset:48.849"
       id="path4-6"
       sodipodi:type="arc"
       sodipodi:cx="-11.373234"
       sodipodi:cy="3.6905725"
       sodipodi:rx="5.9040427"
       sodipodi:ry="5.9040427"
       sodipodi:start="4.0647141"
       sodipodi:end="5.5541232"
       sodipodi:arc-type="slice"
       d="m -14.935342,-1.0178353 a 5.9040427,5.9040427 0 0 1 7.9653405,0.77530902 L -11.373234,3.6905725 Z"
       transform="rotate(-117.02194)" />
    <path
       style="display:inline;fill:#ffffff;fill-opacity:0.446023;stroke:#757575;stroke-width:0;stroke-linecap:round;stroke-linejoin:round;stroke-dashoffset:48.849"
       id="path5"
       sodipodi:type="arc"
       sodipodi:cx="0.69220775"
       sodipodi:cy="11.936985"
       sodipodi:rx="5.1237574"
       sodipodi:ry="5.1237574"
       sodipodi:start="5.7683051"
       sodipodi:end="0.6072215"
       sodipodi:arc-type="slice"
       d="M 5.1516788,9.4138902 A 5.1237574,5.1237574 0 0 1 4.9000246,14.860539 L 0.69220775,11.936985 Z"
       transform="rotate(-41.681221)" />
    <path
       style="fill:#ffffff;fill-opacity:1;stroke:none;stroke-width:0;stroke-linecap:round;stroke-linejoin:round;stroke-dashoffset:48.849"
       id="path5-2"
       sodipodi:type="arc"
       sodipodi:cx="2.6499743"
       sodipodi:cy="11.656195"
       sodipodi:rx="5.9040427"
       sodipodi:ry="5.9040427"
       sodipodi:start="6.1793872"
       sodipodi:end="0.10710224"
       sodipodi:arc-type="slice"
       d="m 8.5222404,11.044466 a 5.9040427,5.9040427 0 0 1 -0.00205,1.242857 L 2.6499743,11.656195 Z"
       transform="rotate(-32.052287)" />
    <path
       style="fill:#ffffff;fill-opacity:1;stroke:none;stroke-width:0;stroke-linecap:round;stroke-linejoin:round;stroke-dashoffset:48.849"
       id="path5-2-5"
       sodipodi:type="arc"
       sodipodi:cx="-2.6499739"
       sodipodi:cy="-11.659117"
       sodipodi:rx="5.9040442"
       sodipodi:ry="5.9040442"
       sodipodi:start="6.2401572"
       sodipodi:end="0.17997332"
       sodipodi:arc-type="slice"
       d="m 3.2486057,-11.913078 a 5.9040442,5.9040442 0 0 1 -0.089895,1.310805 l -5.8086848,-1.056844 z"
       transform="rotate(147.94771)" />
    <path
       style="fill:#ffffff;fill-opacity:0.511762;stroke:none;stroke-width:0;stroke-linecap:round;stroke-linejoin:round;stroke-dashoffset:48.849"
       id="path5-2-5-3"
       sodipodi:type="arc"
       sodipodi:cx="-0.69220734"
       sodipodi:cy="-11.938447"
       sodipodi:rx="5.9040442"
       sodipodi:ry="5.9040442"
       sodipodi:start="5.9128496"
       sodipodi:end="6.0153793"
       sodipodi:arc-type="slice"
       d="m 4.8115774,-14.075288 a 5.9040442,5.9040442 0 0 1 0.1898026,0.574535 l -5.69358734,1.562306 z"
       transform="rotate(138.31878)" />
    <path
       style="fill:url(#linearGradient14);fill-opacity:0.511762;stroke:none;stroke-width:0;stroke-linecap:round;stroke-linejoin:round;stroke-dashoffset:48.849"
       id="path5-2-5-3-1"
       sodipodi:type="arc"
       sodipodi:cx="0.68903339"
       sodipodi:cy="11.94175"
       sodipodi:rx="5.9040442"
       sodipodi:ry="5.9040442"
       sodipodi:start="5.9128496"
       sodipodi:end="6.0153793"
       sodipodi:arc-type="slice"
       d="M 6.1928182,9.8049083 A 5.9040442,5.9040442 0 0 1 6.3826207,10.379443 L 0.68903339,11.94175 Z"
       transform="rotate(-41.681221)" />
    <path
       style="display:inline;fill:#ffffff;fill-opacity:0.446023;stroke:#757575;stroke-width:0;stroke-linecap:round;stroke-linejoin:round;stroke-dashoffset:48.849"
       id="path5-3"
       sodipodi:type="arc"
       sodipodi:cx="-0.69220638"
       sodipodi:cy="-11.936987"
       sodipodi:rx="5.1237574"
       sodipodi:ry="5.1237574"
       sodipodi:start="5.7683051"
       sodipodi:end="0.6072215"
       sodipodi:arc-type="slice"
       d="M 3.7672646,-14.460082 A 5.1237574,5.1237574 0 0 1 3.5156105,-9.0134332 L -0.69220638,-11.936987 Z"
       transform="rotate(138.31878)" />
    <path
       style="display:none;fill:url(#linearGradient12);fill-opacity:0.0919009;stroke:none;stroke-width:0.0958139;stroke-linecap:round;stroke-linejoin:round;stroke-dashoffset:48.849;stroke-opacity:0.216888"
       id="path10"
       sodipodi:type="arc"
       sodipodi:cx="8.4605885"
       sodipodi:cy="8.4555664"
       sodipodi:rx="5.1695547"
       sodipodi:ry="5.1645317"
       sodipodi:start="2.000977"
       sodipodi:end="3.4320814"
       sodipodi:arc-type="slice"
       d="M 6.3047031,13.14956 A 5.1695547,5.1645317 0 0 1 3.5076174,6.9763385 l 4.9529711,1.4792279 z" />
    <circle
       style="fill:none;fill-opacity:1;stroke:#9c9c9c;stroke-width:0.0767046;stroke-linecap:round;stroke-linejoin:round;stroke-dasharray:none;stroke-dashoffset:48.849;stroke-opacity:1"
       id="path1-8"
       cx="0.69220686"
       cy="11.936985"
       r="5.9040432"
       transform="rotate(-41.681221)" />
    <circle
       style="display:inline;fill:none;fill-opacity:1;stroke:#b9b9b9;stroke-width:0.0783633;stroke-linecap:round;stroke-linejoin:round;stroke-dasharray:none;stroke-dashoffset:48.849;stroke-opacity:1"
       id="path3-9"
       cx="0.69220775"
       cy="11.936985"
       r="5.1237578"
       transform="rotate(-41.681221)" />
  </g>
  <g
     id="g5"
     style="display:inline"
     transform="matrix(1.2571297,0,0,1.0792453,-5.1459244,-2.5867825)">
    <rect
       style="display:inline;fill:#ffffff;fill-opacity:1;stroke:none;stroke-width:0.088854;stroke-linecap:round;stroke-linejoin:round;stroke-dasharray:none;stroke-dashoffset:48.849;stroke-opacity:1"
       id="rect5"
       width="3.0071607"
       height="0.38103506"
       x="3.0053692"
       y="-9.2173853"
       transform="rotate(90)"
       rx="0.068985187" />
    <path
       style="baseline-shift:baseline;display:inline;overflow:visible;vector-effect:none;fill:#474747;stroke-linecap:square;stroke-linejoin:round;stroke-dasharray:0.151103, 0.453308;enable-background:accumulate;stop-color:#000000;stop-opacity:1;opacity:1;fill-opacity:1"
       d="m 2.2128906,7.0136719 -0.076172,0.00195 h -0.017578 a 0.07555891,0.07555891 0 0 0 -0.00195,0 l -0.1308594,0.00391 a 0.07555891,0.07555891 0 0 0 -0.00195,0 h -0.00195 l -0.074219,0.00586 0.00977,0.1503906 0.074219,-0.00391 0.1289063,-0.00586 h 0.017578 l 0.076172,-0.00195 z m 0.3046875,0.00586 -0.00977,0.1503907 0.076172,0.00586 0.054687,0.00391 0.09375,0.00781 0.074219,0.00781 0.013672,-0.1503906 -0.076172,-0.00781 -0.091797,-0.00781 a 0.07555891,0.07555891 0 0 0 -0.00195,0 L 2.59375,7.0253906 Z m -0.9140625,0.035156 -0.074219,0.00977 -0.066406,0.00977 a 0.07555891,0.07555891 0 0 0 -0.00195,0 L 1.3789062,7.0878906 1.3046875,7.1015625 1.3300781,7.25 1.4042969,7.2363281 1.484375,7.2226562 1.5507812,7.2148437 1.625,7.203125 Z M 3.125,7.0859375 3.0957031,7.234375 3.1699219,7.25 l 0.095703,0.017578 0.048828,0.011719 0.074219,0.015625 0.033203,-0.1464844 -0.074219,-0.017578 -0.048828,-0.00977 a 0.07555891,0.07555891 0 0 0 -0.00195,0 l -0.097656,-0.019531 z m -2.1210938,0.080078 -0.0722656,0.019531 -0.0996094,0.027344 a 0.07555891,0.07555891 0 0 0 -0.001953,0 L 0.78515625,7.2285156 0.71289062,7.25 0.75585937,7.3945312 0.828125,7.3730469 0.87304688,7.359375 0.97070313,7.3320312 1.0429687,7.3125 Z m 2.7128907,0.060547 -0.044922,0.1445312 0.074219,0.023437 h 0.00195 l 0.1191406,0.039063 0.017578,0.00586 0.070312,0.025391 0.050781,-0.1425781 -0.070313,-0.025391 -0.019531,-0.00586 a 0.07555891,0.07555891 0 0 0 -0.00195,0 L 3.7949219,7.25 a 0.07555891,0.07555891 0 0 0 -0.00195,0 l -0.00391,-0.00195 z m -3.29296877,0.125 -0.0703125,0.025391 -0.003906,0.00195 a 0.07555891,0.07555891 0 0 0 -0.001953,0 l -0.11523437,0.048828 -0.0214844,0.00977 -0.0683594,0.03125 0.0625,0.1367187 0.0683594,-0.029297 0.0195313,-0.00977 L 0.40625,7.5195312 h 0.001953 l 0.0703125,-0.027344 z m 3.86523437,0.083984 -0.060547,0.1386718 0.068359,0.03125 0.027344,0.011719 0.1074219,0.050781 L 4.5,7.7011719 4.5644531,7.5644531 4.4960937,7.53125 4.3886719,7.4804687 a 0.07555891,0.07555891 0 0 0 -0.00195,-0.00195 L 4.359375,7.4667969 Z m -4.41992187,0.1660156 -0.0664063,0.037109 -0.0234375,0.011719 a 0.07555891,0.07555891 0 0 0 -0.001953,0 l -0.10742188,0.0625 a 0.07555891,0.07555891 0 0 0 -0.001953,0 l -0.0644531,0.039063 0.078125,0.1308594 0.0644531,-0.039063 0.10546875,-0.060547 0.0214844,-0.011719 0.06640625,-0.035156 z m 4.96484377,0.1113281 -0.078125,0.1289063 0.064453,0.039063 0.042969,0.025391 0.082031,0.052734 L 5.0097656,8 5.0917969,7.8730469 5.0273437,7.8320312 4.9433594,7.7773437 a 0.07555891,0.07555891 0 0 0 -0.00195,0 l -0.042969,-0.025391 z m -5.48632815,0.2050781 -0.0625,0.042969 L -0.75,7.9863281 a 0.07555891,0.07555891 0 0 0 -0.001953,0.00195 l -0.0859375,0.0625 -0.0605469,0.044922 0.0898438,0.1210938 0.0605469,-0.044922 0.0859375,-0.0625 0.0351563,-0.023437 0.0605469,-0.044922 z m 5.99414065,0.1328126 -0.09375,0.1191406 0.058594,0.046875 0.052734,0.041016 0.064453,0.050781 0.058594,0.048828 0.095703,-0.1171875 -0.058594,-0.048828 -0.064453,-0.050781 a 0.07555891,0.07555891 0 0 0 -0.00195,-0.00195 l -0.052734,-0.041016 z m -6.4765625,0.2421875 -0.054687,0.050781 -0.046875,0.041016 -0.064453,0.0625 -0.056641,0.050781 0.1054688,0.109375 0.054687,-0.050781 0.064453,-0.060547 0.042969,-0.041016 0.056641,-0.050781 z m 6.9394531,0.1523437 -0.1054688,0.1074219 0.052734,0.052734 0.060547,0.060547 0.044922,0.044922 0.050781,0.054687 0.109375,-0.1035156 -0.052734,-0.054687 -0.044922,-0.046875 a 0.07555891,0.07555891 0 0 0 0,-0.00195 L 5.859375,8.4980469 Z m -7.3730469,0.2753906 -0.050781,0.056641 -0.050781,0.058594 a 0.07555891,0.07555891 0 0 0 -0.00195,0.00195 l -0.044922,0.054687 -0.048828,0.058594 0.1171875,0.095703 0.046875,-0.056641 0.046875,-0.054687 0.050781,-0.058594 0.048828,-0.056641 z m 7.7890625,0.171875 -0.1191406,0.09375 0.046875,0.058594 0.064453,0.080078 0.027344,0.037109 0.044922,0.060547 0.1210938,-0.091797 -0.044922,-0.060547 -0.027344,-0.037109 a 0.07555891,0.07555891 0 0 0 -0.00195,-0.00195 l -0.064453,-0.080078 z m -8.171875,0.3027344 -0.042969,0.0625 -0.054688,0.082031 a 0.07555891,0.07555891 0 0 0 -0.00195,0.00195 l -0.027344,0.042969 -0.041016,0.0625 0.1269531,0.082031 0.041016,-0.0625 0.027344,-0.042969 0.054687,-0.080078 0.042969,-0.0625 z m 8.53125,0.1875 -0.1269531,0.082031 0.041016,0.0625 0.064453,0.1054687 0.011719,0.019531 L 6.6074219,9.71875 6.7382812,9.6425781 6.7011719,9.5761719 6.6875,9.5546875 a 0.07555891,0.07555891 0 0 0 0,-0.00195 L 6.6230469,9.4472656 a 0.07555891,0.07555891 0 0 0 -0.00195,-0.00195 z m -8.8554687,0.328125 -0.035156,0.068359 -0.056641,0.1074219 a 0.07555891,0.07555891 0 0 0 -0.00195,0.00195 l -0.011719,0.025391 -0.033203,0.068359 0.1367187,0.064453 0.033203,-0.066406 0.011719,-0.023437 0.056641,-0.109375 0.033203,-0.066406 z m 9.1582031,0.2011719 -0.1367188,0.066406 0.033203,0.066406 0.011719,0.02344 0.050781,0.111329 0.03125,0.06836 0.1386718,-0.0625 -0.03125,-0.06836 -0.052734,-0.113282 a 0.07555891,0.07555891 0 0 0 0,-0.002 l -0.011719,-0.023437 z m -9.4199219,0.3476566 -0.027344,0.07031 -0.00977,0.02539 a 0.07555891,0.07555891 0 0 0 -0.00195,0.002 l -0.042969,0.115234 -0.027344,0.07031 0.1425781,0.05273 0.025391,-0.07031 0.044922,-0.115235 0.00781,-0.02344 0.029297,-0.07031 z m 9.6601563,0.21289 -0.1425782,0.04883 0.023437,0.07227 0.019531,0.05273 0.027344,0.08789 0.023437,0.07227 0.1445313,-0.04687 -0.023437,-0.07227 -0.029297,-0.08789 a 0.07555891,0.07555891 0 0 0 0,-0.002 l -0.019531,-0.05469 z m -9.859375,0.363282 -0.019531,0.07422 -0.015625,0.06055 a 0.07555891,0.07555891 0 0 0 0,0.002 l -0.021484,0.08399 -0.017578,0.07422 0.1484375,0.03516 0.017578,-0.07422 0.019531,-0.08203 0.015625,-0.06055 0.019531,-0.07422 z m 10.0332031,0.220703 -0.1484375,0.03125 0.015625,0.07422 0.021484,0.0957 0.00977,0.04883 0.013672,0.07422 0.1484375,-0.02734 -0.013672,-0.07422 -0.00977,-0.05078 a 0.07555891,0.07555891 0 0 0 0,-0.002 L 7.3125,11.130859 Z m -10.1640625,0.375 -0.011719,0.07617 -0.013672,0.109375 a 0.07555891,0.07555891 0 0 0 -0.00195,0.002 l -0.00391,0.03906 -0.00781,0.07422 0.1503906,0.01758 0.00781,-0.07422 0.00391,-0.03906 0.015625,-0.109375 0.00977,-0.07422 z m 10.2675781,0.224609 -0.1484375,0.01563 0.00781,0.07617 0.00195,0.01758 0.011719,0.128906 0.00586,0.07617 0.1503906,-0.01367 -0.00586,-0.07422 -0.011719,-0.13086 a 0.07555891,0.07555891 0 0 0 0,-0.002 l -0.00195,-0.01953 z m -10.3300781,0.380859 -0.00195,0.07617 -0.00195,0.04102 -0.00195,0.111328 v 0.07422 l 0.1503906,0.002 0.00195,-0.07422 v -0.109375 l 0.00195,-0.03906 0.00391,-0.07617 z m 10.21875,0.177735 -0.00195,0.07422 -0.00195,0.132812 v 0.01563 l -0.00195,0.07617 0.1503906,0.0059 0.00195,-0.07617 0.00195,-0.01563 a 0.07555891,0.07555891 0 0 0 0,-0.002 l 0.00195,-0.134765 v -0.07617 z m -10.0625,0.419922 -0.1503906,0.01367 0.00586,0.07422 0.00977,0.105469 a 0.07555891,0.07555891 0 0 0 0,0.002 l 0.00391,0.04492 0.00977,0.07422 0.1503907,-0.01758 -0.00977,-0.07422 -0.00391,-0.04297 -0.00977,-0.105469 z m 10.0351562,0.171875 -0.00781,0.07422 -0.00586,0.0625 -0.013672,0.08594 -0.00977,0.07422 L 7.375,13.125 l 0.00977,-0.07617 0.011719,-0.08594 a 0.07555891,0.07555891 0 0 0 0,-0.002 l 0.00781,-0.0625 0.00781,-0.07422 z m -9.9628906,0.416015 -0.1484375,0.0293 0.013672,0.07422 0.00586,0.02734 a 0.07555891,0.07555891 0 0 0 0,0.002 l 0.025391,0.11914 0.015625,0.07422 0.1484375,-0.0332 -0.015625,-0.07227 -0.025391,-0.11914 -0.00586,-0.02734 z m 9.8730469,0.167969 -0.017578,0.07422 -0.025391,0.107422 -0.00977,0.03711 -0.019531,0.07227 0.1464843,0.03906 0.019531,-0.07422 0.00977,-0.03711 a 0.07555891,0.07555891 0 0 0 0,-0.002 L 7.3007812,13.5 l 0.017578,-0.07422 z m -9.734375,0.408203 -0.1445313,0.04492 0.023437,0.07227 0.021484,0.06641 a 0.07555891,0.07555891 0 0 0 0,0.002 l 0.027344,0.07617 0.023437,0.07227 0.1425781,-0.05078 -0.023437,-0.07031 -0.027344,-0.07617 -0.019531,-0.06445 z m 9.5761719,0.164063 -0.025391,0.07031 -0.00586,0.01953 -0.044922,0.117188 v 0.002 l -0.027344,0.07031 0.1386719,0.05664 0.029297,-0.07031 v -0.002 a 0.07555891,0.07555891 0 0 0 0.00195,-0.002 l 0.042969,-0.11914 a 0.07555891,0.07555891 0 0 0 0.00195,-0.002 l 0.00586,-0.01953 0.025391,-0.07226 z m -9.3730469,0.390625 -0.1386719,0.06445 0.03125,0.06836 0.042969,0.08984 a 0.07555891,0.07555891 0 0 0 0,0.002 l 0.021484,0.04492 0.033203,0.06836 0.1367187,-0.06641 -0.033203,-0.06836 -0.021484,-0.04297 -0.041016,-0.0918 z m 9.1503906,0.158203 -0.033203,0.06641 -0.021484,0.04687 -0.044922,0.08594 -0.035156,0.06836 0.1347656,0.06836 0.035156,-0.06641 0.044922,-0.08789 a 0.07555891,0.07555891 0 0 0 0,-0.002 l 0.023437,-0.04687 0.033203,-0.06641 z m -8.8828125,0.371094 -0.1308594,0.07617 0.037109,0.06641 a 0.07555891,0.07555891 0 0 0 0.00195,0.002 l 0.064453,0.105469 a 0.07555891,0.07555891 0 0 0 0.00195,0.002 l 0.013672,0.02148 0.041016,0.0625 0.1269531,-0.08203 -0.041016,-0.0625 -0.013672,-0.01953 -0.064453,-0.105469 z m 8.6015625,0.148437 -0.041016,0.0625 -0.041016,0.0625 -0.042969,0.0625 -0.041016,0.06055 0.125,0.08594 0.041016,-0.0625 0.042969,-0.0625 0.041016,-0.06445 0.041016,-0.0625 z m -8.2773437,0.347656 -0.1210938,0.08984 0.044922,0.06055 0.013672,0.01758 a 0.07555891,0.07555891 0 0 0 0.00195,0.002 l 0.076172,0.09766 a 0.07555891,0.07555891 0 0 0 0.00195,0 l 0.00195,0.0039 0.048828,0.05859 0.1152343,-0.09766 -0.046875,-0.05664 -0.00195,-0.0039 -0.076172,-0.0957 -0.013672,-0.01563 z m 7.9355468,0.134766 -0.048828,0.05859 -0.060547,0.07226 -0.035156,0.04102 -0.048828,0.05664 0.1132812,0.09961 0.050781,-0.05664 0.035156,-0.04101 a 0.07555891,0.07555891 0 0 0 0.00195,-0.002 l 0.060547,-0.07227 0.048828,-0.05859 z m -7.5566406,0.318359 -0.109375,0.105469 0.052734,0.05469 0.027344,0.0293 a 0.07555891,0.07555891 0 0 0 0.00195,0 l 0.078125,0.07813 0.052734,0.05273 0.1074218,-0.107422 -0.054687,-0.05273 -0.076172,-0.07617 -0.027344,-0.0293 z m 7.1621094,0.123047 -0.054687,0.05273 -0.082031,0.07813 -0.025391,0.02344 -0.056641,0.05078 0.1015625,0.111328 0.056641,-0.05078 0.025391,-0.02344 a 0.07555891,0.07555891 0 0 0 0.00195,-0.002 l 0.082031,-0.07813 0.054687,-0.05078 z m -6.73242188,0.285156 -0.0957031,0.115235 0.0585938,0.04883 0.0449219,0.03711 0.0742188,0.05664 0.0585938,0.04687 0.09375,-0.119141 -0.0605469,-0.04687 -0.0722656,-0.05469 -0.0429687,-0.03711 z m 6.28710938,0.107422 -0.058594,0.04687 -0.00586,0.0039 -0.097656,0.07227 -0.015625,0.01172 -0.060547,0.04297 0.085937,0.123046 0.0625,-0.04297 0.015625,-0.01172 a 0.07555891,0.07555891 0 0 0 0.00195,0 l 0.099609,-0.07422 a 0.07555891,0.07555891 0 0 0 0.00195,-0.002 l 0.00391,-0.0039 0.060547,-0.04687 z m -5.81445313,0.246094 -0.0800781,0.126953 0.0625,0.04102 0.0644531,0.04102 a 0.07555891,0.07555891 0 0 0 0.001953,0 l 0.0644531,0.03906 0.0644531,0.03906 0.078125,-0.128906 -0.0644531,-0.03906 -0.0644531,-0.03906 -0.0625,-0.03906 z m 5.33007813,0.0918 -0.064453,0.03906 -0.021484,0.01367 -0.1054688,0.06055 -0.068359,0.03516 0.072266,0.132813 0.066406,-0.03516 h 0.00195 a 0.07555891,0.07555891 0 0 0 0,-0.002 l 0.109375,-0.06055 a 0.07555891,0.07555891 0 0 0 0,-0.002 l 0.023437,-0.01172 0.064453,-0.03906 z m -4.81835937,0.205078 -0.06445313,0.136719 0.06835938,0.0332 0.08593749,0.04102 a 0.07555891,0.07555891 0 0 0 0.001953,0 l 0.0507813,0.02148 0.0683594,0.03125 0.0605469,-0.138672 -0.0683594,-0.0293 -0.0488281,-0.02344 -0.0859375,-0.03906 z m 4.29687497,0.07422 -0.070312,0.03125 -0.041016,0.01758 -0.095703,0.03906 -0.068359,0.0293 0.056641,0.140625 0.070312,-0.0293 0.095703,-0.04102 a 0.07555891,0.07555891 0 0 0 0.00195,0 l 0.042969,-0.01953 0.068359,-0.0293 z M 0.56835937,17.125 l -0.046875,0.142578 0.0722656,0.02344 0.11523437,0.03906 0.0292969,0.0098 0.0722656,0.02148 0.0429687,-0.144531 -0.0722656,-0.02344 -0.0273438,-0.0078 -0.11328125,-0.03711 z m 3.20312503,0.05469 -0.072266,0.02148 -0.068359,0.02148 -0.074219,0.01953 -0.074219,0.01953 0.041016,0.146484 0.072266,-0.01953 0.076172,-0.02148 a 0.07555891,0.07555891 0 0 0 0.00195,0 l 0.068359,-0.02148 0.072266,-0.02148 z m -2.6328125,0.111329 -0.033203,0.146484 0.074219,0.01758 0.025391,0.0059 a 0.07555891,0.07555891 0 0 0 0.00195,0 l 0.1210938,0.02344 0.074219,0.01367 0.029297,-0.148438 -0.074219,-0.01367 -0.1210938,-0.02344 -0.023437,-0.0059 z m 2.0605469,0.03516 -0.076172,0.01367 -0.1035156,0.01758 -0.042969,0.0059 -0.074219,0.0098 0.021484,0.15039 0.074219,-0.0098 0.042969,-0.0059 a 0.07555891,0.07555891 0 0 0 0.00195,-0.002 l 0.1054687,-0.01758 0.074219,-0.01172 z m -1.4785157,0.0625 -0.013672,0.15039 0.076172,0.0059 0.068359,0.0078 a 0.07555891,0.07555891 0 0 0 0.00195,0 l 0.080078,0.0039 0.076172,0.0059 0.00977,-0.150391 -0.076172,-0.0059 -0.078125,-0.0039 -0.068359,-0.0078 z m 0.890625,0.01563 -0.076172,0.0039 -0.023437,0.002 -0.125,0.0039 -0.076172,0.0039 0.00586,0.15039 0.076172,-0.002 0.125,-0.0059 a 0.07555891,0.07555891 0 0 0 0.00195,0 l 0.025391,-0.002 0.076172,-0.0039 z"
       id="path1-8-0"
       transform="matrix(0.69410167,-0.71987698,0.60729204,0.79447868,0,0)" />
  </g>
</svg>
